<svg width="3014" height="448" viewBox="0 0 3014 448" fill="none" xmlns="http://www.w3.org/2000/svg">
<path d="M2.64844 340.465C1.67188 339.488 1.18359 336.884 1.18359 332.652C1.18359 327.118 1.67188 324.352 2.64844 324.352C5.57812 324.352 9.32161 323.863 13.8789 322.887C18.7617 321.91 23.319 320.608 27.5508 318.98C32.1081 317.353 34.7122 315.562 35.3633 313.609C37.6419 307.099 38.7812 292.288 38.7812 269.176V84.6055C38.7812 64.7487 37.6419 51.4023 35.3633 44.5664C34.7122 41.9622 32.2708 39.8464 28.0391 38.2188C24.1328 36.2656 19.5755 34.8008 14.3672 33.8242C9.48438 32.8477 5.41536 32.3594 2.16016 32.3594C0.858073 32.3594 0.207031 29.918 0.207031 25.0352C0.207031 20.4779 0.858073 17.5482 2.16016 16.2461C23.6445 17.2227 45.2917 17.7109 67.1016 17.7109H151.574C177.941 17.7109 201.542 21.9427 222.375 30.4062C243.534 38.5443 261.275 49.9375 275.598 64.5859C290.246 79.2344 301.314 95.9987 308.801 114.879C316.613 133.759 320.52 153.779 320.52 174.938C320.52 206.188 313.684 234.345 300.012 259.41C286.665 284.15 267.297 303.844 241.906 318.492C216.516 333.141 186.242 340.465 151.086 340.465C147.831 340.465 142.785 340.302 135.949 339.977C129.439 339.977 121.138 339.814 111.047 339.488C100.956 339.163 92.3294 338.837 85.168 338.512C78.0065 338.186 72.1471 338.186 67.5898 338.512L2.64844 340.465ZM158.898 315.562C224.979 315.562 258.02 268.036 258.02 172.984C258.02 148.57 253.951 126.598 245.812 107.066C238 87.2096 226.444 71.4219 211.145 59.7031C196.171 47.9844 177.616 42.125 155.48 42.125H153.039C121.789 42.125 104.211 44.7292 100.305 49.9375C96.0729 55.4714 93.957 65.5625 93.957 80.2109V271.617C93.957 289.521 95.7474 301.565 99.3281 307.75C104.536 312.958 124.393 315.562 158.898 315.562ZM449.914 341.93C431.034 341.93 413.618 337.21 397.668 327.77C382.043 318.004 369.51 304.983 360.07 288.707C350.63 272.105 345.91 253.876 345.91 234.02C345.91 211.884 350.305 192.516 359.094 175.914C367.883 159.312 379.764 146.454 394.738 137.34C410.038 127.9 427.453 123.18 446.984 123.18C462.935 123.18 476.607 126.109 488 131.969C499.393 137.828 508.671 145.478 515.832 154.918C523.319 164.033 528.69 173.798 531.945 184.215C535.526 194.306 537.316 203.746 537.316 212.535C537.316 219.697 536.014 224.254 533.41 226.207C531.132 227.835 526.249 228.648 518.762 228.648H402.062C399.784 228.648 398.645 229.625 398.645 231.578C398.645 243.622 400.76 255.016 404.992 265.758C409.224 276.826 416.385 286.428 426.477 294.566C436.893 302.704 449.263 306.773 463.586 306.773C472.049 306.773 479.048 306.122 484.582 304.82C490.116 303.518 495.487 302.053 500.695 300.426C503.299 299.449 506.555 297.822 510.461 295.543C514.367 292.939 517.948 290.66 521.203 288.707C524.458 286.428 526.086 285.289 526.086 285.289C526.737 285.615 527.551 286.591 528.527 288.219C529.504 289.846 529.992 291.474 529.992 293.102C529.992 296.682 529.016 299.775 527.062 302.379C523.807 308.238 518.273 314.26 510.461 320.445C502.974 326.305 494.022 331.35 483.605 335.582C473.189 339.814 461.958 341.93 449.914 341.93ZM402.062 205.211H481.164C484.094 205.211 485.559 202.77 485.559 197.887C485.559 190.074 483.768 182.262 480.188 174.449C476.932 166.311 472.049 159.475 465.539 153.941C459.354 148.408 452.03 145.641 443.566 145.641C433.475 145.641 425.012 149.059 418.176 155.895C411.665 162.73 406.783 170.543 403.527 179.332C400.598 188.121 399.133 195.608 399.133 201.793C399.133 204.072 400.109 205.211 402.062 205.211ZM630.578 343.883C610.07 343.883 589.074 339.326 567.59 330.211C566.613 326.305 565.474 320.771 564.172 313.609C563.195 306.448 562.219 299.286 561.242 292.125C560.591 284.638 560.266 278.941 560.266 275.035C562.544 273.408 564.823 272.594 567.102 272.594C574.263 272.594 578.169 273.896 578.82 276.5C581.424 290.172 587.772 301.24 597.863 309.703C608.28 317.841 619.51 321.91 631.555 321.91C640.669 321.91 648.156 319.632 654.016 315.074C659.875 310.191 662.805 303.03 662.805 293.59C662.805 286.754 660.201 280.569 654.992 275.035C649.784 269.176 644.901 265.107 640.344 262.828L608.117 245.738C593.143 237.926 581.587 229.299 573.449 219.859C565.311 210.094 561.242 198.375 561.242 184.703C561.242 171.357 564.823 160.126 571.984 151.012C579.471 141.897 589.074 134.898 600.793 130.016C612.837 125.133 625.695 122.691 639.367 122.691C656.945 122.691 675.826 125.458 696.008 130.992C697.635 138.154 698.775 146.292 699.426 155.406C700.402 164.521 701.053 174.612 701.379 185.68C701.379 188.284 699.263 189.586 695.031 189.586C687.87 189.586 683.964 188.284 683.312 185.68C681.034 174.286 676.151 164.684 668.664 156.871C661.503 148.733 651.737 144.664 639.367 144.664C629.927 144.664 622.44 146.78 616.906 151.012C611.698 155.243 609.094 161.266 609.094 169.078C609.094 177.542 612.349 184.703 618.859 190.562C625.37 196.422 634.159 202.118 645.227 207.652C653.69 211.884 661.828 216.441 669.641 221.324C677.779 226.207 685.428 231.578 692.59 237.438C705.285 247.529 711.633 260.875 711.633 277.477C711.633 291.148 707.889 303.03 700.402 313.121C693.241 322.887 683.475 330.536 671.105 336.07C659.061 341.279 645.552 343.883 630.578 343.883ZM744.348 340.465C743.046 339.163 742.395 336.07 742.395 331.188C742.395 326.63 743.046 324.352 744.348 324.352C746.952 324.352 750.37 323.701 754.602 322.398C758.833 321.096 762.74 319.469 766.32 317.516C770.227 315.562 772.342 313.935 772.668 312.633C773.97 307.099 774.947 301.24 775.598 295.055C776.249 288.87 776.574 282.685 776.574 276.5V197.887C776.574 182.587 773.97 172.171 768.762 166.637C765.832 163.056 762.089 160.615 757.531 159.312C753.299 158.01 749.393 157.197 745.812 156.871C742.557 156.546 740.93 156.057 740.93 155.406C740.93 145.641 741.743 140.758 743.371 140.758C753.788 139.456 765.181 137.665 777.551 135.387C790.246 132.783 801.639 130.341 811.73 128.062L827.355 124.156C829.634 124.156 830.773 127.411 830.773 133.922C830.773 138.154 830.122 144.339 828.82 152.477C827.844 160.289 827.355 168.102 827.355 175.914V268.688C827.355 289.195 828.495 303.844 830.773 312.633C831.424 313.935 833.54 315.562 837.121 317.516C840.702 319.469 844.608 321.096 848.84 322.398C853.072 323.701 856.001 324.352 857.629 324.352C858.605 324.352 859.094 326.63 859.094 331.188C859.419 335.745 859.257 338.837 858.605 340.465C848.514 339.814 838.26 339.163 827.844 338.512C817.427 337.861 808.801 337.535 801.965 337.535C791.874 337.535 781.457 337.861 770.715 338.512C760.298 339.163 751.509 339.814 744.348 340.465ZM798.059 73.375C789.921 73.375 782.922 70.4453 777.062 64.5859C771.203 58.7266 768.273 51.7279 768.273 43.5898C768.273 35.4518 771.203 28.6159 777.062 23.082C782.922 17.2227 789.921 14.293 798.059 14.293C806.197 14.293 813.033 17.2227 818.566 23.082C824.426 28.6159 827.355 35.4518 827.355 43.5898C827.355 51.7279 824.426 58.7266 818.566 64.5859C813.033 70.4453 806.197 73.375 798.059 73.375ZM969.934 447.398C954.309 447.398 939.66 445.283 925.988 441.051C912.642 437.145 901.737 431.122 893.273 422.984C885.135 414.846 881.066 405.081 881.066 393.688C881.066 384.247 885.624 375.133 894.738 366.344C904.178 357.555 914.27 351.37 925.012 347.789C916.548 345.185 908.736 340.302 901.574 333.141C894.413 325.654 890.832 317.027 890.832 307.262C890.832 293.59 902.876 279.104 926.965 263.805C920.78 260.875 914.595 256.155 908.41 249.645C902.551 242.809 897.668 234.996 893.762 226.207C890.181 217.092 888.391 207.978 888.391 198.863C888.391 183.238 892.297 169.892 900.109 158.824C907.922 147.757 918.339 139.293 931.359 133.434C944.706 127.249 959.517 124.156 975.793 124.156C988.163 124.156 1001.67 126.272 1016.32 130.504C1030.97 134.736 1043.99 136.852 1055.38 136.852H1083.21C1083.87 136.852 1085.01 138.967 1086.63 143.199C1088.26 147.431 1089.07 150.686 1089.07 152.965C1089.07 157.522 1088.1 159.801 1086.14 159.801H1054.41C1053.1 159.801 1052.45 160.289 1052.45 161.266L1056.85 173.961C1059.78 182.099 1061.24 189.911 1061.24 197.398C1061.24 210.094 1057.5 222.301 1050.01 234.02C1042.85 245.413 1032.92 254.69 1020.23 261.852C1007.53 269.013 993.046 272.594 976.77 272.594C970.91 272.594 965.376 272.431 960.168 272.105C955.285 271.78 950.728 271.292 946.496 270.641C942.59 272.268 939.009 275.361 935.754 279.918C932.499 284.15 930.871 288.056 930.871 291.637C930.871 296.194 933.801 299.612 939.66 301.891C945.52 304.169 952.844 305.797 961.633 306.773C970.747 307.424 979.536 307.75 988 307.75H993.371C1025.92 307.75 1049.69 311.982 1064.66 320.445C1079.96 328.909 1087.61 341.116 1087.61 357.066C1087.93 373.342 1082.56 388.316 1071.5 401.988C1060.43 415.66 1045.94 426.565 1028.04 434.703C1010.14 443.167 990.767 447.398 969.934 447.398ZM975.793 251.598C987.837 251.598 996.626 247.04 1002.16 237.926C1008.02 228.486 1010.95 216.93 1010.95 203.258C1010.95 186.005 1007.69 172.008 1001.18 161.266C994.673 150.523 985.233 145.152 972.863 145.152C961.145 145.152 952.518 150.198 946.984 160.289C941.451 170.38 938.684 181.936 938.684 194.957C938.684 210.908 941.939 224.417 948.449 235.484C954.96 246.227 964.074 251.598 975.793 251.598ZM981.164 423.961C999.393 423.961 1014.2 419.729 1025.6 411.266C1037.32 402.802 1043.18 392.223 1043.18 379.527C1043.18 368.134 1035.04 360.647 1018.76 357.066C1010.62 355.113 1001.51 353.648 991.418 352.672C981.327 352.021 972.049 351.695 963.586 351.695C958.378 351.695 952.355 352.509 945.52 354.137C939.009 355.764 933.312 358.857 928.43 363.414C923.547 367.971 921.105 374.482 921.105 382.945C921.105 390.758 923.872 397.757 929.406 403.941C935.266 410.126 942.753 415.009 951.867 418.59C961.307 422.171 971.073 423.961 981.164 423.961ZM1117.88 340.953C1116.58 339.651 1115.93 336.559 1115.93 331.676C1115.93 326.793 1116.58 324.352 1117.88 324.352C1120.49 324.352 1124.07 323.863 1128.62 322.887C1133.51 321.585 1137.9 320.12 1141.81 318.492C1146.04 316.539 1148.32 314.911 1148.64 313.609C1150.92 304.495 1152.06 292.613 1152.06 277.965V198.375C1152.06 183.727 1149.46 173.31 1144.25 167.125C1141.32 163.544 1137.58 161.266 1133.02 160.289C1128.79 158.987 1125.04 158.173 1121.79 157.848C1118.53 157.197 1116.91 156.383 1116.91 155.406C1116.91 146.292 1117.72 141.409 1119.35 140.758C1126.83 140.107 1137.74 138.479 1152.06 135.875C1166.71 133.271 1180.38 130.341 1193.08 127.086C1193.73 126.76 1195.19 126.435 1197.47 126.109C1200.08 125.458 1201.54 125.133 1201.87 125.133C1203.17 125.133 1204.31 126.272 1205.29 128.551C1206.26 130.829 1206.75 132.62 1206.75 133.922C1206.1 138.479 1205.61 142.223 1205.29 145.152C1204.96 148.082 1204.8 150.198 1204.8 151.5C1204.8 153.128 1205.12 153.941 1205.77 153.941C1206.1 153.941 1206.75 153.453 1207.73 152.477C1215.54 144.664 1225.47 137.828 1237.51 131.969C1249.88 126.109 1262.41 123.18 1275.11 123.18C1317.1 123.18 1338.1 156.546 1338.1 223.277V269.664C1338.1 290.172 1339.24 304.82 1341.52 313.609C1342.17 314.911 1344.45 316.539 1348.35 318.492C1352.58 320.12 1356.98 321.585 1361.54 322.887C1366.42 323.863 1369.84 324.352 1371.79 324.352C1372.77 324.352 1373.25 326.793 1373.25 331.676C1373.58 336.233 1373.42 339.326 1372.77 340.953C1371.46 340.628 1366.91 340.139 1359.09 339.488C1351.61 339.163 1343.31 338.837 1334.19 338.512C1325.4 337.861 1318.4 337.535 1313.2 337.535C1307.99 337.535 1301.15 337.861 1292.69 338.512C1284.55 338.837 1276.74 339.163 1269.25 339.488C1262.09 340.139 1257.53 340.628 1255.58 340.953C1254.28 339.651 1253.62 336.559 1253.62 331.676C1253.62 326.793 1254.28 324.352 1255.58 324.352C1258.18 324.352 1261.6 323.863 1265.83 322.887C1270.06 321.585 1273.97 320.12 1277.55 318.492C1281.46 316.539 1283.57 314.911 1283.9 313.609C1285.2 308.727 1286.18 303.355 1286.83 297.496C1287.48 291.637 1287.8 285.126 1287.8 277.965V231.578C1287.8 204.56 1284.06 185.68 1276.57 174.938C1269.41 164.195 1257.86 158.824 1241.91 158.824C1231.49 158.824 1222.38 161.754 1214.56 167.613C1206.75 173.147 1202.84 179.169 1202.84 185.68V269.664C1202.84 290.172 1203.98 304.82 1206.26 313.609C1206.91 314.911 1209.19 316.539 1213.1 318.492C1217 320.12 1221.24 321.585 1225.79 322.887C1230.35 323.863 1233.44 324.352 1235.07 324.352C1236.37 324.352 1237.02 326.793 1237.02 331.676C1237.35 336.233 1237.19 339.326 1236.54 340.953C1234.91 340.628 1230.19 340.139 1222.38 339.488C1214.89 339.163 1206.91 338.837 1198.45 338.512C1189.99 337.861 1183.15 337.535 1177.94 337.535C1172.73 337.535 1165.73 337.861 1156.95 338.512C1148.16 338.837 1139.86 339.163 1132.04 339.488C1124.56 340.139 1119.84 340.628 1117.88 340.953ZM1656.46 342.906C1634.97 342.906 1614.79 338.674 1595.91 330.211C1577.36 321.747 1560.92 310.029 1546.59 295.055C1532.6 280.081 1521.53 262.991 1513.39 243.785C1505.58 224.254 1501.67 203.583 1501.67 181.773C1501.67 158.661 1505.74 137.014 1513.88 116.832C1522.34 96.6497 1533.9 78.7461 1548.55 63.1211C1563.2 47.4961 1580.12 35.2891 1599.33 26.5C1618.86 17.7109 1639.86 13.3164 1662.32 13.3164C1691.61 13.3164 1729.37 19.3385 1775.6 31.3828C1776.57 31.7083 1778.04 42.4505 1779.99 63.6094C1781.29 79.8854 1782.27 91.2786 1782.92 97.7891C1783.57 104.299 1780.15 107.555 1772.67 107.555C1768.11 107.555 1764.53 106.578 1761.93 104.625C1760.95 100.068 1759.48 95.5104 1757.53 90.9531C1755.9 86.3958 1752.81 80.5365 1748.25 73.375C1740.12 61.6562 1728.72 52.7044 1714.07 46.5195C1699.75 40.3346 1683.15 37.2422 1664.27 37.2422C1643.11 37.2422 1624.88 43.1016 1609.58 54.8203C1594.28 66.2135 1582.56 82.1641 1574.43 102.672C1566.61 122.854 1562.71 146.292 1562.71 172.984C1562.71 196.096 1566.94 218.557 1575.4 240.367C1580.94 254.69 1588.59 267.874 1598.35 279.918C1608.44 291.637 1620.16 301.077 1633.51 308.238C1647.18 315.074 1661.99 318.492 1677.94 318.492C1698.77 318.492 1714.4 315.4 1724.82 309.215C1728.07 306.936 1729.7 303.193 1729.7 297.984L1729.21 262.828V259.41C1729.21 239.553 1728.07 226.37 1725.79 219.859C1725.14 216.93 1722.7 214.651 1718.47 213.023C1714.24 211.07 1709.52 209.768 1704.31 209.117C1699.1 208.141 1694.54 207.652 1690.64 207.652C1689.33 207.652 1688.68 205.211 1688.68 200.328C1688.68 195.771 1689.33 192.841 1690.64 191.539C1694.54 191.539 1704.47 192.027 1720.42 193.004C1736.7 193.98 1749.56 194.469 1759 194.469L1818.08 191.539C1819.05 194.469 1819.54 197.236 1819.54 199.84C1819.54 205.374 1818.89 208.141 1817.59 208.141C1815.64 208.141 1811.24 209.117 1804.41 211.07C1797.9 213.023 1793.18 214.651 1790.25 215.953C1786.01 218.232 1783.9 230.113 1783.9 251.598L1784.39 272.105V283.336C1784.39 288.544 1785.2 293.59 1786.83 298.473C1788.46 303.355 1789.27 305.797 1789.27 305.797C1789.27 310.354 1785.69 314.26 1778.53 317.516C1765.83 323.049 1756.23 327.118 1749.72 329.723C1743.53 332.001 1731.65 334.768 1714.07 338.023C1696.82 341.279 1677.62 342.906 1656.46 342.906ZM1901.09 342.418C1884.81 342.418 1871.46 338.023 1861.05 329.234C1850.96 320.12 1845.91 307.75 1845.91 292.125C1845.91 281.383 1849.33 271.617 1856.16 262.828C1863.33 254.039 1873.25 246.552 1885.95 240.367C1890.51 238.089 1894.58 236.298 1898.16 234.996C1902.06 233.368 1905.64 231.904 1908.9 230.602C1920.29 227.021 1929.73 224.091 1937.22 221.812C1945.03 219.534 1950.57 217.906 1953.82 216.93C1956.75 215.302 1958.21 212.698 1958.21 209.117V182.262C1958.21 170.868 1955.61 161.917 1950.4 155.406C1945.19 148.896 1938.2 145.641 1929.41 145.641C1919.64 145.641 1911.99 148.733 1906.46 154.918C1900.92 160.777 1898.16 169.241 1898.16 180.309C1898.16 186.819 1895.71 191.702 1890.83 194.957C1885.95 197.887 1880.42 199.352 1874.23 199.352C1862.19 199.352 1853.72 195.445 1848.84 187.633C1848.84 179.82 1851.77 172.171 1857.63 164.684C1863.49 156.871 1871.14 149.872 1880.58 143.688C1890.34 137.503 1901.09 132.62 1912.8 129.039C1924.52 125.133 1936.24 123.18 1947.96 123.18C1968.14 123.18 1983.28 128.551 1993.37 139.293C2003.46 149.71 2008.51 167.776 2008.51 193.492V289.684C2008.51 303.03 2013.88 309.703 2024.62 309.703C2029.5 309.703 2035.04 307.587 2041.22 303.355C2043.18 303.681 2044.15 305.471 2044.15 308.727C2044.15 314.911 2043.18 319.794 2041.22 323.375C2036.34 327.281 2029.83 331.35 2021.69 335.582C2013.55 339.814 2005.74 341.93 1998.25 341.93C1990.77 341.93 1983.44 339.163 1976.28 333.629C1969.12 328.095 1964.4 322.073 1962.12 315.562C1959.52 317.841 1957.56 319.469 1956.26 320.445C1954.96 321.422 1952.84 323.049 1949.91 325.328C1943.08 329.885 1935.59 333.954 1927.45 337.535C1919.32 340.79 1910.53 342.418 1901.09 342.418ZM1925.99 310.68C1934.78 310.68 1942.26 308.401 1948.45 303.844C1954.96 299.286 1958.21 294.078 1958.21 288.219V238.414L1926.96 249.156C1919.48 252.411 1912.8 256.318 1906.95 260.875C1901.09 265.432 1898.16 271.943 1898.16 280.406C1898.16 290.823 1900.76 298.473 1905.97 303.355C1911.18 308.238 1917.85 310.68 1925.99 310.68ZM2068.08 340.465C2066.78 339.163 2066.12 336.07 2066.12 331.188C2066.12 326.63 2066.78 324.352 2068.08 324.352C2070.68 324.352 2074.1 323.701 2078.33 322.398C2082.56 321.096 2086.47 319.469 2090.05 317.516C2093.96 315.562 2096.07 313.935 2096.4 312.633C2097.7 307.099 2098.68 301.24 2099.33 295.055C2099.98 288.87 2100.3 282.685 2100.3 276.5V73.375C2100.3 61.0052 2099.33 49.9375 2097.38 40.1719C2096.07 34.9635 2087.93 32.3594 2072.96 32.3594H2068.08C2066.12 32.3594 2065.15 30.4062 2065.15 26.5C2065.15 21.2917 2066.12 18.6875 2068.08 18.6875C2085.98 17.0599 2102.1 14.293 2116.42 10.3867C2131.07 6.48047 2140.83 3.55078 2145.71 1.59766L2149.13 0.132812H2150.11C2151.41 0.132812 2152.71 1.10938 2154.02 3.0625C2155.64 5.01562 2156.62 6.64323 2156.95 7.94531C2153.04 19.9896 2151.09 35.2891 2151.09 53.8438V268.688C2151.09 289.195 2152.23 303.844 2154.5 312.633C2155.15 313.935 2157.27 315.562 2160.85 317.516C2164.43 319.469 2168.34 321.096 2172.57 322.398C2176.8 323.701 2179.73 324.352 2181.36 324.352C2182.34 324.352 2182.82 326.63 2182.82 331.188C2183.15 335.745 2182.99 338.837 2182.34 340.465C2172.24 339.814 2161.99 339.163 2151.57 338.512C2141.16 337.861 2132.53 337.535 2125.7 337.535C2115.6 337.535 2105.19 337.861 2094.45 338.512C2084.03 339.163 2075.24 339.814 2068.08 340.465ZM2212.12 340.465C2210.82 339.163 2210.17 336.07 2210.17 331.188C2210.17 326.63 2210.82 324.352 2212.12 324.352C2214.73 324.352 2218.14 323.701 2222.38 322.398C2226.61 321.096 2230.51 319.469 2234.09 317.516C2238 315.562 2240.12 313.935 2240.44 312.633C2241.74 307.099 2242.72 301.24 2243.37 295.055C2244.02 288.87 2244.35 282.685 2244.35 276.5V73.375C2244.35 61.0052 2243.37 49.9375 2241.42 40.1719C2240.12 34.9635 2231.98 32.3594 2217 32.3594H2212.12C2210.17 32.3594 2209.19 30.4062 2209.19 26.5C2209.19 21.2917 2210.17 18.6875 2212.12 18.6875C2230.02 17.0599 2246.14 14.293 2260.46 10.3867C2275.11 6.48047 2284.88 3.55078 2289.76 1.59766L2293.18 0.132812H2294.15C2295.45 0.132812 2296.76 1.10938 2298.06 3.0625C2299.69 5.01562 2300.66 6.64323 2300.99 7.94531C2297.08 19.9896 2295.13 35.2891 2295.13 53.8438V268.688C2295.13 289.195 2296.27 303.844 2298.55 312.633C2299.2 313.935 2301.31 315.562 2304.89 317.516C2308.48 319.469 2312.38 321.096 2316.61 322.398C2320.85 323.701 2323.77 324.352 2325.4 324.352C2326.38 324.352 2326.87 326.63 2326.87 331.188C2327.19 335.745 2327.03 338.837 2326.38 340.465C2316.29 339.814 2306.03 339.163 2295.62 338.512C2285.2 337.861 2276.57 337.535 2269.74 337.535C2259.65 337.535 2249.23 337.861 2238.49 338.512C2228.07 339.163 2219.28 339.814 2212.12 340.465ZM2457.24 341.93C2438.36 341.93 2420.94 337.21 2404.99 327.77C2389.37 318.004 2376.83 304.983 2367.39 288.707C2357.95 272.105 2353.23 253.876 2353.23 234.02C2353.23 211.884 2357.63 192.516 2366.42 175.914C2375.21 159.312 2387.09 146.454 2402.06 137.34C2417.36 127.9 2434.78 123.18 2454.31 123.18C2470.26 123.18 2483.93 126.109 2495.32 131.969C2506.72 137.828 2515.99 145.478 2523.16 154.918C2530.64 164.033 2536.01 173.798 2539.27 184.215C2542.85 194.306 2544.64 203.746 2544.64 212.535C2544.64 219.697 2543.34 224.254 2540.73 226.207C2538.46 227.835 2533.57 228.648 2526.09 228.648H2409.39C2407.11 228.648 2405.97 229.625 2405.97 231.578C2405.97 243.622 2408.08 255.016 2412.32 265.758C2416.55 276.826 2423.71 286.428 2433.8 294.566C2444.22 302.704 2456.59 306.773 2470.91 306.773C2479.37 306.773 2486.37 306.122 2491.91 304.82C2497.44 303.518 2502.81 302.053 2508.02 300.426C2510.62 299.449 2513.88 297.822 2517.79 295.543C2521.69 292.939 2525.27 290.66 2528.53 288.707C2531.78 286.428 2533.41 285.289 2533.41 285.289C2534.06 285.615 2534.88 286.591 2535.85 288.219C2536.83 289.846 2537.32 291.474 2537.32 293.102C2537.32 296.682 2536.34 299.775 2534.39 302.379C2531.13 308.238 2525.6 314.26 2517.79 320.445C2510.3 326.305 2501.35 331.35 2490.93 335.582C2480.51 339.814 2469.28 341.93 2457.24 341.93ZM2409.39 205.211H2488.49C2491.42 205.211 2492.88 202.77 2492.88 197.887C2492.88 190.074 2491.09 182.262 2487.51 174.449C2484.26 166.311 2479.37 159.475 2472.86 153.941C2466.68 148.408 2459.35 145.641 2450.89 145.641C2440.8 145.641 2432.34 149.059 2425.5 155.895C2418.99 162.73 2414.11 170.543 2410.85 179.332C2407.92 188.121 2406.46 195.608 2406.46 201.793C2406.46 204.072 2407.43 205.211 2409.39 205.211ZM2569.54 340.953C2568.24 339.651 2567.59 336.559 2567.59 331.676C2567.59 326.793 2568.24 324.352 2569.54 324.352C2572.15 324.352 2575.73 323.863 2580.29 322.887C2585.17 321.585 2589.56 320.12 2593.47 318.492C2597.7 316.539 2599.98 314.911 2600.3 313.609C2602.58 304.495 2603.72 292.613 2603.72 277.965V198.375C2603.72 182.75 2601.12 172.333 2595.91 167.125C2592.98 163.544 2589.4 161.103 2585.17 159.801C2580.94 158.173 2577.03 157.197 2573.45 156.871C2570.19 156.546 2568.57 156.057 2568.57 155.406C2568.57 146.292 2569.38 141.409 2571.01 140.758C2580.45 140.107 2590.7 138.642 2601.77 136.363C2613.16 133.759 2626.35 130.992 2641.32 128.062C2646.2 127.086 2649.3 126.435 2650.6 126.109C2652.23 125.458 2653.2 125.133 2653.53 125.133C2654.83 125.133 2655.97 126.272 2656.95 128.551C2657.92 130.504 2658.41 132.294 2658.41 133.922C2656.46 147.594 2655.48 155.406 2655.48 157.359C2661.34 148.57 2669.32 140.758 2679.41 133.922C2689.5 126.76 2699.75 123.18 2710.17 123.18C2728.07 123.18 2741.42 128.551 2750.21 139.293C2750.21 166.962 2742.39 180.797 2726.77 180.797C2721.24 180.797 2714.89 177.542 2707.73 171.031C2700.57 164.521 2693.57 161.266 2686.73 161.266C2679.89 161.266 2674.04 163.707 2669.15 168.59C2664.27 173.473 2660.53 179.495 2657.92 186.656C2655.64 193.818 2654.5 201.142 2654.5 208.629V269.664C2654.5 290.172 2655.64 304.82 2657.92 313.609C2658.57 314.911 2660.85 316.539 2664.76 318.492C2668.66 320.12 2672.9 321.585 2677.45 322.887C2682.01 323.863 2685.27 324.352 2687.22 324.352C2688.2 324.352 2688.68 326.793 2688.68 331.676C2689.01 336.233 2689.01 339.326 2688.68 340.953C2687.06 340.628 2682.34 340.139 2674.52 339.488C2667.04 339.163 2658.9 338.837 2650.11 338.512C2641.65 337.861 2634.81 337.535 2629.6 337.535C2624.39 337.535 2617.39 337.861 2608.61 338.512C2599.82 338.837 2591.52 339.163 2583.7 339.488C2576.22 340.139 2571.5 340.628 2569.54 340.953ZM2813.2 447.398C2804.73 447.398 2798.22 445.12 2793.66 440.562C2789.11 436.005 2786.83 430.797 2786.83 424.938C2786.83 416.474 2789.92 410.126 2796.11 405.895C2829.96 405.895 2852.26 392.548 2863 365.855L2876.18 332.652L2803.43 163.219C2800.17 155.732 2795.45 150.198 2789.27 146.617C2783.08 142.711 2776.25 140.758 2768.76 140.758C2767.46 140.758 2766.81 138.479 2766.81 133.922C2766.81 128.388 2767.3 125.458 2768.27 125.133L2794.64 126.598C2809.94 127.574 2821.5 128.062 2829.31 128.062C2836.8 128.062 2847.05 127.574 2860.07 126.598C2873.42 125.621 2881.72 125.133 2884.97 125.133C2885.3 126.435 2885.46 127.9 2885.46 129.527C2885.79 130.829 2885.95 132.294 2885.95 133.922C2885.95 138.479 2885.3 140.758 2884 140.758C2882.04 140.758 2878.95 141.409 2874.72 142.711C2870.49 143.688 2866.58 145.152 2863 147.105C2859.42 148.733 2857.63 150.523 2857.63 152.477V155.406C2857.63 158.01 2861.37 168.59 2868.86 187.145C2876.67 205.699 2888.07 232.229 2903.04 266.734L2922.08 218.395L2939.66 173.473C2941.61 167.939 2942.59 162.893 2942.59 158.336C2942.59 154.104 2939.99 150.198 2934.78 146.617C2929.57 142.711 2921.76 140.758 2911.34 140.758C2910.04 140.758 2909.39 138.316 2909.39 133.434C2909.39 129.202 2910.04 126.435 2911.34 125.133C2915.25 125.133 2923.22 125.621 2935.27 126.598C2947.64 127.574 2957.56 128.062 2965.05 128.062C2971.89 128.062 2980.35 127.574 2990.44 126.598C3000.21 125.621 3007.37 125.133 3011.93 125.133C3013.23 126.76 3013.88 129.365 3013.88 132.945C3013.88 138.154 3013.23 140.758 3011.93 140.758C3009 140.758 3004.93 141.572 2999.72 143.199C2994.51 144.501 2989.63 146.617 2985.07 149.547C2980.51 152.151 2977.26 155.732 2975.3 160.289L2885.95 376.109C2866.42 423.635 2842.17 447.398 2813.2 447.398Z" fill="#171B1E"/>
</svg>
