<svg width="3315" height="456" viewBox="0 0 3315 456" fill="none" xmlns="http://www.w3.org/2000/svg">
<path d="M0.5 346H15.5C34.8333 346 44.5 340 44.5 328V40.5C44.5 28.5 34.8333 22.5 15.5 22.5H0.5V8.99998H158.5C210.833 8.99998 250.167 24 276.5 54C302.833 83.6667 316 127 316 184C316 241.667 302.833 285.333 276.5 315C250.167 344.333 210.667 359 158 359H0.5V346ZM157 339.5C193 339.5 220.167 326 238.5 299C257.167 272 266.5 233.667 266.5 184C266.5 134.667 257.333 96.5 239 69.5C221 42.5 194 29 158 29H93.5V339.5H157ZM398.727 230C398.393 232.667 398.227 236.667 398.227 242C398.227 273.333 405.56 298.5 420.227 317.5C435.227 336.5 454.893 346 479.227 346C501.227 346 519.393 340.333 533.727 329C548.06 317.333 557.393 299.5 561.727 275.5H576.227C573.56 302.167 563.56 323.667 546.227 340C528.893 356 504.56 364 473.227 364C434.56 364 404.393 353.5 382.727 332.5C361.393 311.167 350.727 280.833 350.727 241.5C350.727 203.5 361.393 173.667 382.727 152C404.393 130 434.06 119 471.727 119C506.393 119 532.727 128.333 550.727 147C569.06 165.333 578.227 189.167 578.227 218.5V230H398.727ZM473.227 138C453.56 138 437.56 144.5 425.227 157.5C412.893 170.5 404.727 188.167 400.727 210.5H536.727C536.06 191.833 530.56 175.167 520.227 160.5C510.227 145.5 494.56 138 473.227 138ZM721.328 364C683.661 364 656.995 353.5 641.328 332.5L635.828 363H623.328V288.5H635.828C639.495 305.833 647.661 319.667 660.328 330C672.995 340 688.828 345 707.828 345C727.161 345 741.995 341.5 752.328 334.5C762.995 327.5 768.328 317.333 768.328 304C768.328 293.667 763.661 285.667 754.328 280C744.995 274 730.661 267.667 711.328 261C693.328 254.333 678.661 248.167 667.328 242.5C656.328 236.5 646.828 228.5 638.828 218.5C630.828 208.167 626.828 195.167 626.828 179.5C626.828 160.167 634.328 145.333 649.328 135C664.328 124.333 685.328 119 712.328 119C727.328 119 741.995 121.5 756.328 126.5C770.661 131.5 781.661 138.833 789.328 148.5L794.828 119H807.328V191.5H794.828C790.828 175.833 782.828 163.167 770.828 153.5C759.161 143.833 744.161 139 725.828 139C709.828 139 696.995 142.167 687.328 148.5C677.661 154.833 672.828 163.5 672.828 174.5C672.828 186.5 677.828 195.833 687.828 202.5C698.161 209.167 713.661 216 734.328 223C751.995 229.333 766.161 235.167 776.828 240.5C787.495 245.5 796.495 252.833 803.828 262.5C811.495 271.833 815.328 283.833 815.328 298.5C815.328 320.5 806.495 337 788.828 348C771.495 358.667 748.995 364 721.328 364ZM900.355 78.5C891.689 78.5 884.689 76 879.355 71C874.355 65.6667 871.855 59 871.855 51C871.855 42.6666 874.355 36 879.355 31C884.689 26 891.689 23.5 900.355 23.5C908.689 23.5 915.355 26 920.355 31C925.689 36 928.355 42.6666 928.355 51C928.355 59 925.689 65.6667 920.355 71C915.355 76 908.689 78.5 900.355 78.5ZM844.855 346.5H854.355C862.355 346.5 868.689 345.167 873.355 342.5C878.355 339.833 880.855 335.833 880.855 330.5V162C880.855 154.667 877.355 151 870.355 151C868.689 151 866.189 151.667 862.855 153C859.522 154 857.189 154.667 855.855 155L852.355 143.5L915.355 121.5H927.855V330.5C927.855 335.833 930.189 339.833 934.855 342.5C939.855 345.167 946.355 346.5 954.355 346.5H963.855V359H844.855V346.5ZM1210.34 119C1219.67 119 1227.17 121 1232.84 125C1238.84 129 1241.84 133.833 1241.84 139.5C1241.84 144.833 1240.34 149 1237.34 152C1234.67 155 1230.67 156.5 1225.34 156.5C1221.67 156.5 1218.84 155.833 1216.84 154.5C1215.17 153.167 1213.51 151.167 1211.84 148.5C1209.84 145.5 1207.67 143.333 1205.34 142C1203.34 140.333 1200.17 139.5 1195.84 139.5C1190.84 139.5 1184.34 141.667 1176.34 146C1190.01 159 1196.84 176.333 1196.84 198C1196.84 223 1187.84 242.333 1169.84 256C1151.84 269.667 1126.84 276.5 1094.84 276.5C1074.17 276.5 1056.34 273.5 1041.34 267.5C1031.34 274.833 1026.34 282.5 1026.34 290.5C1026.34 296.833 1029.34 302 1035.34 306C1041.34 310 1049.84 312 1060.84 312H1141.34C1161.67 312 1178.51 316.5 1191.84 325.5C1205.51 334.167 1212.34 347.333 1212.34 365C1212.34 388.333 1201.67 406.167 1180.34 418.5C1159.01 430.833 1129.84 437 1092.84 437C1061.51 437 1036.67 431.833 1018.34 421.5C1000.34 411.5 991.34 397 991.34 378C991.34 358.333 1003.84 343.833 1028.84 334.5C1017.84 331.5 1009.67 326.833 1004.34 320.5C999.34 314.167 996.84 307.167 996.84 299.5C996.84 285.167 1006.34 271.833 1025.34 259.5C1015.34 252.5 1007.51 243.833 1001.84 233.5C996.507 223.167 993.84 211.333 993.84 198C993.84 173.333 1002.84 154 1020.84 140C1038.84 126 1063.51 119 1094.84 119C1123.84 119 1147.01 124.833 1164.34 136.5C1178.01 124.833 1193.34 119 1210.34 119ZM1094.84 258C1113.17 258 1127.01 252.5 1136.34 241.5C1145.67 230.167 1150.34 215.667 1150.34 198C1150.34 180.333 1145.67 166 1136.34 155C1127.01 143.667 1113.17 138 1094.84 138C1076.84 138 1063.17 143.667 1053.84 155C1044.84 166 1040.34 180.333 1040.34 198C1040.34 215.667 1044.84 230.167 1053.84 241.5C1063.17 252.5 1076.84 258 1094.84 258ZM1052.34 342C1042.67 345.667 1035.67 351.167 1031.34 358.5C1027.34 365.5 1025.34 372.167 1025.34 378.5C1025.34 391.833 1031.67 401.833 1044.34 408.5C1057.01 415.5 1073.84 419 1094.84 419C1118.51 419 1137.17 415 1150.84 407C1164.51 399 1171.34 387.667 1171.34 373C1171.34 362.333 1167.67 354.5 1160.34 349.5C1153.34 344.5 1141.51 342 1124.84 342H1052.34ZM1530.77 346.5V359H1414.27V346.5H1422.27C1429.94 346.5 1436.1 345.167 1440.77 342.5C1445.44 339.833 1447.77 335.833 1447.77 330.5V193C1447.77 175.333 1443.27 162 1434.27 153C1425.27 144 1412.44 139.5 1395.77 139.5C1384.1 139.5 1372.77 142.5 1361.77 148.5C1351.1 154.167 1342.27 162.833 1335.27 174.5C1328.27 186.167 1324.77 200.167 1324.77 216.5V330.5C1324.77 335.833 1327.1 339.833 1331.77 342.5C1336.77 345.167 1343.1 346.5 1350.77 346.5H1358.27V359H1241.77V346.5H1251.27C1259.27 346.5 1265.6 345.167 1270.27 342.5C1275.27 339.833 1277.77 335.833 1277.77 330.5V162.5C1277.77 155.5 1274.27 152 1267.27 152C1264.27 152 1259.44 153.333 1252.77 156L1249.27 145L1312.27 122.5H1324.77V161.5C1332.1 149.5 1343.27 139.5 1358.27 131.5C1373.6 123.167 1390.6 119 1409.27 119C1436.94 119 1458.1 125.167 1472.77 137.5C1487.44 149.833 1494.77 166.333 1494.77 187V330.5C1494.77 335.833 1497.27 339.833 1502.27 342.5C1507.27 345.167 1513.77 346.5 1521.77 346.5H1530.77ZM1856.7 364C1803.7 364 1763.03 348.333 1734.7 317C1706.37 285.333 1692.2 241 1692.2 184C1692.2 146.667 1698.87 114.5 1712.2 87.5C1725.53 60.5 1744.87 39.8333 1770.2 25.5C1795.53 11.1666 1825.87 3.99998 1861.2 3.99998C1879.53 3.99998 1897.53 6.83332 1915.2 12.5C1933.2 18.1666 1947.37 25.1666 1957.7 33.5C1960.37 35.1667 1962.2 36 1963.2 36C1965.2 36 1966.53 35.5 1967.2 34.5C1967.87 33.1666 1968.2 31.1666 1968.2 28.5V6.49998H1986.2V102.5H1971.7C1968.7 77.8333 1957.7 58.8333 1938.7 45.5C1920.03 31.8333 1897.2 25 1870.2 25C1829.53 25 1797.87 39.3333 1775.2 68C1752.87 96.6667 1741.7 135.333 1741.7 184C1741.7 233.667 1751.87 272.667 1772.2 301C1792.87 329.333 1823.53 343.5 1864.2 343.5C1878.53 343.5 1893.2 341.833 1908.2 338.5C1923.2 334.833 1935.87 328.667 1946.2 320V220.5C1946.2 211.5 1943.2 205.167 1937.2 201.5C1931.2 197.5 1921.53 195.5 1908.2 195.5H1899.2V184H2023.7V194H2017.7C2007.7 194 2001.03 196.833 1997.7 202.5C1994.7 207.833 1993.2 218.5 1993.2 234.5V324.5C1975.2 337.833 1955.53 347.833 1934.2 354.5C1913.2 360.833 1887.37 364 1856.7 364ZM2107.14 364C2086.81 364 2070.81 359.333 2059.14 350C2047.81 340.333 2042.14 327.333 2042.14 311C2042.14 286.667 2054.81 266.667 2080.14 251C2105.81 235.333 2145.14 223.833 2198.14 216.5V190.5C2198.14 173.5 2192.81 160.667 2182.14 152C2171.48 143.333 2157.31 139 2139.64 139C2126.98 139 2115.31 141.5 2104.64 146.5C2093.98 151.5 2088.64 156.833 2088.64 162.5C2088.64 164.5 2088.98 167 2089.64 170C2090.31 173 2090.64 175.333 2090.64 177C2090.64 182 2089.14 186.333 2086.14 190C2083.14 193.667 2078.31 195.5 2071.64 195.5C2065.98 195.5 2061.14 193.5 2057.14 189.5C2053.48 185.167 2051.64 179.167 2051.64 171.5C2051.64 154.833 2061.14 142 2080.14 133C2099.14 123.667 2122.31 119 2149.64 119C2180.31 119 2203.98 125.833 2220.64 139.5C2237.31 152.833 2245.64 171.167 2245.64 194.5V330C2245.64 340.667 2249.31 346 2256.64 346C2261.31 346 2267.31 344.667 2274.64 342V350.5C2269.64 354.833 2263.31 358.167 2255.64 360.5C2247.98 362.833 2240.14 364 2232.14 364C2223.14 364 2215.31 362.167 2208.64 358.5C2201.98 354.833 2198.64 348.833 2198.64 340.5V325.5C2185.31 340.167 2170.48 350.333 2154.14 356C2138.14 361.333 2122.48 364 2107.14 364ZM2130.14 344C2142.48 344 2155.31 340 2168.64 332C2182.31 324 2192.14 314.833 2198.14 304.5V233C2162.81 240 2135.64 250.167 2116.64 263.5C2097.98 276.5 2088.64 291.167 2088.64 307.5C2088.64 319.5 2092.31 328.667 2099.64 335C2106.98 341 2117.14 344 2130.14 344ZM2297.07 346.5H2306.07C2314.41 346.5 2320.91 345.167 2325.57 342.5C2330.57 339.833 2333.07 335.833 2333.07 330.5V41C2333.07 34 2329.57 30.5 2322.57 30.5C2319.57 30.5 2314.74 31.8333 2308.07 34.5L2304.57 23L2367.57 0.499996H2380.07V330.5C2380.07 335.833 2382.41 339.833 2387.07 342.5C2392.07 345.167 2398.57 346.5 2406.57 346.5H2415.07V359H2297.07V346.5ZM2447.95 346.5H2456.95C2465.29 346.5 2471.79 345.167 2476.45 342.5C2481.45 339.833 2483.95 335.833 2483.95 330.5V41C2483.95 34 2480.45 30.5 2473.45 30.5C2470.45 30.5 2465.62 31.8333 2458.95 34.5L2455.45 23L2518.45 0.499996H2530.95V330.5C2530.95 335.833 2533.29 339.833 2537.95 342.5C2542.95 345.167 2549.45 346.5 2557.45 346.5H2565.95V359H2447.95V346.5ZM2644.33 230C2644 232.667 2643.83 236.667 2643.83 242C2643.83 273.333 2651.17 298.5 2665.83 317.5C2680.83 336.5 2700.5 346 2724.83 346C2746.83 346 2765 340.333 2779.33 329C2793.67 317.333 2803 299.5 2807.33 275.5H2821.83C2819.17 302.167 2809.17 323.667 2791.83 340C2774.5 356 2750.17 364 2718.83 364C2680.17 364 2650 353.5 2628.33 332.5C2607 311.167 2596.33 280.833 2596.33 241.5C2596.33 203.5 2607 173.667 2628.33 152C2650 130 2679.67 119 2717.33 119C2752 119 2778.33 128.333 2796.33 147C2814.67 165.333 2823.83 189.167 2823.83 218.5V230H2644.33ZM2718.83 138C2699.17 138 2683.17 144.5 2670.83 157.5C2658.5 170.5 2650.33 188.167 2646.33 210.5H2782.33C2781.67 191.833 2776.17 175.167 2765.83 160.5C2755.83 145.5 2740.17 138 2718.83 138ZM3002.67 119C3012.33 119 3020.5 120.833 3027.17 124.5C3034.17 127.833 3037.67 133.167 3037.67 140.5C3037.67 146.833 3036 151.667 3032.67 155C3029.67 158.333 3025.33 160 3019.67 160C3016 160 3013 159.333 3010.67 158C3008.67 156.667 3006.83 154.833 3005.17 152.5C3002.83 150.167 3000.67 148.5 2998.67 147.5C2996.67 146.167 2993.83 145.5 2990.17 145.5C2981.5 145.5 2973.17 148.667 2965.17 155C2957.5 161.333 2951.17 170.5 2946.17 182.5C2941.17 194.5 2938.33 208.333 2937.67 224V330.5C2937.67 335.833 2940.17 339.833 2945.17 342.5C2950.17 345.167 2956.67 346.5 2964.67 346.5H2973.17V359H2854.67V346.5H2864.17C2872.17 346.5 2878.5 345.167 2883.17 342.5C2888.17 339.833 2890.67 335.833 2890.67 330.5V162.5C2890.67 155.5 2887.33 152 2880.67 152C2877.33 152 2872.33 153.333 2865.67 156L2862.67 145L2926.67 122.5H2937.67V168.5C2942.33 154.167 2950.67 142.333 2962.67 133C2974.67 123.667 2988 119 3002.67 119ZM3314.82 124V137H3307.82C3300.48 137 3294.48 138.667 3289.82 142C3285.15 145 3281.32 150.333 3278.32 158L3179.82 405.5C3166.48 438.833 3143.32 455.5 3110.32 455.5C3096.32 455.5 3084.98 452.667 3076.32 447C3067.98 441.667 3063.82 435.667 3063.82 429C3063.82 424.667 3064.98 420.833 3067.32 417.5C3069.65 414.5 3073.32 413 3078.32 413C3085.32 413 3090.15 416.5 3092.82 423.5C3095.82 430.833 3101.48 434.5 3109.82 434.5C3122.15 434.5 3131.82 431.167 3138.82 424.5C3146.15 417.833 3152.48 407.667 3157.82 394L3171.82 358L3079.82 150C3076.15 141.333 3068.15 137 3055.82 137H3047.82V124H3152.82V137H3144.82C3137.48 137 3131.98 138.333 3128.32 141C3124.65 143.333 3123.65 146.5 3125.32 150.5L3189.32 311.5L3250.82 151.5C3252.48 146.833 3251.32 143.333 3247.32 141C3243.32 138.333 3238.15 137 3231.82 137H3223.82V124H3314.82Z" fill="#171B1E"/>
</svg>
