<svg width="250" height="250" viewBox="0 0 250 250" fill="none" xmlns="http://www.w3.org/2000/svg">
<g clip-path="url(#clip0_138_13)">
<mask id="mask0_138_13" style="mask-type:luminance" maskUnits="userSpaceOnUse" x="0" y="0" width="250" height="250">
<path d="M250 0H0V250H250V0Z" fill="white"/>
</mask>
<g mask="url(#mask0_138_13)">
<mask id="mask1_138_13" style="mask-type:luminance" maskUnits="userSpaceOnUse" x="0" y="0" width="250" height="250">
<path d="M250 0H0V250H250V0Z" fill="white"/>
</mask>
<g mask="url(#mask1_138_13)">
<path fill-rule="evenodd" clip-rule="evenodd" d="M133.929 0H116.071V103.444L42.9251 30.2981L30.2982 42.9251L103.444 116.071H0V133.929H103.444L30.2982 207.075L42.9251 219.701L116.071 146.555V250H133.929V146.555L207.075 219.701L219.701 207.075L146.555 133.929H250V116.071H146.555L219.701 42.925L207.075 30.2981L133.929 103.444V0Z" fill="white"/>
</g>
</g>
</g>
<defs>
<clipPath id="clip0_138_13">
<rect width="250" height="250" fill="white"/>
</clipPath>
</defs>
</svg>
