<svg width="471" height="102" viewBox="0 0 471 102" fill="none" xmlns="http://www.w3.org/2000/svg">
<mask id="path-1-outside-1_114_7" maskUnits="userSpaceOnUse" x="0" y="-6" width="471" height="108" fill="black">
<rect fill="white" y="-6" width="471" height="108"/>
<path d="M95.1278 34.071H70.2699C69.9385 31.5189 69.259 29.2154 68.2315 27.1605C67.2041 25.1056 65.8452 23.349 64.1548 21.8906C62.4645 20.4323 60.4593 19.322 58.1392 18.5597C55.8523 17.7642 53.3168 17.3665 50.5327 17.3665C45.5942 17.3665 41.3352 18.5762 37.7557 20.9957C34.2093 23.4152 31.4749 26.9119 29.5526 31.4858C27.6634 36.0597 26.7188 41.5947 26.7188 48.0909C26.7188 54.8523 27.6799 60.5199 29.6023 65.0938C31.5578 69.6345 34.2921 73.0649 37.8054 75.3849C41.3518 77.6719 45.5445 78.8153 50.3835 78.8153C53.1013 78.8153 55.5706 78.4673 57.7912 77.7713C60.045 77.0753 62.017 76.0644 63.7074 74.7386C65.4309 73.3797 66.8395 71.7391 67.9332 69.8168C69.0601 67.8613 69.839 65.6572 70.2699 63.2045L95.1278 63.3537C94.697 67.8613 93.3878 72.3026 91.2003 76.6776C89.0459 81.0526 86.0795 85.0464 82.3011 88.6591C78.5227 92.2386 73.9157 95.089 68.4801 97.2102C63.0777 99.3314 56.8797 100.392 49.8864 100.392C40.6724 100.392 32.4195 98.3703 25.1278 94.3267C17.8693 90.25 12.1354 84.3172 7.92614 76.5284C3.71686 68.7396 1.61222 59.2604 1.61222 48.0909C1.61222 36.8883 3.75 27.3925 8.02557 19.6037C12.3011 11.8149 18.0848 5.89867 25.3764 1.85511C32.6681 -2.18845 40.8381 -4.21023 49.8864 -4.21023C56.0511 -4.21023 61.7519 -3.34849 66.9886 -1.625C72.2254 0.0653369 76.8324 2.55113 80.8097 5.83238C84.7869 9.08049 88.0185 13.0743 90.5043 17.8139C92.9901 22.5535 94.5312 27.9725 95.1278 34.071ZM109.21 99V-2.81818H133.819V79.0142H176.177V99H109.21ZM188.917 99V-2.81818H259.911V17.1676H213.526V38.0483H256.282V58.0838H213.526V79.0142H259.911V99H188.917ZM297.347 99H270.898L305.252 -2.81818H338.015L372.369 99H345.92L322.006 22.8352H321.211L297.347 99ZM293.817 58.929H349.102V77.6222H293.817V58.929ZM469.986 -2.81818V99H449.105L408.587 40.2358H407.94V99H383.331V-2.81818H404.51L444.581 55.8466H445.426V-2.81818H469.986Z"/>
</mask>
<path d="M95.1278 34.071V35.071H96.2304L96.1231 33.9737L95.1278 34.071ZM70.2699 34.071L69.2782 34.1998L69.3914 35.071H70.2699V34.071ZM68.2315 27.1605L67.3371 27.6077L67.3371 27.6077L68.2315 27.1605ZM64.1548 21.8906L64.8081 21.1335L64.8081 21.1335L64.1548 21.8906ZM58.1392 18.5597L57.8107 19.5042L57.8188 19.507L57.8271 19.5097L58.1392 18.5597ZM37.7557 20.9957L37.1957 20.1672L37.1921 20.1697L37.7557 20.9957ZM29.5526 31.4858L28.6307 31.0983L28.6283 31.104L29.5526 31.4858ZM29.6023 65.0938L28.6804 65.4812L28.6838 65.4893L29.6023 65.0938ZM37.8054 75.3849L37.2543 76.2195L37.2635 76.2254L37.8054 75.3849ZM57.7912 77.7713L57.4961 76.8158L57.4921 76.8171L57.7912 77.7713ZM63.7074 74.7386L64.3245 75.5255L64.3265 75.5239L63.7074 74.7386ZM67.9332 69.8168L67.0668 69.3175L67.0641 69.3222L67.9332 69.8168ZM70.2699 63.2045L70.2759 62.2046L69.4311 62.1995L69.285 63.0315L70.2699 63.2045ZM95.1278 63.3537L96.1233 63.4488L96.2274 62.3603L95.1338 62.3537L95.1278 63.3537ZM91.2003 76.6776L90.3058 76.2303L90.3032 76.2358L91.2003 76.6776ZM82.3011 88.6591L82.9889 89.3851L82.9922 89.3819L82.3011 88.6591ZM68.4801 97.2102L68.1166 96.2786L68.1146 96.2794L68.4801 97.2102ZM25.1278 94.3267L24.6381 95.1986L24.6429 95.2012L25.1278 94.3267ZM7.92614 76.5284L8.80589 76.053L7.92614 76.5284ZM8.02557 19.6037L7.14896 19.1225L7.14896 19.1225L8.02557 19.6037ZM66.9886 -1.625L66.676 -0.675106L66.6815 -0.673348L66.9886 -1.625ZM80.8097 5.83238L80.1733 6.60376L80.1771 6.60691L80.8097 5.83238ZM95.1278 34.071V33.071H70.2699V34.071V35.071H95.1278V34.071ZM70.2699 34.071L71.2616 33.9422C70.9174 31.2925 70.209 28.8794 69.126 26.7133L68.2315 27.1605L67.3371 27.6077C68.309 29.5514 68.9595 31.7454 69.2782 34.1998L70.2699 34.071ZM68.2315 27.1605L69.126 26.7133C68.0411 24.5436 66.6014 22.6807 64.8081 21.1335L64.1548 21.8906L63.5016 22.6478C65.0889 24.0172 66.367 25.6675 67.3371 27.6077L68.2315 27.1605ZM64.1548 21.8906L64.8081 21.1335C63.0088 19.5812 60.8849 18.4092 58.4514 17.6096L58.1392 18.5597L57.8271 19.5097C60.0337 20.2347 61.9201 21.2834 63.5016 22.6478L64.1548 21.8906ZM58.1392 18.5597L58.4677 17.6152C56.0607 16.7779 53.4121 16.3665 50.5327 16.3665V17.3665V18.3665C53.2214 18.3665 55.6439 18.7505 57.8107 19.5042L58.1392 18.5597ZM50.5327 17.3665V16.3665C45.4241 16.3665 40.9634 17.6205 37.1957 20.1672L37.7557 20.9957L38.3157 21.8242C41.707 19.5319 45.7644 18.3665 50.5327 18.3665V17.3665ZM37.7557 20.9957L37.1921 20.1697C33.4629 22.7139 30.6158 26.3751 28.6307 31.0983L29.5526 31.4858L30.4744 31.8733C32.334 27.4488 34.9557 24.1166 38.3193 21.8218L37.7557 20.9957ZM29.5526 31.4858L28.6283 31.104C26.6761 35.8304 25.7188 41.5026 25.7188 48.0909H26.7188H27.7188C27.7188 41.6868 28.6506 36.2889 30.4768 31.8676L29.5526 31.4858ZM26.7188 48.0909H25.7188C25.7188 54.94 26.6914 60.7489 28.6804 65.4812L29.6023 65.0938L30.5242 64.7063C28.6684 60.2909 27.7188 54.7645 27.7188 48.0909H26.7188ZM29.6023 65.0938L28.6838 65.4893C30.7027 70.1772 33.5518 73.7743 37.2543 76.2194L37.8054 75.3849L38.3565 74.5505C35.0325 72.3554 32.4128 69.0918 30.5207 64.6982L29.6023 65.0938ZM37.8054 75.3849L37.2635 76.2254C40.9941 78.6311 45.3812 79.8153 50.3835 79.8153V78.8153V77.8153C45.7078 77.8153 41.7095 76.7126 38.3473 74.5445L37.8054 75.3849ZM50.3835 78.8153V79.8153C53.1862 79.8153 55.7582 79.4565 58.0903 78.7255L57.7912 77.7713L57.4921 76.8171C55.3829 77.4782 53.0165 77.8153 50.3835 77.8153V78.8153ZM57.7912 77.7713L58.0863 78.7268C60.4454 77.9982 62.529 76.9337 64.3245 75.5255L63.7074 74.7386L63.0902 73.9518C61.5051 75.1951 59.6446 76.1523 57.4961 76.8158L57.7912 77.7713ZM63.7074 74.7386L64.3265 75.5239C66.1521 74.0845 67.6454 72.3449 68.8024 70.3113L67.9332 69.8168L67.0641 69.3222C66.0336 71.1333 64.7096 72.675 63.0882 73.9534L63.7074 74.7386ZM67.9332 69.8168L68.7997 70.3161C69.9905 68.2496 70.8058 65.9332 71.2548 63.3776L70.2699 63.2045L69.285 63.0315C68.8722 65.3812 68.1298 67.4729 67.0668 69.3175L67.9332 69.8168ZM70.2699 63.2045L70.2639 64.2045L95.1218 64.3537L95.1278 63.3537L95.1338 62.3537L70.2759 62.2046L70.2699 63.2045ZM95.1278 63.3537L94.1324 63.2585C93.7141 67.634 92.4427 71.9566 90.3059 76.2303L91.2003 76.6776L92.0947 77.1248C94.3328 72.6485 95.6798 68.0885 96.1233 63.4488L95.1278 63.3537ZM91.2003 76.6776L90.3032 76.2358C88.2041 80.4984 85.31 84.3987 81.6101 87.9363L82.3011 88.6591L82.9922 89.3819C86.8491 85.6941 89.8877 81.6067 92.0974 77.1193L91.2003 76.6776ZM82.3011 88.6591L81.6134 87.9331C77.9395 91.4137 73.4464 94.1987 68.1166 96.2786L68.4801 97.2102L68.8437 98.1418C74.3851 95.9793 79.106 93.0636 82.9889 89.385L82.3011 88.6591ZM68.4801 97.2102L68.1146 96.2794C62.8498 98.3466 56.7796 99.392 49.8864 99.392V100.392V101.392C56.9798 101.392 63.3055 100.316 68.8456 98.141L68.4801 97.2102ZM49.8864 100.392V99.392C40.8238 99.392 32.7409 97.405 25.6128 93.4522L25.1278 94.3267L24.6429 95.2012C32.0981 99.3355 40.5209 101.392 49.8864 101.392V100.392ZM25.1278 94.3267L25.6175 93.4548C18.5345 89.4767 12.9312 83.6865 8.80589 76.053L7.92614 76.5284L7.04639 77.0038C11.3396 84.948 17.2041 91.0233 24.6381 95.1986L25.1278 94.3267ZM7.92614 76.5284L8.80589 76.053C4.69355 68.4435 2.61222 59.137 2.61222 48.0909H1.61222H0.612216C0.612216 59.3839 2.74017 69.0356 7.04639 77.0038L7.92614 76.5284ZM1.61222 48.0909H2.61222C2.61222 37.0134 4.72602 27.6926 8.90218 20.0849L8.02557 19.6037L7.14896 19.1225C2.77398 27.0924 0.612216 36.7631 0.612216 48.0909H1.61222ZM8.02557 19.6037L8.90218 20.0849C13.0932 12.4502 18.7457 6.6756 25.8614 2.72964L25.3764 1.85511L24.8915 0.980579C17.4238 5.12175 11.5091 11.1796 7.14896 19.1225L8.02557 19.6037ZM25.3764 1.85511L25.8614 2.72964C32.9922 -1.22471 40.9929 -3.21023 49.8864 -3.21023V-4.21023V-5.21023C40.6832 -5.21023 32.344 -3.15219 24.8915 0.980579L25.3764 1.85511ZM49.8864 -4.21023V-3.21023C55.9573 -3.21023 61.5513 -2.36173 66.676 -0.675121L66.9886 -1.625L67.3013 -2.57488C61.9525 -4.33524 56.1449 -5.21023 49.8864 -5.21023V-4.21023ZM66.9886 -1.625L66.6815 -0.673348C71.8062 0.980846 76.2998 3.40812 80.1733 6.60375L80.8097 5.83238L81.446 5.06101C77.365 1.69414 72.6445 -0.850173 67.2958 -2.57665L66.9886 -1.625ZM80.8097 5.83238L80.1771 6.60691C84.0456 9.76618 87.1928 13.653 89.6187 18.2784L90.5043 17.8139L91.3899 17.3495C88.8442 12.4957 85.5283 8.3948 81.4422 5.05785L80.8097 5.83238ZM90.5043 17.8139L89.6187 18.2784C92.0366 22.8885 93.5467 28.1798 94.1326 34.1684L95.1278 34.071L96.1231 33.9737C95.5158 27.7653 93.9436 22.2185 91.3899 17.3495L90.5043 17.8139ZM109.21 99H108.21V100H109.21V99ZM109.21 -2.81818V-3.81818H108.21V-2.81818H109.21ZM133.819 -2.81818H134.819V-3.81818H133.819V-2.81818ZM133.819 79.0142H132.819V80.0142H133.819V79.0142ZM176.177 79.0142H177.177V78.0142H176.177V79.0142ZM176.177 99V100H177.177V99H176.177ZM109.21 99H110.21V-2.81818H109.21H108.21V99H109.21ZM109.21 -2.81818V-1.81818H133.819V-2.81818V-3.81818H109.21V-2.81818ZM133.819 -2.81818H132.819V79.0142H133.819H134.819V-2.81818H133.819ZM133.819 79.0142V80.0142H176.177V79.0142V78.0142H133.819V79.0142ZM176.177 79.0142H175.177V99H176.177H177.177V79.0142H176.177ZM176.177 99V98H109.21V99V100H176.177V99ZM188.917 99H187.917V100H188.917V99ZM188.917 -2.81818V-3.81818H187.917V-2.81818H188.917ZM259.911 -2.81818H260.911V-3.81818H259.911V-2.81818ZM259.911 17.1676V18.1676H260.911V17.1676H259.911ZM213.526 17.1676V16.1676H212.526V17.1676H213.526ZM213.526 38.0483H212.526V39.0483H213.526V38.0483ZM256.282 38.0483H257.282V37.0483H256.282V38.0483ZM256.282 58.0838V59.0838H257.282V58.0838H256.282ZM213.526 58.0838V57.0838H212.526V58.0838H213.526ZM213.526 79.0142H212.526V80.0142H213.526V79.0142ZM259.911 79.0142H260.911V78.0142H259.911V79.0142ZM259.911 99V100H260.911V99H259.911ZM188.917 99H189.917V-2.81818H188.917H187.917V99H188.917ZM188.917 -2.81818V-1.81818H259.911V-2.81818V-3.81818H188.917V-2.81818ZM259.911 -2.81818H258.911V17.1676H259.911H260.911V-2.81818H259.911ZM259.911 17.1676V16.1676H213.526V17.1676V18.1676H259.911V17.1676ZM213.526 17.1676H212.526V38.0483H213.526H214.526V17.1676H213.526ZM213.526 38.0483V39.0483H256.282V38.0483V37.0483H213.526V38.0483ZM256.282 38.0483H255.282V58.0838H256.282H257.282V38.0483H256.282ZM256.282 58.0838V57.0838H213.526V58.0838V59.0838H256.282V58.0838ZM213.526 58.0838H212.526V79.0142H213.526H214.526V58.0838H213.526ZM213.526 79.0142V80.0142H259.911V79.0142V78.0142H213.526V79.0142ZM259.911 79.0142H258.911V99H259.911H260.911V79.0142H259.911ZM259.911 99V98H188.917V99V100H259.911V99ZM297.347 99V100H298.082L298.302 99.299L297.347 99ZM270.898 99L269.951 98.6803L269.506 100H270.898V99ZM305.252 -2.81818V-3.81818H304.534L304.305 -3.13788L305.252 -2.81818ZM338.015 -2.81818L338.962 -3.13788L338.733 -3.81818H338.015V-2.81818ZM372.369 99V100H373.761L373.316 98.6803L372.369 99ZM345.92 99L344.966 99.2996L345.186 100H345.92V99ZM322.006 22.8352L322.96 22.5357L322.741 21.8352H322.006V22.8352ZM321.211 22.8352V21.8352H320.476L320.257 22.5362L321.211 22.8352ZM293.817 58.929V57.929H292.817V58.929H293.817ZM349.102 58.929H350.102V57.929H349.102V58.929ZM349.102 77.6222V78.6222H350.102V77.6222H349.102ZM293.817 77.6222H292.817V78.6222H293.817V77.6222ZM297.347 99V98H270.898V99V100H297.347V99ZM270.898 99L271.846 99.3197L306.2 -2.49849L305.252 -2.81818L304.305 -3.13788L269.951 98.6803L270.898 99ZM305.252 -2.81818V-1.81818H338.015V-2.81818V-3.81818H305.252V-2.81818ZM338.015 -2.81818L337.067 -2.49849L371.421 99.3197L372.369 99L373.316 98.6803L338.962 -3.13788L338.015 -2.81818ZM372.369 99V98H345.92V99V100H372.369V99ZM345.92 99L346.874 98.7004L322.96 22.5357L322.006 22.8352L321.052 23.1348L344.966 99.2996L345.92 99ZM322.006 22.8352V21.8352H321.211V22.8352V23.8352H322.006V22.8352ZM321.211 22.8352L320.257 22.5362L296.393 98.701L297.347 99L298.302 99.299L322.165 23.1342L321.211 22.8352ZM293.817 58.929V59.929H349.102V58.929V57.929H293.817V58.929ZM349.102 58.929H348.102V77.6222H349.102H350.102V58.929H349.102ZM349.102 77.6222V76.6222H293.817V77.6222V78.6222H349.102V77.6222ZM293.817 77.6222H294.817V58.929H293.817H292.817V77.6222H293.817ZM469.986 -2.81818H470.986V-3.81818H469.986V-2.81818ZM469.986 99V100H470.986V99H469.986ZM449.105 99L448.282 99.5677L448.58 100H449.105V99ZM408.587 40.2358L409.41 39.6681L409.112 39.2358H408.587V40.2358ZM407.94 40.2358V39.2358H406.94V40.2358H407.94ZM407.94 99V100H408.94V99H407.94ZM383.331 99H382.331V100H383.331V99ZM383.331 -2.81818V-3.81818H382.331V-2.81818H383.331ZM404.51 -2.81818L405.336 -3.38222L405.038 -3.81818H404.51V-2.81818ZM444.581 55.8466L443.755 56.4106L444.053 56.8466H444.581V55.8466ZM445.426 55.8466V56.8466H446.426V55.8466H445.426ZM445.426 -2.81818V-3.81818H444.426V-2.81818H445.426ZM469.986 -2.81818H468.986V99H469.986H470.986V-2.81818H469.986ZM469.986 99V98H449.105V99V100H469.986V99ZM449.105 99L449.928 98.4323L409.41 39.6681L408.587 40.2358L407.763 40.8034L448.282 99.5677L449.105 99ZM408.587 40.2358V39.2358H407.94V40.2358V41.2358H408.587V40.2358ZM407.94 40.2358H406.94V99H407.94H408.94V40.2358H407.94ZM407.94 99V98H383.331V99V100H407.94V99ZM383.331 99H384.331V-2.81818H383.331H382.331V99H383.331ZM383.331 -2.81818V-1.81818H404.51V-2.81818V-3.81818H383.331V-2.81818ZM404.51 -2.81818L403.684 -2.25415L443.755 56.4106L444.581 55.8466L445.407 55.2826L405.336 -3.38222L404.51 -2.81818ZM444.581 55.8466V56.8466H445.426V55.8466V54.8466H444.581V55.8466ZM445.426 55.8466H446.426V-2.81818H445.426H444.426V55.8466H445.426ZM445.426 -2.81818V-1.81818H469.986V-2.81818V-3.81818H445.426V-2.81818Z" fill="white" mask="url(#path-1-outside-1_114_7)"/>
</svg>
