<svg width="471" height="108" viewBox="0 0 471 108" fill="none" xmlns="http://www.w3.org/2000/svg">
<mask id="path-1-outside-1_114_7" maskUnits="userSpaceOnUse" x="0" y="0" width="471" height="108" fill="black">
<rect fill="white" width="471" height="108"/>
<path d="M95.1278 40.071H70.2699C69.9385 37.5189 69.259 35.2154 68.2315 33.1605C67.2041 31.1056 65.8452 29.349 64.1548 27.8906C62.4645 26.4323 60.4593 25.322 58.1392 24.5597C55.8523 23.7642 53.3168 23.3665 50.5327 23.3665C45.5942 23.3665 41.3352 24.5762 37.7557 26.9957C34.2093 29.4152 31.4749 32.9119 29.5526 37.4858C27.6634 42.0597 26.7188 47.5947 26.7188 54.0909C26.7188 60.8523 27.6799 66.5199 29.6023 71.0938C31.5578 75.6345 34.2921 79.0649 37.8054 81.3849C41.3518 83.6719 45.5445 84.8153 50.3835 84.8153C53.1013 84.8153 55.5706 84.4673 57.7912 83.7713C60.045 83.0753 62.017 82.0644 63.7074 80.7386C65.4309 79.3797 66.8395 77.7391 67.9332 75.8168C69.0601 73.8613 69.839 71.6572 70.2699 69.2045L95.1278 69.3537C94.697 73.8613 93.3878 78.3026 91.2003 82.6776C89.0459 87.0526 86.0795 91.0464 82.3011 94.6591C78.5227 98.2386 73.9157 101.089 68.4801 103.21C63.0777 105.331 56.8797 106.392 49.8864 106.392C40.6724 106.392 32.4195 104.37 25.1278 100.327C17.8693 96.25 12.1354 90.3172 7.92614 82.5284C3.71686 74.7396 1.61222 65.2604 1.61222 54.0909C1.61222 42.8883 3.75 33.3925 8.02557 25.6037C12.3011 17.8149 18.0848 11.8987 25.3764 7.85511C32.6681 3.81155 40.8381 1.78977 49.8864 1.78977C56.0511 1.78977 61.7519 2.65151 66.9886 4.375C72.2254 6.06534 76.8324 8.55113 80.8097 11.8324C84.7869 15.0805 88.0185 19.0743 90.5043 23.8139C92.9901 28.5535 94.5312 33.9725 95.1278 40.071ZM109.21 105V3.18182H133.819V85.0142H176.177V105H109.21ZM188.917 105V3.18182H259.911V23.1676H213.526V44.0483H256.282V64.0838H213.526V85.0142H259.911V105H188.917ZM297.347 105H270.898L305.252 3.18182H338.015L372.369 105H345.92L322.006 28.8352H321.211L297.347 105ZM293.817 64.929H349.102V83.6222H293.817V64.929ZM469.986 3.18182V105H449.105L408.587 46.2358H407.94V105H383.331V3.18182H404.51L444.581 61.8466H445.426V3.18182H469.986Z"/>
</mask>
<path d="M95.1278 40.071V41.071H96.2304L96.1231 39.9737L95.1278 40.071ZM70.2699 40.071L69.2782 40.1998L69.3914 41.071H70.2699V40.071ZM68.2315 33.1605L67.3371 33.6077L68.2315 33.1605ZM64.1548 27.8906L64.8081 27.1335L64.1548 27.8906ZM58.1392 24.5597L57.8107 25.5042L57.8188 25.507L57.8271 25.5097L58.1392 24.5597ZM37.7557 26.9957L37.1957 26.1672L37.1921 26.1697L37.7557 26.9957ZM29.5526 37.4858L28.6307 37.0983L28.6283 37.104L29.5526 37.4858ZM29.6023 71.0938L28.6804 71.4812L28.6838 71.4893L29.6023 71.0938ZM37.8054 81.3849L37.2543 82.2195L37.2635 82.2254L37.8054 81.3849ZM57.7912 83.7713L57.4961 82.8158L57.4921 82.8171L57.7912 83.7713ZM63.7074 80.7386L64.3245 81.5255L64.3265 81.5239L63.7074 80.7386ZM67.9332 75.8168L67.0668 75.3175L67.0641 75.3222L67.9332 75.8168ZM70.2699 69.2045L70.2759 68.2046L69.4311 68.1995L69.285 69.0315L70.2699 69.2045ZM95.1278 69.3537L96.1233 69.4488L96.2274 68.3603L95.1338 68.3537L95.1278 69.3537ZM91.2003 82.6776L90.3058 82.2303L90.3032 82.2358L91.2003 82.6776ZM82.3011 94.6591L82.9889 95.385L82.9922 95.3819L82.3011 94.6591ZM68.4801 103.21L68.1166 102.279L68.1146 102.279L68.4801 103.21ZM25.1278 100.327L24.6381 101.199L24.6429 101.201L25.1278 100.327ZM7.92614 82.5284L8.80589 82.053L7.92614 82.5284ZM8.02557 25.6037L7.14896 25.1225L8.02557 25.6037ZM66.9886 4.375L66.676 5.32489L66.6815 5.32665L66.9886 4.375ZM80.8097 11.8324L80.1733 12.6038L80.1771 12.6069L80.8097 11.8324ZM95.1278 40.071V39.071H70.2699V40.071V41.071H95.1278V40.071ZM70.2699 40.071L71.2616 39.9422C70.9174 37.2925 70.209 34.8794 69.126 32.7133L68.2315 33.1605L67.3371 33.6077C68.309 35.5514 68.9595 37.7454 69.2782 40.1998L70.2699 40.071ZM68.2315 33.1605L69.126 32.7133C68.0411 30.5436 66.6014 28.6807 64.8081 27.1335L64.1548 27.8906L63.5016 28.6478C65.0889 30.0172 66.367 31.6675 67.3371 33.6077L68.2315 33.1605ZM64.1548 27.8906L64.8081 27.1335C63.0088 25.5812 60.8849 24.4092 58.4514 23.6096L58.1392 24.5597L57.8271 25.5097C60.0337 26.2347 61.9201 27.2834 63.5016 28.6478L64.1548 27.8906ZM58.1392 24.5597L58.4677 23.6152C56.0606 22.7779 53.4121 22.3665 50.5327 22.3665V23.3665V24.3665C53.2214 24.3665 55.6439 24.7505 57.8107 25.5042L58.1392 24.5597ZM50.5327 23.3665V22.3665C45.4241 22.3665 40.9634 23.6205 37.1957 26.1672L37.7557 26.9957L38.3157 27.8242C41.707 25.5319 45.7644 24.3665 50.5327 24.3665V23.3665ZM37.7557 26.9957L37.1921 26.1697C33.4629 28.7139 30.6158 32.3751 28.6307 37.0983L29.5526 37.4858L30.4744 37.8733C32.334 33.4488 34.9557 30.1166 38.3193 27.8218L37.7557 26.9957ZM29.5526 37.4858L28.6283 37.104C26.6761 41.8304 25.7188 47.5026 25.7188 54.0909H26.7188H27.7188C27.7188 47.6868 28.6506 42.2889 30.4768 37.8676L29.5526 37.4858ZM26.7188 54.0909H25.7188C25.7188 60.94 26.6914 66.7489 28.6804 71.4812L29.6023 71.0938L30.5242 70.7063C28.6684 66.2909 27.7188 60.7645 27.7188 54.0909H26.7188ZM29.6023 71.0938L28.6838 71.4893C30.7027 76.1772 33.5518 79.7743 37.2543 82.2194L37.8054 81.3849L38.3565 80.5505C35.0325 78.3554 32.4128 75.0918 30.5207 70.6982L29.6023 71.0938ZM37.8054 81.3849L37.2635 82.2254C40.9941 84.6311 45.3812 85.8153 50.3835 85.8153V84.8153V83.8153C45.7078 83.8153 41.7095 82.7126 38.3473 80.5445L37.8054 81.3849ZM50.3835 84.8153V85.8153C53.1862 85.8153 55.7582 85.4565 58.0903 84.7255L57.7912 83.7713L57.4921 82.8171C55.3829 83.4782 53.0165 83.8153 50.3835 83.8153V84.8153ZM57.7912 83.7713L58.0863 84.7268C60.4454 83.9982 62.529 82.9337 64.3245 81.5255L63.7074 80.7386L63.0902 79.9518C61.5051 81.1951 59.6446 82.1523 57.4961 82.8158L57.7912 83.7713ZM63.7074 80.7386L64.3265 81.5239C66.1521 80.0845 67.6454 78.3449 68.8024 76.3113L67.9332 75.8168L67.0641 75.3222C66.0336 77.1333 64.7096 78.675 63.0882 79.9534L63.7074 80.7386ZM67.9332 75.8168L68.7997 76.3161C69.9905 74.2496 70.8058 71.9332 71.2548 69.3776L70.2699 69.2045L69.285 69.0315C68.8722 71.3812 68.1298 73.4729 67.0668 75.3175L67.9332 75.8168ZM70.2699 69.2045L70.2639 70.2045L95.1218 70.3537L95.1278 69.3537L95.1338 68.3537L70.2759 68.2046L70.2699 69.2045ZM95.1278 69.3537L94.1324 69.2585C93.7141 73.634 92.4427 77.9566 90.3059 82.2303L91.2003 82.6776L92.0947 83.1248C94.3328 78.6485 95.6798 74.0885 96.1233 69.4488L95.1278 69.3537ZM91.2003 82.6776L90.3032 82.2358C88.2041 86.4984 85.31 90.3987 81.6101 93.9363L82.3011 94.6591L82.9922 95.3819C86.8491 91.6941 89.8877 87.6067 92.0974 83.1193L91.2003 82.6776ZM82.3011 94.6591L81.6134 93.9331C77.9395 97.4137 73.4464 100.199 68.1166 102.279L68.4801 103.21L68.8437 104.142C74.3851 101.979 79.106 99.0636 82.9889 95.385L82.3011 94.6591ZM68.4801 103.21L68.1146 102.279C62.8498 104.347 56.7796 105.392 49.8864 105.392V106.392V107.392C56.9798 107.392 63.3055 106.316 68.8456 104.141L68.4801 103.21ZM49.8864 106.392V105.392C40.8238 105.392 32.7409 103.405 25.6128 99.4522L25.1278 100.327L24.6429 101.201C32.0981 105.335 40.5209 107.392 49.8864 107.392V106.392ZM25.1278 100.327L25.6175 99.4548C18.5345 95.4767 12.9312 89.6865 8.80589 82.053L7.92614 82.5284L7.04639 83.0038C11.3396 90.948 17.2041 97.0233 24.6381 101.199L25.1278 100.327ZM7.92614 82.5284L8.80589 82.053C4.69355 74.4435 2.61222 65.137 2.61222 54.0909H1.61222H0.612216C0.612216 65.3839 2.74017 75.0356 7.04639 83.0038L7.92614 82.5284ZM1.61222 54.0909H2.61222C2.61222 43.0134 4.72602 33.6926 8.90218 26.0849L8.02557 25.6037L7.14896 25.1225C2.77398 33.0924 0.612216 42.7631 0.612216 54.0909H1.61222ZM8.02557 25.6037L8.90218 26.0849C13.0932 18.4502 18.7457 12.6756 25.8614 8.72964L25.3764 7.85511L24.8915 6.98058C17.4238 11.1217 11.5091 17.1796 7.14896 25.1225L8.02557 25.6037ZM25.3764 7.85511L25.8614 8.72964C32.9922 4.77529 40.9929 2.78977 49.8864 2.78977V1.78977V0.789769C40.6832 0.789769 32.344 2.84781 24.8915 6.98058L25.3764 7.85511ZM49.8864 1.78977V2.78977C55.9573 2.78977 61.5513 3.63826 66.676 5.32488L66.9886 4.375L67.3013 3.42512C61.9525 1.66476 56.1449 0.789769 49.8864 0.789769V1.78977ZM66.9886 4.375L66.6815 5.32665C71.8062 6.98085 76.2998 9.40812 80.1733 12.6038L80.8097 11.8324L81.446 11.061C77.365 7.69414 72.6445 5.14983 67.2958 3.42335L66.9886 4.375ZM80.8097 11.8324L80.1771 12.6069C84.0456 15.7662 87.1928 19.653 89.6187 24.2784L90.5043 23.8139L91.3899 23.3495C88.8442 18.4957 85.5283 14.3948 81.4422 11.0578L80.8097 11.8324ZM90.5043 23.8139L89.6187 24.2784C92.0366 28.8885 93.5467 34.1798 94.1326 40.1684L95.1278 40.071L96.1231 39.9737C95.5158 33.7653 93.9436 28.2185 91.3899 23.3495L90.5043 23.8139ZM109.21 105H108.21V106H109.21V105ZM109.21 3.18182V2.18182H108.21V3.18182H109.21ZM133.819 3.18182H134.819V2.18182H133.819V3.18182ZM133.819 85.0142H132.819V86.0142H133.819V85.0142ZM176.177 85.0142H177.177V84.0142H176.177V85.0142ZM176.177 105V106H177.177V105H176.177ZM109.21 105H110.21V3.18182H109.21H108.21V105H109.21ZM109.21 3.18182V4.18182H133.819V3.18182V2.18182H109.21V3.18182ZM133.819 3.18182H132.819V85.0142H133.819H134.819V3.18182H133.819ZM133.819 85.0142V86.0142H176.177V85.0142V84.0142H133.819V85.0142ZM176.177 85.0142H175.177V105H176.177H177.177V85.0142H176.177ZM176.177 105V104H109.21V105V106H176.177V105ZM188.917 105H187.917V106H188.917V105ZM188.917 3.18182V2.18182H187.917V3.18182H188.917ZM259.911 3.18182H260.911V2.18182H259.911V3.18182ZM259.911 23.1676V24.1676H260.911V23.1676H259.911ZM213.526 23.1676V22.1676H212.526V23.1676H213.526ZM213.526 44.0483H212.526V45.0483H213.526V44.0483ZM256.282 44.0483H257.282V43.0483H256.282V44.0483ZM256.282 64.0838V65.0838H257.282V64.0838H256.282ZM213.526 64.0838V63.0838H212.526V64.0838H213.526ZM213.526 85.0142H212.526V86.0142H213.526V85.0142ZM259.911 85.0142H260.911V84.0142H259.911V85.0142ZM259.911 105V106H260.911V105H259.911ZM188.917 105H189.917V3.18182H188.917H187.917V105H188.917ZM188.917 3.18182V4.18182H259.911V3.18182V2.18182H188.917V3.18182ZM259.911 3.18182H258.911V23.1676H259.911H260.911V3.18182H259.911ZM259.911 23.1676V22.1676H213.526V23.1676V24.1676H259.911V23.1676ZM213.526 23.1676H212.526V44.0483H213.526H214.526V23.1676H213.526ZM213.526 44.0483V45.0483H256.282V44.0483V43.0483H213.526V44.0483ZM256.282 44.0483H255.282V64.0838H256.282H257.282V44.0483H256.282ZM256.282 64.0838V63.0838H213.526V64.0838V65.0838H256.282V64.0838ZM213.526 64.0838H212.526V85.0142H213.526H214.526V64.0838H213.526ZM213.526 85.0142V86.0142H259.911V85.0142V84.0142H213.526V85.0142ZM259.911 85.0142H258.911V105H259.911H260.911V85.0142H259.911ZM259.911 105V104H188.917V105V106H259.911V105ZM297.347 105V106H298.082L298.302 105.299L297.347 105ZM270.898 105L269.951 104.68L269.506 106H270.898V105ZM305.252 3.18182V2.18182H304.534L304.305 2.86212L305.252 3.18182ZM338.015 3.18182L338.962 2.86212L338.733 2.18182H338.015V3.18182ZM372.369 105V106H373.761L373.316 104.68L372.369 105ZM345.92 105L344.966 105.3L345.186 106H345.92V105ZM322.006 28.8352L322.96 28.5357L322.741 27.8352H322.006V28.8352ZM321.211 28.8352V27.8352H320.476L320.257 28.5362L321.211 28.8352ZM293.817 64.929V63.929H292.817V64.929H293.817ZM349.102 64.929H350.102V63.929H349.102V64.929ZM349.102 83.6222V84.6222H350.102V83.6222H349.102ZM293.817 83.6222H292.817V84.6222H293.817V83.6222ZM297.347 105V104H270.898V105V106H297.347V105ZM270.898 105L271.846 105.32L306.2 3.50151L305.252 3.18182L304.305 2.86212L269.951 104.68L270.898 105ZM305.252 3.18182V4.18182H338.015V3.18182V2.18182H305.252V3.18182ZM338.015 3.18182L337.067 3.50151L371.421 105.32L372.369 105L373.316 104.68L338.962 2.86212L338.015 3.18182ZM372.369 105V104H345.92V105V106H372.369V105ZM345.92 105L346.874 104.7L322.96 28.5357L322.006 28.8352L321.052 29.1348L344.966 105.3L345.92 105ZM322.006 28.8352V27.8352H321.211V28.8352V29.8352H322.006V28.8352ZM321.211 28.8352L320.257 28.5362L296.393 104.701L297.347 105L298.302 105.299L322.165 29.1342L321.211 28.8352ZM293.817 64.929V65.929H349.102V64.929V63.929H293.817V64.929ZM349.102 64.929H348.102V83.6222H349.102H350.102V64.929H349.102ZM349.102 83.6222V82.6222H293.817V83.6222V84.6222H349.102V83.6222ZM293.817 83.6222H294.817V64.929H293.817H292.817V83.6222H293.817ZM469.986 3.18182H470.986V2.18182H469.986V3.18182ZM469.986 105V106H470.986V105H469.986ZM449.105 105L448.282 105.568L448.58 106H449.105V105ZM408.587 46.2358L409.41 45.6681L409.112 45.2358H408.587V46.2358ZM407.94 46.2358V45.2358H406.94V46.2358H407.94ZM407.94 105V106H408.94V105H407.94ZM383.331 105H382.331V106H383.331V105ZM383.331 3.18182V2.18182H382.331V3.18182H383.331ZM404.51 3.18182L405.336 2.61778L405.038 2.18182H404.51V3.18182ZM444.581 61.8466L443.755 62.4106L444.053 62.8466H444.581V61.8466ZM445.426 61.8466V62.8466H446.426V61.8466H445.426ZM445.426 3.18182V2.18182H444.426V3.18182H445.426ZM469.986 3.18182H468.986V105H469.986H470.986V3.18182H469.986ZM469.986 105V104H449.105V105V106H469.986V105ZM449.105 105L449.928 104.432L409.41 45.6681L408.587 46.2358L407.763 46.8034L448.282 105.568L449.105 105ZM408.587 46.2358V45.2358H407.94V46.2358V47.2358H408.587V46.2358ZM407.94 46.2358H406.94V105H407.94H408.94V46.2358H407.94ZM407.94 105V104H383.331V105V106H407.94V105ZM383.331 105H384.331V3.18182H383.331H382.331V105H383.331ZM383.331 3.18182V4.18182H404.51V3.18182V2.18182H383.331V3.18182ZM404.51 3.18182L403.684 3.74585L443.755 62.4106L444.581 61.8466L445.407 61.2826L405.336 2.61778L404.51 3.18182ZM444.581 61.8466V62.8466H445.426V61.8466V60.8466H444.581V61.8466ZM445.426 61.8466H446.426V3.18182H445.426H444.426V61.8466H445.426ZM445.426 3.18182V4.18182H469.986V3.18182V2.18182H445.426V3.18182Z" fill="white" mask="url(#path-1-outside-1_114_7)"/>
</svg>
