<svg width="711" height="108" viewBox="0 0 711 108" fill="none" xmlns="http://www.w3.org/2000/svg">
<mask id="path-1-outside-1_114_4" maskUnits="userSpaceOnUse" x="0" y="0" width="711" height="108" fill="black">
<rect fill="white" width="711" height="108"/>
<path d="M1.70597 105V3.18182H72.7003V23.1676H26.3153V44.0483H69.071V64.0838H26.3153V85.0142H72.7003V105H1.70597ZM88.1122 105V3.18182H157.615V23.1676H112.722V44.0483H153.19V64.0838H112.722V105H88.1122ZM170.007 105V3.18182H239.51V23.1676H194.616V44.0483H235.085V64.0838H194.616V105H170.007ZM276.511 3.18182V105H251.901V3.18182H276.511ZM384.382 40.071H359.524C359.192 37.5189 358.513 35.2154 357.485 33.1605C356.458 31.1056 355.099 29.349 353.409 27.8906C351.718 26.4323 349.713 25.322 347.393 24.5597C345.106 23.7642 342.571 23.3665 339.787 23.3665C334.848 23.3665 330.589 24.5762 327.01 26.9957C323.463 29.4152 320.729 32.9119 318.806 37.4858C316.917 42.0597 315.973 47.5947 315.973 54.0909C315.973 60.8523 316.934 66.5199 318.856 71.0938C320.812 75.6345 323.546 79.0649 327.059 81.3849C330.606 83.6719 334.798 84.8153 339.637 84.8153C342.355 84.8153 344.824 84.4673 347.045 83.7713C349.299 83.0753 351.271 82.0644 352.961 80.7386C354.685 79.3797 356.093 77.7391 357.187 75.8168C358.314 73.8613 359.093 71.6572 359.524 69.2045L384.382 69.3537C383.951 73.8613 382.642 78.3026 380.454 82.6776C378.3 87.0526 375.333 91.0464 371.555 94.6591C367.777 98.2386 363.17 101.089 357.734 103.21C352.332 105.331 346.134 106.392 339.14 106.392C329.926 106.392 321.673 104.37 314.382 100.327C307.123 96.25 301.389 90.3172 297.18 82.5284C292.971 74.7396 290.866 65.2604 290.866 54.0909C290.866 42.8883 293.004 33.3925 297.279 25.6037C301.555 17.8149 307.339 11.8987 314.63 7.85511C321.922 3.81155 330.092 1.78977 339.14 1.78977C345.305 1.78977 351.006 2.65151 356.243 4.375C361.479 6.06534 366.086 8.55113 370.064 11.8324C374.041 15.0805 377.272 19.0743 379.758 23.8139C382.244 28.5535 383.785 33.9725 384.382 40.071ZM423.073 3.18182V105H398.464V3.18182H423.073ZM438.522 105V3.18182H509.517V23.1676H463.132V44.0483H505.887V64.0838H463.132V85.0142H509.517V105H438.522ZM611.583 3.18182V105H590.703L550.184 46.2358H549.538V105H524.929V3.18182H546.108L586.179 61.8466H587.024V3.18182H611.583ZM623.727 23.1676V3.18182H709.785V23.1676H678.911V105H654.65V23.1676H623.727Z"/>
</mask>
<path d="M1.70597 105H0.705966V106H1.70597V105ZM1.70597 3.18182V2.18182H0.705966V3.18182H1.70597ZM72.7003 3.18182H73.7003V2.18182H72.7003V3.18182ZM72.7003 23.1676V24.1676H73.7003V23.1676H72.7003ZM26.3153 23.1676V22.1676H25.3153V23.1676H26.3153ZM26.3153 44.0483H25.3153V45.0483H26.3153V44.0483ZM69.071 44.0483H70.071V43.0483H69.071V44.0483ZM69.071 64.0838V65.0838H70.071V64.0838H69.071ZM26.3153 64.0838V63.0838H25.3153V64.0838H26.3153ZM26.3153 85.0142H25.3153V86.0142H26.3153V85.0142ZM72.7003 85.0142H73.7003V84.0142H72.7003V85.0142ZM72.7003 105V106H73.7003V105H72.7003ZM1.70597 105H2.70597V3.18182H1.70597H0.705966V105H1.70597ZM1.70597 3.18182V4.18182H72.7003V3.18182V2.18182H1.70597V3.18182ZM72.7003 3.18182H71.7003V23.1676H72.7003H73.7003V3.18182H72.7003ZM72.7003 23.1676V22.1676H26.3153V23.1676V24.1676H72.7003V23.1676ZM26.3153 23.1676H25.3153V44.0483H26.3153H27.3153V23.1676H26.3153ZM26.3153 44.0483V45.0483H69.071V44.0483V43.0483H26.3153V44.0483ZM69.071 44.0483H68.071V64.0838H69.071H70.071V44.0483H69.071ZM69.071 64.0838V63.0838H26.3153V64.0838V65.0838H69.071V64.0838ZM26.3153 64.0838H25.3153V85.0142H26.3153H27.3153V64.0838H26.3153ZM26.3153 85.0142V86.0142H72.7003V85.0142V84.0142H26.3153V85.0142ZM72.7003 85.0142H71.7003V105H72.7003H73.7003V85.0142H72.7003ZM72.7003 105V104H1.70597V105V106H72.7003V105ZM88.1122 105H87.1122V106H88.1122V105ZM88.1122 3.18182V2.18182H87.1122V3.18182H88.1122ZM157.615 3.18182H158.615V2.18182H157.615V3.18182ZM157.615 23.1676V24.1676H158.615V23.1676H157.615ZM112.722 23.1676V22.1676H111.722V23.1676H112.722ZM112.722 44.0483H111.722V45.0483H112.722V44.0483ZM153.19 44.0483H154.19V43.0483H153.19V44.0483ZM153.19 64.0838V65.0838H154.19V64.0838H153.19ZM112.722 64.0838V63.0838H111.722V64.0838H112.722ZM112.722 105V106H113.722V105H112.722ZM88.1122 105H89.1122V3.18182H88.1122H87.1122V105H88.1122ZM88.1122 3.18182V4.18182H157.615V3.18182V2.18182H88.1122V3.18182ZM157.615 3.18182H156.615V23.1676H157.615H158.615V3.18182H157.615ZM157.615 23.1676V22.1676H112.722V23.1676V24.1676H157.615V23.1676ZM112.722 23.1676H111.722V44.0483H112.722H113.722V23.1676H112.722ZM112.722 44.0483V45.0483H153.19V44.0483V43.0483H112.722V44.0483ZM153.19 44.0483H152.19V64.0838H153.19H154.19V44.0483H153.19ZM153.19 64.0838V63.0838H112.722V64.0838V65.0838H153.19V64.0838ZM112.722 64.0838H111.722V105H112.722H113.722V64.0838H112.722ZM112.722 105V104H88.1122V105V106H112.722V105ZM170.007 105H169.007V106H170.007V105ZM170.007 3.18182V2.18182H169.007V3.18182H170.007ZM239.51 3.18182H240.51V2.18182H239.51V3.18182ZM239.51 23.1676V24.1676H240.51V23.1676H239.51ZM194.616 23.1676V22.1676H193.616V23.1676H194.616ZM194.616 44.0483H193.616V45.0483H194.616V44.0483ZM235.085 44.0483H236.085V43.0483H235.085V44.0483ZM235.085 64.0838V65.0838H236.085V64.0838H235.085ZM194.616 64.0838V63.0838H193.616V64.0838H194.616ZM194.616 105V106H195.616V105H194.616ZM170.007 105H171.007V3.18182H170.007H169.007V105H170.007ZM170.007 3.18182V4.18182H239.51V3.18182V2.18182H170.007V3.18182ZM239.51 3.18182H238.51V23.1676H239.51H240.51V3.18182H239.51ZM239.51 23.1676V22.1676H194.616V23.1676V24.1676H239.51V23.1676ZM194.616 23.1676H193.616V44.0483H194.616H195.616V23.1676H194.616ZM194.616 44.0483V45.0483H235.085V44.0483V43.0483H194.616V44.0483ZM235.085 44.0483H234.085V64.0838H235.085H236.085V44.0483H235.085ZM235.085 64.0838V63.0838H194.616V64.0838V65.0838H235.085V64.0838ZM194.616 64.0838H193.616V105H194.616H195.616V64.0838H194.616ZM194.616 105V104H170.007V105V106H194.616V105ZM276.511 3.18182H277.511V2.18182H276.511V3.18182ZM276.511 105V106H277.511V105H276.511ZM251.901 105H250.901V106H251.901V105ZM251.901 3.18182V2.18182H250.901V3.18182H251.901ZM276.511 3.18182H275.511V105H276.511H277.511V3.18182H276.511ZM276.511 105V104H251.901V105V106H276.511V105ZM251.901 105H252.901V3.18182H251.901H250.901V105H251.901ZM251.901 3.18182V4.18182H276.511V3.18182V2.18182H251.901V3.18182ZM384.382 40.071V41.071H385.484L385.377 39.9737L384.382 40.071ZM359.524 40.071L358.532 40.1998L358.645 41.071H359.524V40.071ZM357.485 33.1605L356.591 33.6077L356.591 33.6077L357.485 33.1605ZM353.409 27.8906L354.062 27.1335L354.062 27.1335L353.409 27.8906ZM347.393 24.5597L347.065 25.5042L347.073 25.507L347.081 25.5097L347.393 24.5597ZM327.01 26.9957L326.45 26.1672L326.446 26.1697L327.01 26.9957ZM318.806 37.4858L317.885 37.0983L317.882 37.104L318.806 37.4858ZM318.856 71.0938L317.934 71.4812L317.938 71.4893L318.856 71.0938ZM327.059 81.3849L326.508 82.2195L326.517 82.2254L327.059 81.3849ZM347.045 83.7713L346.75 82.8158L346.746 82.8171L347.045 83.7713ZM352.961 80.7386L353.578 81.5255L353.58 81.5239L352.961 80.7386ZM357.187 75.8168L356.321 75.3175L356.318 75.3222L357.187 75.8168ZM359.524 69.2045L359.53 68.2046L358.685 68.1995L358.539 69.0315L359.524 69.2045ZM384.382 69.3537L385.377 69.4488L385.481 68.3603L384.388 68.3537L384.382 69.3537ZM380.454 82.6776L379.56 82.2303L379.557 82.2358L380.454 82.6776ZM371.555 94.6591L372.243 95.3851L372.246 95.3819L371.555 94.6591ZM357.734 103.21L357.37 102.279L357.369 102.279L357.734 103.21ZM314.382 100.327L313.892 101.199L313.897 101.201L314.382 100.327ZM297.18 82.5284L298.06 82.053L297.18 82.5284ZM297.279 25.6037L296.403 25.1225L296.403 25.1225L297.279 25.6037ZM356.243 4.375L355.93 5.32489L355.935 5.32665L356.243 4.375ZM370.064 11.8324L369.427 12.6038L369.431 12.6069L370.064 11.8324ZM384.382 40.071V39.071H359.524V40.071V41.071H384.382V40.071ZM359.524 40.071L360.515 39.9422C360.171 37.2925 359.463 34.8794 358.38 32.7133L357.485 33.1605L356.591 33.6077C357.563 35.5514 358.213 37.7454 358.532 40.1998L359.524 40.071ZM357.485 33.1605L358.38 32.7133C357.295 30.5436 355.855 28.6807 354.062 27.1335L353.409 27.8906L352.756 28.6478C354.343 30.0172 355.621 31.6675 356.591 33.6077L357.485 33.1605ZM353.409 27.8906L354.062 27.1335C352.263 25.5812 350.139 24.4092 347.705 23.6096L347.393 24.5597L347.081 25.5097C349.288 26.2347 351.174 27.2834 352.756 28.6478L353.409 27.8906ZM347.393 24.5597L347.722 23.6152C345.315 22.7779 342.666 22.3665 339.787 22.3665V23.3665V24.3665C342.475 24.3665 344.898 24.7505 347.065 25.5042L347.393 24.5597ZM339.787 23.3665V22.3665C334.678 22.3665 330.217 23.6205 326.45 26.1672L327.01 26.9957L327.57 27.8242C330.961 25.5319 335.018 24.3665 339.787 24.3665V23.3665ZM327.01 26.9957L326.446 26.1697C322.717 28.7139 319.87 32.3751 317.885 37.0983L318.806 37.4858L319.728 37.8733C321.588 33.4488 324.21 30.1166 327.573 27.8218L327.01 26.9957ZM318.806 37.4858L317.882 37.104C315.93 41.8304 314.973 47.5026 314.973 54.0909H315.973H316.973C316.973 47.6868 317.905 42.2889 319.731 37.8676L318.806 37.4858ZM315.973 54.0909H314.973C314.973 60.94 315.945 66.7489 317.934 71.4812L318.856 71.0938L319.778 70.7063C317.922 66.2909 316.973 60.7645 316.973 54.0909H315.973ZM318.856 71.0938L317.938 71.4893C319.957 76.1772 322.806 79.7743 326.508 82.2194L327.059 81.3849L327.61 80.5505C324.286 78.3554 321.667 75.0918 319.775 70.6982L318.856 71.0938ZM327.059 81.3849L326.517 82.2254C330.248 84.6311 334.635 85.8153 339.637 85.8153V84.8153V83.8153C334.962 83.8153 330.963 82.7126 327.601 80.5445L327.059 81.3849ZM339.637 84.8153V85.8153C342.44 85.8153 345.012 85.4565 347.344 84.7255L347.045 83.7713L346.746 82.8171C344.637 83.4782 342.27 83.8153 339.637 83.8153V84.8153ZM347.045 83.7713L347.34 84.7268C349.699 83.9982 351.783 82.9337 353.578 81.5255L352.961 80.7386L352.344 79.9518C350.759 81.1951 348.899 82.1523 346.75 82.8158L347.045 83.7713ZM352.961 80.7386L353.58 81.5239C355.406 80.0845 356.899 78.3449 358.056 76.3113L357.187 75.8168L356.318 75.3222C355.288 77.1333 353.964 78.675 352.342 79.9534L352.961 80.7386ZM357.187 75.8168L358.054 76.3161C359.244 74.2496 360.06 71.9332 360.509 69.3776L359.524 69.2045L358.539 69.0315C358.126 71.3812 357.384 73.4729 356.321 75.3175L357.187 75.8168ZM359.524 69.2045L359.518 70.2045L384.376 70.3537L384.382 69.3537L384.388 68.3537L359.53 68.2046L359.524 69.2045ZM384.382 69.3537L383.386 69.2585C382.968 73.634 381.697 77.9566 379.56 82.2303L380.454 82.6776L381.349 83.1248C383.587 78.6485 384.934 74.0885 385.377 69.4488L384.382 69.3537ZM380.454 82.6776L379.557 82.2358C377.458 86.4984 374.564 90.3987 370.864 93.9363L371.555 94.6591L372.246 95.3819C376.103 91.6941 379.142 87.6067 381.351 83.1193L380.454 82.6776ZM371.555 94.6591L370.867 93.9331C367.193 97.4137 362.7 100.199 357.37 102.279L357.734 103.21L358.098 104.142C363.639 101.979 368.36 99.0636 372.243 95.385L371.555 94.6591ZM357.734 103.21L357.369 102.279C352.104 104.347 346.034 105.392 339.14 105.392V106.392V107.392C346.234 107.392 352.559 106.316 358.1 104.141L357.734 103.21ZM339.14 106.392V105.392C330.078 105.392 321.995 103.405 314.867 99.4522L314.382 100.327L313.897 101.201C321.352 105.335 329.775 107.392 339.14 107.392V106.392ZM314.382 100.327L314.871 99.4548C307.788 95.4767 302.185 89.6865 298.06 82.053L297.18 82.5284L296.3 83.0038C300.594 90.948 306.458 97.0233 313.892 101.199L314.382 100.327ZM297.18 82.5284L298.06 82.053C293.947 74.4435 291.866 65.137 291.866 54.0909H290.866H289.866C289.866 65.3839 291.994 75.0356 296.3 83.0038L297.18 82.5284ZM290.866 54.0909H291.866C291.866 43.0134 293.98 33.6926 298.156 26.0849L297.279 25.6037L296.403 25.1225C292.028 33.0924 289.866 42.7631 289.866 54.0909H290.866ZM297.279 25.6037L298.156 26.0849C302.347 18.4502 308 12.6756 315.115 8.72964L314.63 7.85511L314.145 6.98058C306.678 11.1217 300.763 17.1796 296.403 25.1225L297.279 25.6037ZM314.63 7.85511L315.115 8.72964C322.246 4.77529 330.247 2.78977 339.14 2.78977V1.78977V0.789769C329.937 0.789769 321.598 2.84781 314.145 6.98058L314.63 7.85511ZM339.14 1.78977V2.78977C345.211 2.78977 350.805 3.63827 355.93 5.32488L356.243 4.375L356.555 3.42512C351.206 1.66476 345.399 0.789769 339.14 0.789769V1.78977ZM356.243 4.375L355.935 5.32665C361.06 6.98085 365.554 9.40812 369.427 12.6038L370.064 11.8324L370.7 11.061C366.619 7.69414 361.898 5.14983 356.55 3.42335L356.243 4.375ZM370.064 11.8324L369.431 12.6069C373.3 15.7662 376.447 19.653 378.873 24.2784L379.758 23.8139L380.644 23.3495C378.098 18.4957 374.782 14.3948 370.696 11.0578L370.064 11.8324ZM379.758 23.8139L378.873 24.2784C381.29 28.8885 382.801 34.1798 383.386 40.1684L384.382 40.071L385.377 39.9737C384.77 33.7653 383.197 28.2185 380.644 23.3495L379.758 23.8139ZM423.073 3.18182H424.073V2.18182H423.073V3.18182ZM423.073 105V106H424.073V105H423.073ZM398.464 105H397.464V106H398.464V105ZM398.464 3.18182V2.18182H397.464V3.18182H398.464ZM423.073 3.18182H422.073V105H423.073H424.073V3.18182H423.073ZM423.073 105V104H398.464V105V106H423.073V105ZM398.464 105H399.464V3.18182H398.464H397.464V105H398.464ZM398.464 3.18182V4.18182H423.073V3.18182V2.18182H398.464V3.18182ZM438.522 105H437.522V106H438.522V105ZM438.522 3.18182V2.18182H437.522V3.18182H438.522ZM509.517 3.18182H510.517V2.18182H509.517V3.18182ZM509.517 23.1676V24.1676H510.517V23.1676H509.517ZM463.132 23.1676V22.1676H462.132V23.1676H463.132ZM463.132 44.0483H462.132V45.0483H463.132V44.0483ZM505.887 44.0483H506.887V43.0483H505.887V44.0483ZM505.887 64.0838V65.0838H506.887V64.0838H505.887ZM463.132 64.0838V63.0838H462.132V64.0838H463.132ZM463.132 85.0142H462.132V86.0142H463.132V85.0142ZM509.517 85.0142H510.517V84.0142H509.517V85.0142ZM509.517 105V106H510.517V105H509.517ZM438.522 105H439.522V3.18182H438.522H437.522V105H438.522ZM438.522 3.18182V4.18182H509.517V3.18182V2.18182H438.522V3.18182ZM509.517 3.18182H508.517V23.1676H509.517H510.517V3.18182H509.517ZM509.517 23.1676V22.1676H463.132V23.1676V24.1676H509.517V23.1676ZM463.132 23.1676H462.132V44.0483H463.132H464.132V23.1676H463.132ZM463.132 44.0483V45.0483H505.887V44.0483V43.0483H463.132V44.0483ZM505.887 44.0483H504.887V64.0838H505.887H506.887V44.0483H505.887ZM505.887 64.0838V63.0838H463.132V64.0838V65.0838H505.887V64.0838ZM463.132 64.0838H462.132V85.0142H463.132H464.132V64.0838H463.132ZM463.132 85.0142V86.0142H509.517V85.0142V84.0142H463.132V85.0142ZM509.517 85.0142H508.517V105H509.517H510.517V85.0142H509.517ZM509.517 105V104H438.522V105V106H509.517V105ZM611.583 3.18182H612.583V2.18182H611.583V3.18182ZM611.583 105V106H612.583V105H611.583ZM590.703 105L589.88 105.568L590.178 106H590.703V105ZM550.184 46.2358L551.008 45.6681L550.709 45.2358H550.184V46.2358ZM549.538 46.2358V45.2358H548.538V46.2358H549.538ZM549.538 105V106H550.538V105H549.538ZM524.929 105H523.929V106H524.929V105ZM524.929 3.18182V2.18182H523.929V3.18182H524.929ZM546.108 3.18182L546.933 2.61778L546.636 2.18182H546.108V3.18182ZM586.179 61.8466L585.353 62.4106L585.651 62.8466H586.179V61.8466ZM587.024 61.8466V62.8466H588.024V61.8466H587.024ZM587.024 3.18182V2.18182H586.024V3.18182H587.024ZM611.583 3.18182H610.583V105H611.583H612.583V3.18182H611.583ZM611.583 105V104H590.703V105V106H611.583V105ZM590.703 105L591.526 104.432L551.008 45.6681L550.184 46.2358L549.361 46.8034L589.88 105.568L590.703 105ZM550.184 46.2358V45.2358H549.538V46.2358V47.2358H550.184V46.2358ZM549.538 46.2358H548.538V105H549.538H550.538V46.2358H549.538ZM549.538 105V104H524.929V105V106H549.538V105ZM524.929 105H525.929V3.18182H524.929H523.929V105H524.929ZM524.929 3.18182V4.18182H546.108V3.18182V2.18182H524.929V3.18182ZM546.108 3.18182L545.282 3.74585L585.353 62.4106L586.179 61.8466L587.004 61.2826L546.933 2.61778L546.108 3.18182ZM586.179 61.8466V62.8466H587.024V61.8466V60.8466H586.179V61.8466ZM587.024 61.8466H588.024V3.18182H587.024H586.024V61.8466H587.024ZM587.024 3.18182V4.18182H611.583V3.18182V2.18182H587.024V3.18182ZM623.727 23.1676H622.727V24.1676H623.727V23.1676ZM623.727 3.18182V2.18182H622.727V3.18182H623.727ZM709.785 3.18182H710.785V2.18182H709.785V3.18182ZM709.785 23.1676V24.1676H710.785V23.1676H709.785ZM678.911 23.1676V22.1676H677.911V23.1676H678.911ZM678.911 105V106H679.911V105H678.911ZM654.65 105H653.65V106H654.65V105ZM654.65 23.1676H655.65V22.1676H654.65V23.1676ZM623.727 23.1676H624.727V3.18182H623.727H622.727V23.1676H623.727ZM623.727 3.18182V4.18182H709.785V3.18182V2.18182H623.727V3.18182ZM709.785 3.18182H708.785V23.1676H709.785H710.785V3.18182H709.785ZM709.785 23.1676V22.1676H678.911V23.1676V24.1676H709.785V23.1676ZM678.911 23.1676H677.911V105H678.911H679.911V23.1676H678.911ZM678.911 105V104H654.65V105V106H678.911V105ZM654.65 105H655.65V23.1676H654.65H653.65V105H654.65ZM654.65 23.1676V22.1676H623.727V23.1676V24.1676H654.65V23.1676Z" fill="white" mask="url(#path-1-outside-1_114_4)"/>
</svg>
