<svg width="826" height="108" viewBox="0 0 826 108" fill="none" xmlns="http://www.w3.org/2000/svg">
<mask id="path-1-outside-1_114_2" maskUnits="userSpaceOnUse" x="0" y="0" width="826" height="108" fill="black">
<rect fill="white" width="826" height="108"/>
<path d="M1.70597 105V3.18182H71.2088V23.1676H26.3153V44.0483H66.7841V64.0838H26.3153V105H1.70597ZM83.6005 105V3.18182H125.66C133.283 3.18182 139.862 4.55729 145.397 7.30824C150.966 10.026 155.258 13.937 158.274 19.0412C161.29 24.1122 162.798 30.1278 162.798 37.0881C162.798 44.1477 161.257 50.1468 158.174 55.0852C155.092 59.9905 150.717 63.7358 145.049 66.321C139.382 68.8731 132.67 70.1491 124.914 70.1491H98.3164V50.7599H120.341C124.053 50.7599 127.152 50.2794 129.637 49.3182C132.156 48.3239 134.062 46.8324 135.355 44.8438C136.647 42.822 137.294 40.2367 137.294 37.0881C137.294 33.9394 136.647 31.3376 135.355 29.2827C134.062 27.1946 132.156 25.6368 129.637 24.6094C127.118 23.5488 124.02 23.0185 120.341 23.0185H108.21V105H83.6005ZM140.923 58.4659L166.278 105H139.431L114.574 58.4659H140.923ZM272.397 54.0909C272.397 65.2936 270.242 74.7893 265.934 82.5781C261.625 90.367 255.792 96.2831 248.434 100.327C241.109 104.37 232.889 106.392 223.775 106.392C214.627 106.392 206.391 104.354 199.066 100.277C191.741 96.2003 185.924 90.2841 181.615 82.5284C177.34 74.7396 175.202 65.2604 175.202 54.0909C175.202 42.8883 177.34 33.3925 181.615 25.6037C185.924 17.8149 191.741 11.8987 199.066 7.85511C206.391 3.81155 214.627 1.78977 223.775 1.78977C232.889 1.78977 241.109 3.81155 248.434 7.85511C255.792 11.8987 261.625 17.8149 265.934 25.6037C270.242 33.3925 272.397 42.8883 272.397 54.0909ZM247.24 54.0909C247.24 47.4621 246.296 41.8608 244.407 37.2869C242.551 32.7131 239.866 29.2495 236.353 26.8963C232.873 24.5431 228.68 23.3665 223.775 23.3665C218.902 23.3665 214.71 24.5431 211.196 26.8963C207.683 29.2495 204.982 32.7131 203.093 37.2869C201.237 41.8608 200.309 47.4621 200.309 54.0909C200.309 60.7197 201.237 66.321 203.093 70.8949C204.982 75.4687 207.683 78.9323 211.196 81.2855C214.71 83.6387 218.902 84.8153 223.775 84.8153C228.68 84.8153 232.873 83.6387 236.353 81.2855C239.866 78.9323 242.551 75.4687 244.407 70.8949C246.296 66.321 247.24 60.7197 247.24 54.0909ZM373.419 3.18182V105H352.539L312.02 46.2358H311.374V105H286.765V3.18182H307.944L348.015 61.8466H348.86V3.18182H373.419ZM385.562 23.1676V3.18182H471.621V23.1676H440.747V105H416.486V23.1676H385.562ZM530.46 44.7443V63.4375H483.329V44.7443H530.46ZM547.624 105V3.18182H618.618V23.1676H572.233V44.0483H614.989V64.0838H572.233V85.0142H618.618V105H547.624ZM720.685 3.18182V105H699.804L659.286 46.2358H658.64V105H634.03V3.18182H655.209L695.28 61.8466H696.125V3.18182H720.685ZM773.794 105H736.159V3.18182H773.744C784.118 3.18182 793.051 5.22017 800.541 9.29688C808.065 13.3404 813.865 19.1738 817.942 26.7969C822.018 34.3868 824.057 43.4683 824.057 54.0412C824.057 64.6473 822.018 73.7618 817.942 81.3849C813.898 89.008 808.115 94.858 800.591 98.9347C793.067 102.978 784.135 105 773.794 105ZM760.768 84.0199H772.849C778.55 84.0199 783.373 83.0587 787.317 81.1364C791.294 79.1809 794.294 76.0156 796.315 71.6406C798.37 67.2325 799.398 61.366 799.398 54.0412C799.398 46.7164 798.37 40.883 796.315 36.5412C794.26 32.1662 791.228 29.0175 787.217 27.0952C783.24 25.1397 778.335 24.1619 772.501 24.1619H760.768V84.0199Z"/>
</mask>
<path d="M1.70597 105H0.705966V106H1.70597V105ZM1.70597 3.18182V2.18182H0.705966V3.18182H1.70597ZM71.2088 3.18182H72.2088V2.18182H71.2088V3.18182ZM71.2088 23.1676V24.1676H72.2088V23.1676H71.2088ZM26.3153 23.1676V22.1676H25.3153V23.1676H26.3153ZM26.3153 44.0483H25.3153V45.0483H26.3153V44.0483ZM66.7841 44.0483H67.7841V43.0483H66.7841V44.0483ZM66.7841 64.0838V65.0838H67.7841V64.0838H66.7841ZM26.3153 64.0838V63.0838H25.3153V64.0838H26.3153ZM26.3153 105V106H27.3153V105H26.3153ZM1.70597 105H2.70597V3.18182H1.70597H0.705966V105H1.70597ZM1.70597 3.18182V4.18182H71.2088V3.18182V2.18182H1.70597V3.18182ZM71.2088 3.18182H70.2088V23.1676H71.2088H72.2088V3.18182H71.2088ZM71.2088 23.1676V22.1676H26.3153V23.1676V24.1676H71.2088V23.1676ZM26.3153 23.1676H25.3153V44.0483H26.3153H27.3153V23.1676H26.3153ZM26.3153 44.0483V45.0483H66.7841V44.0483V43.0483H26.3153V44.0483ZM66.7841 44.0483H65.7841V64.0838H66.7841H67.7841V44.0483H66.7841ZM66.7841 64.0838V63.0838H26.3153V64.0838V65.0838H66.7841V64.0838ZM26.3153 64.0838H25.3153V105H26.3153H27.3153V64.0838H26.3153ZM26.3153 105V104H1.70597V105V106H26.3153V105ZM83.6005 105H82.6005V106H83.6005V105ZM83.6005 3.18182V2.18182H82.6005V3.18182H83.6005ZM145.397 7.30824L144.952 8.20376L144.959 8.2069L145.397 7.30824ZM158.274 19.0412L157.413 19.5499L157.414 19.5524L158.274 19.0412ZM158.174 55.0852L159.021 55.6173L159.023 55.6147L158.174 55.0852ZM145.049 66.321L145.46 67.2329L145.464 67.2308L145.049 66.321ZM98.3164 70.1491H97.3164V71.1491H98.3164V70.1491ZM98.3164 50.7599V49.7599H97.3164V50.7599H98.3164ZM129.637 49.3182L129.998 50.2509L130.005 50.2483L129.637 49.3182ZM135.355 44.8438L136.193 45.3888L136.197 45.3824L135.355 44.8438ZM135.355 29.2827L134.504 29.809L134.508 29.8151L135.355 29.2827ZM129.637 24.6094L129.249 25.5311L129.26 25.5353L129.637 24.6094ZM108.21 23.0185V22.0185H107.21V23.0185H108.21ZM108.21 105V106H109.21V105H108.21ZM140.923 58.4659L141.801 57.9874L141.517 57.4659H140.923V58.4659ZM166.278 105V106H167.962L167.156 104.522L166.278 105ZM139.431 105L138.549 105.471L138.832 106H139.431V105ZM114.574 58.4659V57.4659H112.906L113.691 58.9371L114.574 58.4659ZM83.6005 105H84.6005V3.18182H83.6005H82.6005V105H83.6005ZM83.6005 3.18182V4.18182H125.66V3.18182V2.18182H83.6005V3.18182ZM125.66 3.18182V4.18182C133.164 4.18182 139.584 5.53569 144.952 8.20373L145.397 7.30824L145.842 6.41274C140.141 3.57889 133.402 2.18182 125.66 2.18182V3.18182ZM145.397 7.30824L144.959 8.2069C150.359 10.8429 154.501 14.6221 157.413 19.5499L158.274 19.0412L159.135 18.5325C156.014 13.2519 151.572 9.20914 145.836 6.40957L145.397 7.30824ZM158.274 19.0412L157.414 19.5524C160.323 24.4429 161.798 30.2752 161.798 37.0881H162.798H163.798C163.798 29.9805 162.257 23.7815 159.133 18.53L158.274 19.0412ZM162.798 37.0881H161.798C161.798 44.0005 160.29 49.8069 157.326 54.5557L158.174 55.0852L159.023 55.6147C162.223 50.4866 163.798 44.2949 163.798 37.0881H162.798ZM158.174 55.0852L157.328 54.5532C154.357 59.2805 150.138 62.9006 144.634 65.4112L145.049 66.321L145.464 67.2308C151.296 64.5709 155.827 60.7005 159.021 55.6173L158.174 55.0852ZM145.049 66.321L144.639 65.4092C139.128 67.8906 132.563 69.1491 124.914 69.1491V70.1491V71.1491C132.778 71.1491 139.635 69.8556 145.46 67.2328L145.049 66.321ZM124.914 70.1491V69.1491H98.3164V70.1491V71.1491H124.914V70.1491ZM98.3164 70.1491H99.3164V50.7599H98.3164H97.3164V70.1491H98.3164ZM98.3164 50.7599V51.7599H120.341V50.7599V49.7599H98.3164V50.7599ZM120.341 50.7599V51.7599C124.131 51.7599 127.362 51.2703 129.998 50.2509L129.637 49.3182L129.277 48.3855C126.942 49.2884 123.974 49.7599 120.341 49.7599V50.7599ZM129.637 49.3182L130.005 50.2483C132.688 49.1889 134.772 47.5756 136.193 45.3887L135.355 44.8438L134.516 44.2988C133.353 46.0892 131.624 47.4588 129.27 48.388L129.637 49.3182ZM135.355 44.8438L136.197 45.3824C137.62 43.1567 138.294 40.3692 138.294 37.0881H137.294H136.294C136.294 40.1043 135.675 42.4872 134.512 44.3051L135.355 44.8438ZM137.294 37.0881H138.294C138.294 33.806 137.62 31.0056 136.201 28.7502L135.355 29.2827L134.508 29.8151C135.675 31.6696 136.294 34.0727 136.294 37.0881H137.294ZM135.355 29.2827L136.205 28.7563C134.789 26.4691 132.708 24.7817 130.015 23.6834L129.637 24.6094L129.26 25.5353C131.605 26.4919 133.335 27.9201 134.504 29.809L135.355 29.2827ZM129.637 24.6094L130.025 23.6877C127.349 22.5609 124.109 22.0185 120.341 22.0185V23.0185V24.0185C123.93 24.0185 126.888 24.5367 129.249 25.531L129.637 24.6094ZM120.341 23.0185V22.0185H108.21V23.0185V24.0185H120.341V23.0185ZM108.21 23.0185H107.21V105H108.21H109.21V23.0185H108.21ZM108.21 105V104H83.6005V105V106H108.21V105ZM140.923 58.4659L140.045 58.9444L165.4 105.478L166.278 105L167.156 104.522L141.801 57.9874L140.923 58.4659ZM166.278 105V104H139.431V105V106H166.278V105ZM139.431 105L140.314 104.529L115.456 57.9947L114.574 58.4659L113.691 58.9371L138.549 105.471L139.431 105ZM114.574 58.4659V59.4659H140.923V58.4659V57.4659H114.574V58.4659ZM265.934 82.5781L265.059 82.0941L265.059 82.0941L265.934 82.5781ZM248.434 100.327L247.952 99.4503L247.95 99.4512L248.434 100.327ZM199.066 100.277L199.552 99.4032L199.552 99.4032L199.066 100.277ZM181.615 82.5284L180.739 83.0096L180.741 83.0141L181.615 82.5284ZM181.615 25.6037L180.74 25.1196L180.739 25.1225L181.615 25.6037ZM199.066 7.85511L199.549 8.73057L199.549 8.73057L199.066 7.85511ZM248.434 7.85511L247.95 8.73057L247.952 8.73149L248.434 7.85511ZM265.934 25.6037L265.059 26.0878L265.059 26.0878L265.934 25.6037ZM244.407 37.2869L243.48 37.663L243.482 37.6687L244.407 37.2869ZM236.353 26.8963L235.792 27.7247L235.796 27.7271L236.353 26.8963ZM211.196 26.8963L211.753 27.7271L211.753 27.7271L211.196 26.8963ZM203.093 37.2869L202.168 36.9052L202.166 36.9109L203.093 37.2869ZM203.093 70.8949L202.166 71.2709L202.168 71.2766L203.093 70.8949ZM211.196 81.2855L211.753 80.4547L211.753 80.4547L211.196 81.2855ZM236.353 81.2855L235.796 80.4547L235.792 80.4571L236.353 81.2855ZM244.407 70.8949L243.482 70.5131L243.48 70.5189L244.407 70.8949ZM272.397 54.0909H271.397C271.397 65.1672 269.267 74.487 265.059 82.0941L265.934 82.5781L266.809 83.0622C271.218 75.0916 273.397 65.4199 273.397 54.0909H272.397ZM265.934 82.5781L265.059 82.0941C260.836 89.728 255.134 95.5033 247.952 99.4503L248.434 100.327L248.915 101.203C256.449 97.063 262.414 91.0059 266.809 83.0622L265.934 82.5781ZM248.434 100.327L247.95 99.4512C240.786 103.406 232.736 105.392 223.775 105.392V106.392V107.392C233.043 107.392 241.431 105.335 248.917 101.202L248.434 100.327ZM223.775 106.392V105.392C214.781 105.392 206.715 103.39 199.552 99.4032L199.066 100.277L198.579 101.151C206.066 105.318 214.473 107.392 223.775 107.392V106.392ZM199.066 100.277L199.552 99.4032C192.4 95.4226 186.713 89.6454 182.49 82.0428L181.615 82.5284L180.741 83.0141C185.135 90.9228 191.082 96.978 198.579 101.151L199.066 100.277ZM181.615 82.5284L182.492 82.0472C178.316 74.4391 176.202 65.1347 176.202 54.0909H175.202H174.202C174.202 65.3862 176.364 75.0401 180.739 83.0096L181.615 82.5284ZM175.202 54.0909H176.202C176.202 43.0134 178.316 33.6926 182.492 26.0849L181.615 25.6037L180.739 25.1225C176.364 33.0924 174.202 42.7631 174.202 54.0909H175.202ZM181.615 25.6037L182.49 26.0878C186.714 18.4527 192.4 12.6773 199.549 8.73057L199.066 7.85511L198.582 6.97965C191.082 11.1201 185.134 17.1771 180.74 25.1196L181.615 25.6037ZM199.066 7.85511L199.549 8.73057C206.712 4.77618 214.78 2.78977 223.775 2.78977V1.78977V0.789769C214.474 0.789769 206.069 2.84692 198.582 6.97965L199.066 7.85511ZM223.775 1.78977V2.78977C232.736 2.78977 240.786 4.77588 247.95 8.73057L248.434 7.85511L248.917 6.97965C241.431 2.84722 233.043 0.789769 223.775 0.789769V1.78977ZM248.434 7.85511L247.952 8.73149C255.134 12.6785 260.836 18.4538 265.059 26.0878L265.934 25.6037L266.809 25.1196C262.414 17.1759 256.449 11.1188 248.915 6.97873L248.434 7.85511ZM265.934 25.6037L265.059 26.0878C269.267 33.6948 271.397 43.0146 271.397 54.0909H272.397H273.397C273.397 42.7619 271.218 33.0902 266.809 25.1196L265.934 25.6037ZM247.24 54.0909H248.24C248.24 47.3731 247.284 41.6336 245.331 36.9052L244.407 37.2869L243.482 37.6687C245.308 42.088 246.24 47.5511 246.24 54.0909H247.24ZM244.407 37.2869L245.333 36.9109C243.415 32.1836 240.615 28.5476 236.909 26.0655L236.353 26.8963L235.796 27.7271C239.117 29.9515 241.686 33.2425 243.48 37.6629L244.407 37.2869ZM236.353 26.8963L236.913 26.0679C233.241 23.5851 228.845 22.3665 223.775 22.3665V23.3665V24.3665C228.514 24.3665 232.504 25.5011 235.792 27.7247L236.353 26.8963ZM223.775 23.3665V22.3665C218.735 22.3665 214.342 23.5859 210.64 26.0655L211.196 26.8963L211.753 27.7271C215.077 25.5003 219.07 24.3665 223.775 24.3665V23.3665ZM211.196 26.8963L210.64 26.0655C206.936 28.5464 204.12 32.1804 202.168 36.9052L203.093 37.2869L204.017 37.6687C205.844 33.2457 208.43 29.9526 211.753 27.7271L211.196 26.8963ZM203.093 37.2869L202.166 36.9109C200.248 41.6375 199.309 47.3749 199.309 54.0909H200.309H201.309C201.309 47.5494 202.225 42.0841 204.019 37.6629L203.093 37.2869ZM200.309 54.0909H199.309C199.309 60.807 200.248 66.5443 202.166 71.2709L203.093 70.8949L204.019 70.5189C202.225 66.0978 201.309 60.6324 201.309 54.0909H200.309ZM203.093 70.8949L202.168 71.2766C204.12 76.0014 206.936 79.6354 210.64 82.1164L211.196 81.2855L211.753 80.4547C208.43 78.2292 205.844 74.9361 204.017 70.5131L203.093 70.8949ZM211.196 81.2855L210.64 82.1164C214.342 84.5959 218.735 85.8153 223.775 85.8153V84.8153V83.8153C219.07 83.8153 215.077 82.6815 211.753 80.4547L211.196 81.2855ZM223.775 84.8153V85.8153C228.845 85.8153 233.241 84.5967 236.913 82.1139L236.353 81.2855L235.792 80.4571C232.504 82.6807 228.514 83.8153 223.775 83.8153V84.8153ZM236.353 81.2855L236.909 82.1164C240.615 79.6343 243.415 75.9982 245.333 71.2709L244.407 70.8949L243.48 70.5189C241.686 74.9393 239.117 78.2303 235.796 80.4547L236.353 81.2855ZM244.407 70.8949L245.331 71.2766C247.284 66.5482 248.24 60.8087 248.24 54.0909H247.24H246.24C246.24 60.6307 245.308 66.0939 243.482 70.5131L244.407 70.8949ZM373.419 3.18182H374.419V2.18182H373.419V3.18182ZM373.419 105V106H374.419V105H373.419ZM352.539 105L351.715 105.568L352.014 106H352.539V105ZM312.02 46.2358L312.844 45.6681L312.545 45.2358H312.02V46.2358ZM311.374 46.2358V45.2358H310.374V46.2358H311.374ZM311.374 105V106H312.374V105H311.374ZM286.765 105H285.765V106H286.765V105ZM286.765 3.18182V2.18182H285.765V3.18182H286.765ZM307.944 3.18182L308.769 2.61778L308.472 2.18182H307.944V3.18182ZM348.015 61.8466L347.189 62.4106L347.487 62.8466H348.015V61.8466ZM348.86 61.8466V62.8466H349.86V61.8466H348.86ZM348.86 3.18182V2.18182H347.86V3.18182H348.86ZM373.419 3.18182H372.419V105H373.419H374.419V3.18182H373.419ZM373.419 105V104H352.539V105V106H373.419V105ZM352.539 105L353.362 104.432L312.844 45.6681L312.02 46.2358L311.197 46.8034L351.715 105.568L352.539 105ZM312.02 46.2358V45.2358H311.374V46.2358V47.2358H312.02V46.2358ZM311.374 46.2358H310.374V105H311.374H312.374V46.2358H311.374ZM311.374 105V104H286.765V105V106H311.374V105ZM286.765 105H287.765V3.18182H286.765H285.765V105H286.765ZM286.765 3.18182V4.18182H307.944V3.18182V2.18182H286.765V3.18182ZM307.944 3.18182L307.118 3.74585L347.189 62.4106L348.015 61.8466L348.84 61.2826L308.769 2.61778L307.944 3.18182ZM348.015 61.8466V62.8466H348.86V61.8466V60.8466H348.015V61.8466ZM348.86 61.8466H349.86V3.18182H348.86H347.86V61.8466H348.86ZM348.86 3.18182V4.18182H373.419V3.18182V2.18182H348.86V3.18182ZM385.562 23.1676H384.562V24.1676H385.562V23.1676ZM385.562 3.18182V2.18182H384.562V3.18182H385.562ZM471.621 3.18182H472.621V2.18182H471.621V3.18182ZM471.621 23.1676V24.1676H472.621V23.1676H471.621ZM440.747 23.1676V22.1676H439.747V23.1676H440.747ZM440.747 105V106H441.747V105H440.747ZM416.486 105H415.486V106H416.486V105ZM416.486 23.1676H417.486V22.1676H416.486V23.1676ZM385.562 23.1676H386.562V3.18182H385.562H384.562V23.1676H385.562ZM385.562 3.18182V4.18182H471.621V3.18182V2.18182H385.562V3.18182ZM471.621 3.18182H470.621V23.1676H471.621H472.621V3.18182H471.621ZM471.621 23.1676V22.1676H440.747V23.1676V24.1676H471.621V23.1676ZM440.747 23.1676H439.747V105H440.747H441.747V23.1676H440.747ZM440.747 105V104H416.486V105V106H440.747V105ZM416.486 105H417.486V23.1676H416.486H415.486V105H416.486ZM416.486 23.1676V22.1676H385.562V23.1676V24.1676H416.486V23.1676ZM530.46 44.7443H531.46V43.7443H530.46V44.7443ZM530.46 63.4375V64.4375H531.46V63.4375H530.46ZM483.329 63.4375H482.329V64.4375H483.329V63.4375ZM483.329 44.7443V43.7443H482.329V44.7443H483.329ZM530.46 44.7443H529.46V63.4375H530.46H531.46V44.7443H530.46ZM530.46 63.4375V62.4375H483.329V63.4375V64.4375H530.46V63.4375ZM483.329 63.4375H484.329V44.7443H483.329H482.329V63.4375H483.329ZM483.329 44.7443V45.7443H530.46V44.7443V43.7443H483.329V44.7443ZM547.624 105H546.624V106H547.624V105ZM547.624 3.18182V2.18182H546.624V3.18182H547.624ZM618.618 3.18182H619.618V2.18182H618.618V3.18182ZM618.618 23.1676V24.1676H619.618V23.1676H618.618ZM572.233 23.1676V22.1676H571.233V23.1676H572.233ZM572.233 44.0483H571.233V45.0483H572.233V44.0483ZM614.989 44.0483H615.989V43.0483H614.989V44.0483ZM614.989 64.0838V65.0838H615.989V64.0838H614.989ZM572.233 64.0838V63.0838H571.233V64.0838H572.233ZM572.233 85.0142H571.233V86.0142H572.233V85.0142ZM618.618 85.0142H619.618V84.0142H618.618V85.0142ZM618.618 105V106H619.618V105H618.618ZM547.624 105H548.624V3.18182H547.624H546.624V105H547.624ZM547.624 3.18182V4.18182H618.618V3.18182V2.18182H547.624V3.18182ZM618.618 3.18182H617.618V23.1676H618.618H619.618V3.18182H618.618ZM618.618 23.1676V22.1676H572.233V23.1676V24.1676H618.618V23.1676ZM572.233 23.1676H571.233V44.0483H572.233H573.233V23.1676H572.233ZM572.233 44.0483V45.0483H614.989V44.0483V43.0483H572.233V44.0483ZM614.989 44.0483H613.989V64.0838H614.989H615.989V44.0483H614.989ZM614.989 64.0838V63.0838H572.233V64.0838V65.0838H614.989V64.0838ZM572.233 64.0838H571.233V85.0142H572.233H573.233V64.0838H572.233ZM572.233 85.0142V86.0142H618.618V85.0142V84.0142H572.233V85.0142ZM618.618 85.0142H617.618V105H618.618H619.618V85.0142H618.618ZM618.618 105V104H547.624V105V106H618.618V105ZM720.685 3.18182H721.685V2.18182H720.685V3.18182ZM720.685 105V106H721.685V105H720.685ZM699.804 105L698.981 105.568L699.279 106H699.804V105ZM659.286 46.2358L660.109 45.6681L659.811 45.2358H659.286V46.2358ZM658.64 46.2358V45.2358H657.64V46.2358H658.64ZM658.64 105V106H659.64V105H658.64ZM634.03 105H633.03V106H634.03V105ZM634.03 3.18182V2.18182H633.03V3.18182H634.03ZM655.209 3.18182L656.035 2.61778L655.737 2.18182H655.209V3.18182ZM695.28 61.8466L694.454 62.4106L694.752 62.8466H695.28V61.8466ZM696.125 61.8466V62.8466H697.125V61.8466H696.125ZM696.125 3.18182V2.18182H695.125V3.18182H696.125ZM720.685 3.18182H719.685V105H720.685H721.685V3.18182H720.685ZM720.685 105V104H699.804V105V106H720.685V105ZM699.804 105L700.628 104.432L660.109 45.6681L659.286 46.2358L658.463 46.8034L698.981 105.568L699.804 105ZM659.286 46.2358V45.2358H658.64V46.2358V47.2358H659.286V46.2358ZM658.64 46.2358H657.64V105H658.64H659.64V46.2358H658.64ZM658.64 105V104H634.03V105V106H658.64V105ZM634.03 105H635.03V3.18182H634.03H633.03V105H634.03ZM634.03 3.18182V4.18182H655.209V3.18182V2.18182H634.03V3.18182ZM655.209 3.18182L654.383 3.74585L694.454 62.4106L695.28 61.8466L696.106 61.2826L656.035 2.61778L655.209 3.18182ZM695.28 61.8466V62.8466H696.125V61.8466V60.8466H695.28V61.8466ZM696.125 61.8466H697.125V3.18182H696.125H695.125V61.8466H696.125ZM696.125 3.18182V4.18182H720.685V3.18182V2.18182H696.125V3.18182ZM736.159 105H735.159V106H736.159V105ZM736.159 3.18182V2.18182H735.159V3.18182H736.159ZM800.541 9.29688L800.063 10.1752L800.068 10.1777L800.541 9.29688ZM817.942 26.7969L817.06 27.2685L817.061 27.2701L817.942 26.7969ZM817.942 81.3849L817.06 80.9134L817.058 80.9163L817.942 81.3849ZM800.591 98.9347L801.064 99.8155L801.067 99.8139L800.591 98.9347ZM760.768 84.0199H759.768V85.0199H760.768V84.0199ZM787.317 81.1364L787.755 82.0353L787.758 82.0338L787.317 81.1364ZM796.315 71.6406L795.409 71.2181L795.408 71.2211L796.315 71.6406ZM796.315 36.5412L795.41 36.9663L795.411 36.969L796.315 36.5412ZM787.217 27.0952L786.776 27.9926L786.785 27.9969L787.217 27.0952ZM760.768 24.1619V23.1619H759.768V24.1619H760.768ZM773.794 105V104H736.159V105V106H773.794V105ZM736.159 105H737.159V3.18182H736.159H735.159V105H736.159ZM736.159 3.18182V4.18182H773.744V3.18182V2.18182H736.159V3.18182ZM773.744 3.18182V4.18182C783.987 4.18182 792.748 6.19389 800.063 10.1752L800.541 9.29688L801.019 8.41853C793.353 4.24645 784.25 2.18182 773.744 2.18182V3.18182ZM800.541 9.29688L800.068 10.1777C807.416 14.1269 813.075 19.8168 817.06 27.2685L817.942 26.7969L818.824 26.3253C814.655 18.5308 808.714 12.554 801.015 8.41603L800.541 9.29688ZM817.942 26.7969L817.061 27.2701C821.044 34.6851 823.057 43.5963 823.057 54.0412H824.057H825.057C825.057 43.3402 822.993 34.0886 818.823 26.3237L817.942 26.7969ZM824.057 54.0412H823.057C823.057 64.5196 821.043 73.4647 817.06 80.9134L817.942 81.3849L818.824 81.8565C822.994 74.059 825.057 64.7749 825.057 54.0412H824.057ZM817.942 81.3849L817.058 80.9163C813.106 88.367 807.463 94.0734 800.114 98.0554L800.591 98.9347L801.067 99.8139C808.766 95.6425 814.69 89.649 818.825 81.8535L817.942 81.3849ZM800.591 98.9347L800.118 98.0538C792.767 102.004 784.004 104 773.794 104V105V106C784.266 106 793.367 103.952 801.064 99.8155L800.591 98.9347ZM760.768 84.0199V85.0199H772.849V84.0199V83.0199H760.768V84.0199ZM772.849 84.0199V85.0199C778.658 85.0199 783.64 84.041 787.755 82.0353L787.317 81.1364L786.879 80.2374C783.106 82.0765 778.442 83.0199 772.849 83.0199V84.0199ZM787.317 81.1364L787.758 82.0338C791.959 79.9681 795.114 76.6237 797.223 72.0601L796.315 71.6406L795.408 71.2211C793.473 75.4075 790.629 78.3937 786.876 80.239L787.317 81.1364ZM796.315 71.6406L797.222 72.0631C799.362 67.4729 800.398 61.4448 800.398 54.0412H799.398H798.398C798.398 61.2872 797.379 66.992 795.409 71.2181L796.315 71.6406ZM799.398 54.0412H800.398C800.398 46.6388 799.362 40.6406 797.219 36.1134L796.315 36.5412L795.411 36.969C797.379 41.1255 798.398 46.7939 798.398 54.0412H799.398ZM796.315 36.5412L797.22 36.1161C795.077 31.5518 791.886 28.2243 787.65 26.1934L787.217 27.0952L786.785 27.9969C790.569 29.8108 793.444 32.7806 795.41 36.9663L796.315 36.5412ZM787.217 27.0952L787.659 26.1978C783.508 24.1569 778.441 23.1619 772.501 23.1619V24.1619V25.1619C778.228 25.1619 782.972 26.1224 786.776 27.9926L787.217 27.0952ZM772.501 24.1619V23.1619H760.768V24.1619V25.1619H772.501V24.1619ZM760.768 24.1619H759.768V84.0199H760.768H761.768V24.1619H760.768Z" fill="white" mask="url(#path-1-outside-1_114_2)"/>
</svg>
