<svg width="696" height="106" viewBox="0 0 696 106" fill="none" xmlns="http://www.w3.org/2000/svg">
<mask id="path-1-outside-1_114_5" maskUnits="userSpaceOnUse" x="0" y="0" width="696" height="106" fill="black">
<rect fill="white" width="696" height="106"/>
<path d="M26.3153 1.18182V103H1.70597V1.18182H26.3153ZM128.419 1.18182V103H107.539L67.0202 44.2358H66.3739V103H41.7646V1.18182H62.9435L103.015 59.8466H103.86V1.18182H128.419ZM140.562 21.1676V1.18182H226.621V21.1676H195.747V103H171.486V21.1676H140.562ZM300.238 1.18182H324.797V66.8565C324.797 74.4465 322.991 81.0587 319.378 86.6932C315.766 92.2945 310.728 96.6364 304.265 99.7188C297.801 102.768 290.294 104.293 281.743 104.293C273.093 104.293 265.536 102.768 259.073 99.7188C252.61 96.6364 247.588 92.2945 244.009 86.6932C240.429 81.0587 238.64 74.4465 238.64 66.8565V1.18182H263.249V64.7188C263.249 68.232 264.011 71.3641 265.536 74.1151C267.094 76.866 269.265 79.0204 272.049 80.5781C274.833 82.1359 278.064 82.9148 281.743 82.9148C285.422 82.9148 288.637 82.1359 291.388 80.5781C294.172 79.0204 296.343 76.866 297.901 74.1151C299.459 71.3641 300.238 68.232 300.238 64.7188V1.18182ZM364.831 1.18182V103H340.222V1.18182H364.831ZM376.949 21.1676V1.18182H463.007V21.1676H432.134V103H407.873V21.1676H376.949ZM499.636 1.18182V103H475.026V1.18182H499.636ZM538.203 1.18182L560.973 75.7557H561.818L584.588 1.18182H612.13L577.777 103H545.014L510.66 1.18182H538.203ZM623.093 103V1.18182H694.087V21.1676H647.702V42.0483H690.458V62.0838H647.702V83.0142H694.087V103H623.093Z"/>
</mask>
<path d="M26.3153 1.18182H27.3153V0.181815H26.3153V1.18182ZM26.3153 103V104H27.3153V103H26.3153ZM1.70597 103H0.705966V104H1.70597V103ZM1.70597 1.18182V0.181815H0.705966V1.18182H1.70597ZM26.3153 1.18182H25.3153V103H26.3153H27.3153V1.18182H26.3153ZM26.3153 103V102H1.70597V103V104H26.3153V103ZM1.70597 103H2.70597V1.18182H1.70597H0.705966V103H1.70597ZM1.70597 1.18182V2.18182H26.3153V1.18182V0.181815H1.70597V1.18182ZM128.419 1.18182H129.419V0.181815H128.419V1.18182ZM128.419 103V104H129.419V103H128.419ZM107.539 103L106.715 103.568L107.014 104H107.539V103ZM67.0202 44.2358L67.8435 43.6681L67.5454 43.2358H67.0202V44.2358ZM66.3739 44.2358V43.2358H65.3739V44.2358H66.3739ZM66.3739 103V104H67.3739V103H66.3739ZM41.7646 103H40.7646V104H41.7646V103ZM41.7646 1.18182V0.181815H40.7646V1.18182H41.7646ZM62.9435 1.18182L63.7693 0.617784L63.4715 0.181815H62.9435V1.18182ZM103.015 59.8466L102.189 60.4106L102.487 60.8466H103.015V59.8466ZM103.86 59.8466V60.8466H104.86V59.8466H103.86ZM103.86 1.18182V0.181815H102.86V1.18182H103.86ZM128.419 1.18182H127.419V103H128.419H129.419V1.18182H128.419ZM128.419 103V102H107.539V103V104H128.419V103ZM107.539 103L108.362 102.432L67.8435 43.6681L67.0202 44.2358L66.197 44.8034L106.715 103.568L107.539 103ZM67.0202 44.2358V43.2358H66.3739V44.2358V45.2358H67.0202V44.2358ZM66.3739 44.2358H65.3739V103H66.3739H67.3739V44.2358H66.3739ZM66.3739 103V102H41.7646V103V104H66.3739V103ZM41.7646 103H42.7646V1.18182H41.7646H40.7646V103H41.7646ZM41.7646 1.18182V2.18182H62.9435V1.18182V0.181815H41.7646V1.18182ZM62.9435 1.18182L62.1178 1.74585L102.189 60.4106L103.015 59.8466L103.84 59.2826L63.7693 0.617784L62.9435 1.18182ZM103.015 59.8466V60.8466H103.86V59.8466V58.8466H103.015V59.8466ZM103.86 59.8466H104.86V1.18182H103.86H102.86V59.8466H103.86ZM103.86 1.18182V2.18182H128.419V1.18182V0.181815H103.86V1.18182ZM140.562 21.1676H139.562V22.1676H140.562V21.1676ZM140.562 1.18182V0.181815H139.562V1.18182H140.562ZM226.621 1.18182H227.621V0.181815H226.621V1.18182ZM226.621 21.1676V22.1676H227.621V21.1676H226.621ZM195.747 21.1676V20.1676H194.747V21.1676H195.747ZM195.747 103V104H196.747V103H195.747ZM171.486 103H170.486V104H171.486V103ZM171.486 21.1676H172.486V20.1676H171.486V21.1676ZM140.562 21.1676H141.562V1.18182H140.562H139.562V21.1676H140.562ZM140.562 1.18182V2.18182H226.621V1.18182V0.181815H140.562V1.18182ZM226.621 1.18182H225.621V21.1676H226.621H227.621V1.18182H226.621ZM226.621 21.1676V20.1676H195.747V21.1676V22.1676H226.621V21.1676ZM195.747 21.1676H194.747V103H195.747H196.747V21.1676H195.747ZM195.747 103V102H171.486V103V104H195.747V103ZM171.486 103H172.486V21.1676H171.486H170.486V103H171.486ZM171.486 21.1676V20.1676H140.562V21.1676V22.1676H171.486V21.1676ZM300.238 1.18182V0.181815H299.238V1.18182H300.238ZM324.797 1.18182H325.797V0.181815H324.797V1.18182ZM319.378 86.6932L320.219 87.2352L320.22 87.2329L319.378 86.6932ZM304.265 99.7188L304.691 100.623L304.695 100.621L304.265 99.7188ZM259.073 99.7188L258.642 100.621L258.646 100.623L259.073 99.7188ZM244.009 86.6932L243.165 87.2294L243.166 87.2317L244.009 86.6932ZM238.64 1.18182V0.181815H237.64V1.18182H238.64ZM263.249 1.18182H264.249V0.181815H263.249V1.18182ZM265.536 74.1151L264.661 74.5998L264.666 74.6078L265.536 74.1151ZM272.049 80.5781L272.537 79.7054L272.537 79.7054L272.049 80.5781ZM291.388 80.5781L290.9 79.7054L290.895 79.708L291.388 80.5781ZM300.238 1.18182V2.18182H324.797V1.18182V0.181815H300.238V1.18182ZM324.797 1.18182H323.797V66.8565H324.797H325.797V1.18182H324.797ZM324.797 66.8565H323.797C323.797 74.2815 322.032 80.7009 318.536 86.1534L319.378 86.6932L320.22 87.2329C323.949 81.4165 325.797 74.6115 325.797 66.8565H324.797ZM319.378 86.6932L318.538 86.1512C315.033 91.585 310.143 95.8074 303.834 98.8161L304.265 99.7188L304.695 100.621C311.313 97.4653 316.498 93.004 320.219 87.2352L319.378 86.6932ZM304.265 99.7188L303.838 98.8144C297.532 101.789 290.175 103.293 281.743 103.293V104.293V105.293C290.413 105.293 298.071 103.747 304.691 100.623L304.265 99.7188ZM281.743 104.293V103.293C273.21 103.293 265.804 101.789 259.499 98.8144L259.073 99.7188L258.646 100.623C265.268 103.747 272.976 105.293 281.743 105.293V104.293ZM259.073 99.7188L259.503 98.8161C253.195 95.8078 248.323 91.5863 244.852 86.1547L244.009 86.6932L243.166 87.2317C246.854 93.0027 252.024 97.465 258.642 100.621L259.073 99.7188ZM244.009 86.6932L244.853 86.1569C241.389 80.7039 239.64 74.2833 239.64 66.8565H238.64H237.64C237.64 74.6097 239.47 81.4135 243.165 87.2294L244.009 86.6932ZM238.64 66.8565H239.64V1.18182H238.64H237.64V66.8565H238.64ZM238.64 1.18182V2.18182H263.249V1.18182V0.181815H238.64V1.18182ZM263.249 1.18182H262.249V64.7188H263.249H264.249V1.18182H263.249ZM263.249 64.7188H262.249C262.249 68.3814 263.045 71.6838 264.661 74.5998L265.536 74.1151L266.411 73.6303C264.977 71.0444 264.249 68.0826 264.249 64.7188H263.249ZM265.536 74.1151L264.666 74.6078C266.314 77.5195 268.618 79.8046 271.56 81.4508L272.049 80.5781L272.537 79.7054C269.911 78.2361 267.873 76.2125 266.406 73.6223L265.536 74.1151ZM272.049 80.5781L271.56 81.4508C274.515 83.1041 277.92 83.9148 281.743 83.9148V82.9148V81.9148C278.209 81.9148 275.15 81.1677 272.537 79.7054L272.049 80.5781ZM281.743 82.9148V83.9148C285.566 83.9148 288.957 83.1042 291.881 81.4483L291.388 80.5781L290.895 79.708C288.318 81.1676 285.278 81.9148 281.743 81.9148V82.9148ZM291.388 80.5781L291.876 81.4508C294.819 79.8046 297.122 77.5195 298.771 74.6078L297.901 74.1151L297.031 73.6223C295.564 76.2125 293.526 78.2361 290.9 79.7054L291.388 80.5781ZM297.901 74.1151L298.771 74.6078C300.423 71.6903 301.238 68.3851 301.238 64.7188H300.238H299.238C299.238 68.079 298.494 71.0379 297.031 73.6223L297.901 74.1151ZM300.238 64.7188H301.238V1.18182H300.238H299.238V64.7188H300.238ZM364.831 1.18182H365.831V0.181815H364.831V1.18182ZM364.831 103V104H365.831V103H364.831ZM340.222 103H339.222V104H340.222V103ZM340.222 1.18182V0.181815H339.222V1.18182H340.222ZM364.831 1.18182H363.831V103H364.831H365.831V1.18182H364.831ZM364.831 103V102H340.222V103V104H364.831V103ZM340.222 103H341.222V1.18182H340.222H339.222V103H340.222ZM340.222 1.18182V2.18182H364.831V1.18182V0.181815H340.222V1.18182ZM376.949 21.1676H375.949V22.1676H376.949V21.1676ZM376.949 1.18182V0.181815H375.949V1.18182H376.949ZM463.007 1.18182H464.007V0.181815H463.007V1.18182ZM463.007 21.1676V22.1676H464.007V21.1676H463.007ZM432.134 21.1676V20.1676H431.134V21.1676H432.134ZM432.134 103V104H433.134V103H432.134ZM407.873 103H406.873V104H407.873V103ZM407.873 21.1676H408.873V20.1676H407.873V21.1676ZM376.949 21.1676H377.949V1.18182H376.949H375.949V21.1676H376.949ZM376.949 1.18182V2.18182H463.007V1.18182V0.181815H376.949V1.18182ZM463.007 1.18182H462.007V21.1676H463.007H464.007V1.18182H463.007ZM463.007 21.1676V20.1676H432.134V21.1676V22.1676H463.007V21.1676ZM432.134 21.1676H431.134V103H432.134H433.134V21.1676H432.134ZM432.134 103V102H407.873V103V104H432.134V103ZM407.873 103H408.873V21.1676H407.873H406.873V103H407.873ZM407.873 21.1676V20.1676H376.949V21.1676V22.1676H407.873V21.1676ZM499.636 1.18182H500.636V0.181815H499.636V1.18182ZM499.636 103V104H500.636V103H499.636ZM475.026 103H474.026V104H475.026V103ZM475.026 1.18182V0.181815H474.026V1.18182H475.026ZM499.636 1.18182H498.636V103H499.636H500.636V1.18182H499.636ZM499.636 103V102H475.026V103V104H499.636V103ZM475.026 103H476.026V1.18182H475.026H474.026V103H475.026ZM475.026 1.18182V2.18182H499.636V1.18182V0.181815H475.026V1.18182ZM538.203 1.18182L539.159 0.889791L538.943 0.181815H538.203V1.18182ZM560.973 75.7557L560.016 76.0477L560.232 76.7557H560.973V75.7557ZM561.818 75.7557V76.7557H562.558L562.774 76.0477L561.818 75.7557ZM584.588 1.18182V0.181815H583.847L583.631 0.889791L584.588 1.18182ZM612.13 1.18182L613.078 1.50151L613.523 0.181815H612.13V1.18182ZM577.777 103V104H578.495L578.724 103.32L577.777 103ZM545.014 103L544.066 103.32L544.296 104H545.014V103ZM510.66 1.18182V0.181815H509.267L509.713 1.50151L510.66 1.18182ZM538.203 1.18182L537.246 1.47384L560.016 76.0477L560.973 75.7557L561.929 75.4637L539.159 0.889791L538.203 1.18182ZM560.973 75.7557V76.7557H561.818V75.7557V74.7557H560.973V75.7557ZM561.818 75.7557L562.774 76.0477L585.544 1.47384L584.588 1.18182L583.631 0.889791L560.861 75.4637L561.818 75.7557ZM584.588 1.18182V2.18182H612.13V1.18182V0.181815H584.588V1.18182ZM612.13 1.18182L611.183 0.86212L576.829 102.68L577.777 103L578.724 103.32L613.078 1.50151L612.13 1.18182ZM577.777 103V102H545.014V103V104H577.777V103ZM545.014 103L545.961 102.68L511.608 0.86212L510.66 1.18182L509.713 1.50151L544.066 103.32L545.014 103ZM510.66 1.18182V2.18182H538.203V1.18182V0.181815H510.66V1.18182ZM623.093 103H622.093V104H623.093V103ZM623.093 1.18182V0.181815H622.093V1.18182H623.093ZM694.087 1.18182H695.087V0.181815H694.087V1.18182ZM694.087 21.1676V22.1676H695.087V21.1676H694.087ZM647.702 21.1676V20.1676H646.702V21.1676H647.702ZM647.702 42.0483H646.702V43.0483H647.702V42.0483ZM690.458 42.0483H691.458V41.0483H690.458V42.0483ZM690.458 62.0838V63.0838H691.458V62.0838H690.458ZM647.702 62.0838V61.0838H646.702V62.0838H647.702ZM647.702 83.0142H646.702V84.0142H647.702V83.0142ZM694.087 83.0142H695.087V82.0142H694.087V83.0142ZM694.087 103V104H695.087V103H694.087ZM623.093 103H624.093V1.18182H623.093H622.093V103H623.093ZM623.093 1.18182V2.18182H694.087V1.18182V0.181815H623.093V1.18182ZM694.087 1.18182H693.087V21.1676H694.087H695.087V1.18182H694.087ZM694.087 21.1676V20.1676H647.702V21.1676V22.1676H694.087V21.1676ZM647.702 21.1676H646.702V42.0483H647.702H648.702V21.1676H647.702ZM647.702 42.0483V43.0483H690.458V42.0483V41.0483H647.702V42.0483ZM690.458 42.0483H689.458V62.0838H690.458H691.458V42.0483H690.458ZM690.458 62.0838V61.0838H647.702V62.0838V63.0838H690.458V62.0838ZM647.702 62.0838H646.702V83.0142H647.702H648.702V62.0838H647.702ZM647.702 83.0142V84.0142H694.087V83.0142V82.0142H647.702V83.0142ZM694.087 83.0142H693.087V103H694.087H695.087V83.0142H694.087ZM694.087 103V102H623.093V103V104H694.087V103Z" fill="white" mask="url(#path-1-outside-1_114_5)"/>
</svg>
