<svg width="699" height="104" viewBox="0 0 699 104" fill="none" xmlns="http://www.w3.org/2000/svg">
<mask id="path-1-outside-1_114_3" maskUnits="userSpaceOnUse" x="0" y="0" width="699" height="104" fill="black">
<rect fill="white" width="699" height="104"/>
<path d="M1.70597 1.18182H32.1818L58.0341 64.2216H59.2273L85.0795 1.18182H115.555V103H91.5923V40.4574H90.7472L66.2869 102.354H50.9744L26.5142 40.1094H25.669V103H1.70597V1.18182ZM152.929 103H126.48L160.834 1.18182H193.597L227.951 103H201.502L177.588 26.8352H176.793L152.929 103ZM149.4 62.929H204.684V81.6222H149.4V62.929ZM263.522 1.18182V103H238.913V1.18182H263.522ZM365.626 1.18182V103H344.746L304.227 44.2358H303.581V103H278.972V1.18182H300.151L340.222 59.8466H341.067V1.18182H365.626ZM377.77 21.1676V1.18182H463.828V21.1676H432.954V103H408.693V21.1676H377.77ZM485.156 103H458.707L493.061 1.18182H525.824L560.177 103H533.728L509.815 26.8352H509.02L485.156 103ZM481.626 62.929H536.91V81.6222H481.626V62.929ZM595.749 1.18182V103H571.14V1.18182H595.749ZM697.853 1.18182V103H676.972L636.454 44.2358H635.808V103H611.198V1.18182H632.377L672.448 59.8466H673.293V1.18182H697.853Z"/>
</mask>
<path d="M1.70597 1.18182V0.181815H0.705966V1.18182H1.70597ZM32.1818 1.18182L33.107 0.802387L32.8525 0.181815H32.1818V1.18182ZM58.0341 64.2216L57.1089 64.601L57.3634 65.2216H58.0341V64.2216ZM59.2273 64.2216V65.2216H59.898L60.1525 64.601L59.2273 64.2216ZM85.0795 1.18182V0.181815H84.4088L84.1543 0.802387L85.0795 1.18182ZM115.555 1.18182H116.555V0.181815H115.555V1.18182ZM115.555 103V104H116.555V103H115.555ZM91.5923 103H90.5923V104H91.5923V103ZM91.5923 40.4574H92.5923V39.4574H91.5923V40.4574ZM90.7472 40.4574V39.4574H90.0671L89.8172 40.0899L90.7472 40.4574ZM66.2869 102.354V103.354H66.967L67.2169 102.721L66.2869 102.354ZM50.9744 102.354L50.0437 102.719L50.293 103.354H50.9744V102.354ZM26.5142 40.1094L27.4449 39.7436L27.1957 39.1094H26.5142V40.1094ZM25.669 40.1094V39.1094H24.669V40.1094H25.669ZM25.669 103V104H26.669V103H25.669ZM1.70597 103H0.705966V104H1.70597V103ZM1.70597 1.18182V2.18182H32.1818V1.18182V0.181815H1.70597V1.18182ZM32.1818 1.18182L31.2566 1.56124L57.1089 64.601L58.0341 64.2216L58.9593 63.8422L33.107 0.802387L32.1818 1.18182ZM58.0341 64.2216V65.2216H59.2273V64.2216V63.2216H58.0341V64.2216ZM59.2273 64.2216L60.1525 64.601L86.0048 1.56124L85.0795 1.18182L84.1543 0.802387L58.3021 63.8422L59.2273 64.2216ZM85.0795 1.18182V2.18182H115.555V1.18182V0.181815H85.0795V1.18182ZM115.555 1.18182H114.555V103H115.555H116.555V1.18182H115.555ZM115.555 103V102H91.5923V103V104H115.555V103ZM91.5923 103H92.5923V40.4574H91.5923H90.5923V103H91.5923ZM91.5923 40.4574V39.4574H90.7472V40.4574V41.4574H91.5923V40.4574ZM90.7472 40.4574L89.8172 40.0899L65.3569 101.986L66.2869 102.354L67.2169 102.721L91.6772 40.8249L90.7472 40.4574ZM66.2869 102.354V101.354H50.9744V102.354V103.354H66.2869V102.354ZM50.9744 102.354L51.9052 101.988L27.4449 39.7436L26.5142 40.1094L25.5835 40.4751L50.0437 102.719L50.9744 102.354ZM26.5142 40.1094V39.1094H25.669V40.1094V41.1094H26.5142V40.1094ZM25.669 40.1094H24.669V103H25.669H26.669V40.1094H25.669ZM25.669 103V102H1.70597V103V104H25.669V103ZM1.70597 103H2.70597V1.18182H1.70597H0.705966V103H1.70597ZM152.929 103V104H153.664L153.884 103.299L152.929 103ZM126.48 103L125.533 102.68L125.088 104H126.48V103ZM160.834 1.18182V0.181815H160.116L159.887 0.86212L160.834 1.18182ZM193.597 1.18182L194.544 0.86212L194.315 0.181815H193.597V1.18182ZM227.951 103V104H229.343L228.898 102.68L227.951 103ZM201.502 103L200.548 103.3L200.768 104H201.502V103ZM177.588 26.8352L178.543 26.5357L178.323 25.8352H177.588V26.8352ZM176.793 26.8352V25.8352H176.058L175.839 26.5362L176.793 26.8352ZM149.4 62.929V61.929H148.4V62.929H149.4ZM204.684 62.929H205.684V61.929H204.684V62.929ZM204.684 81.6222V82.6222H205.684V81.6222H204.684ZM149.4 81.6222H148.4V82.6222H149.4V81.6222ZM152.929 103V102H126.48V103V104H152.929V103ZM126.48 103L127.428 103.32L161.782 1.50151L160.834 1.18182L159.887 0.86212L125.533 102.68L126.48 103ZM160.834 1.18182V2.18182H193.597V1.18182V0.181815H160.834V1.18182ZM193.597 1.18182L192.649 1.50151L227.003 103.32L227.951 103L228.898 102.68L194.544 0.86212L193.597 1.18182ZM227.951 103V102H201.502V103V104H227.951V103ZM201.502 103L202.456 102.7L178.543 26.5357L177.588 26.8352L176.634 27.1348L200.548 103.3L201.502 103ZM177.588 26.8352V25.8352H176.793V26.8352V27.8352H177.588V26.8352ZM176.793 26.8352L175.839 26.5362L151.975 102.701L152.929 103L153.884 103.299L177.747 27.1342L176.793 26.8352ZM149.4 62.929V63.929H204.684V62.929V61.929H149.4V62.929ZM204.684 62.929H203.684V81.6222H204.684H205.684V62.929H204.684ZM204.684 81.6222V80.6222H149.4V81.6222V82.6222H204.684V81.6222ZM149.4 81.6222H150.4V62.929H149.4H148.4V81.6222H149.4ZM263.522 1.18182H264.522V0.181815H263.522V1.18182ZM263.522 103V104H264.522V103H263.522ZM238.913 103H237.913V104H238.913V103ZM238.913 1.18182V0.181815H237.913V1.18182H238.913ZM263.522 1.18182H262.522V103H263.522H264.522V1.18182H263.522ZM263.522 103V102H238.913V103V104H263.522V103ZM238.913 103H239.913V1.18182H238.913H237.913V103H238.913ZM238.913 1.18182V2.18182H263.522V1.18182V0.181815H238.913V1.18182ZM365.626 1.18182H366.626V0.181815H365.626V1.18182ZM365.626 103V104H366.626V103H365.626ZM344.746 103L343.922 103.568L344.221 104H344.746V103ZM304.227 44.2358L305.051 43.6681L304.752 43.2358H304.227V44.2358ZM303.581 44.2358V43.2358H302.581V44.2358H303.581ZM303.581 103V104H304.581V103H303.581ZM278.972 103H277.972V104H278.972V103ZM278.972 1.18182V0.181815H277.972V1.18182H278.972ZM300.151 1.18182L300.976 0.617784L300.679 0.181815H300.151V1.18182ZM340.222 59.8466L339.396 60.4106L339.694 60.8466H340.222V59.8466ZM341.067 59.8466V60.8466H342.067V59.8466H341.067ZM341.067 1.18182V0.181815H340.067V1.18182H341.067ZM365.626 1.18182H364.626V103H365.626H366.626V1.18182H365.626ZM365.626 103V102H344.746V103V104H365.626V103ZM344.746 103L345.569 102.432L305.051 43.6681L304.227 44.2358L303.404 44.8034L343.922 103.568L344.746 103ZM304.227 44.2358V43.2358H303.581V44.2358V45.2358H304.227V44.2358ZM303.581 44.2358H302.581V103H303.581H304.581V44.2358H303.581ZM303.581 103V102H278.972V103V104H303.581V103ZM278.972 103H279.972V1.18182H278.972H277.972V103H278.972ZM278.972 1.18182V2.18182H300.151V1.18182V0.181815H278.972V1.18182ZM300.151 1.18182L299.325 1.74585L339.396 60.4106L340.222 59.8466L341.047 59.2826L300.976 0.617784L300.151 1.18182ZM340.222 59.8466V60.8466H341.067V59.8466V58.8466H340.222V59.8466ZM341.067 59.8466H342.067V1.18182H341.067H340.067V59.8466H341.067ZM341.067 1.18182V2.18182H365.626V1.18182V0.181815H341.067V1.18182ZM377.77 21.1676H376.77V22.1676H377.77V21.1676ZM377.77 1.18182V0.181815H376.77V1.18182H377.77ZM463.828 1.18182H464.828V0.181815H463.828V1.18182ZM463.828 21.1676V22.1676H464.828V21.1676H463.828ZM432.954 21.1676V20.1676H431.954V21.1676H432.954ZM432.954 103V104H433.954V103H432.954ZM408.693 103H407.693V104H408.693V103ZM408.693 21.1676H409.693V20.1676H408.693V21.1676ZM377.77 21.1676H378.77V1.18182H377.77H376.77V21.1676H377.77ZM377.77 1.18182V2.18182H463.828V1.18182V0.181815H377.77V1.18182ZM463.828 1.18182H462.828V21.1676H463.828H464.828V1.18182H463.828ZM463.828 21.1676V20.1676H432.954V21.1676V22.1676H463.828V21.1676ZM432.954 21.1676H431.954V103H432.954H433.954V21.1676H432.954ZM432.954 103V102H408.693V103V104H432.954V103ZM408.693 103H409.693V21.1676H408.693H407.693V103H408.693ZM408.693 21.1676V20.1676H377.77V21.1676V22.1676H408.693V21.1676ZM485.156 103V104H485.891L486.11 103.299L485.156 103ZM458.707 103L457.76 102.68L457.314 104H458.707V103ZM493.061 1.18182V0.181815H492.343L492.113 0.86212L493.061 1.18182ZM525.824 1.18182L526.771 0.86212L526.541 0.181815H525.824V1.18182ZM560.177 103V104H561.57L561.125 102.68L560.177 103ZM533.728 103L532.774 103.3L532.994 104H533.728V103ZM509.815 26.8352L510.769 26.5357L510.549 25.8352H509.815V26.8352ZM509.02 26.8352V25.8352H508.285L508.065 26.5362L509.02 26.8352ZM481.626 62.929V61.929H480.626V62.929H481.626ZM536.91 62.929H537.91V61.929H536.91V62.929ZM536.91 81.6222V82.6222H537.91V81.6222H536.91ZM481.626 81.6222H480.626V82.6222H481.626V81.6222ZM485.156 103V102H458.707V103V104H485.156V103ZM458.707 103L459.655 103.32L494.008 1.50151L493.061 1.18182L492.113 0.86212L457.76 102.68L458.707 103ZM493.061 1.18182V2.18182H525.824V1.18182V0.181815H493.061V1.18182ZM525.824 1.18182L524.876 1.50151L559.23 103.32L560.177 103L561.125 102.68L526.771 0.86212L525.824 1.18182ZM560.177 103V102H533.728V103V104H560.177V103ZM533.728 103L534.682 102.7L510.769 26.5357L509.815 26.8352L508.861 27.1348L532.774 103.3L533.728 103ZM509.815 26.8352V25.8352H509.02V26.8352V27.8352H509.815V26.8352ZM509.02 26.8352L508.065 26.5362L484.202 102.701L485.156 103L486.11 103.299L509.974 27.1342L509.02 26.8352ZM481.626 62.929V63.929H536.91V62.929V61.929H481.626V62.929ZM536.91 62.929H535.91V81.6222H536.91H537.91V62.929H536.91ZM536.91 81.6222V80.6222H481.626V81.6222V82.6222H536.91V81.6222ZM481.626 81.6222H482.626V62.929H481.626H480.626V81.6222H481.626ZM595.749 1.18182H596.749V0.181815H595.749V1.18182ZM595.749 103V104H596.749V103H595.749ZM571.14 103H570.14V104H571.14V103ZM571.14 1.18182V0.181815H570.14V1.18182H571.14ZM595.749 1.18182H594.749V103H595.749H596.749V1.18182H595.749ZM595.749 103V102H571.14V103V104H595.749V103ZM571.14 103H572.14V1.18182H571.14H570.14V103H571.14ZM571.14 1.18182V2.18182H595.749V1.18182V0.181815H571.14V1.18182ZM697.853 1.18182H698.853V0.181815H697.853V1.18182ZM697.853 103V104H698.853V103H697.853ZM676.972 103L676.149 103.568L676.447 104H676.972V103ZM636.454 44.2358L637.277 43.6681L636.979 43.2358H636.454V44.2358ZM635.808 44.2358V43.2358H634.808V44.2358H635.808ZM635.808 103V104H636.808V103H635.808ZM611.198 103H610.198V104H611.198V103ZM611.198 1.18182V0.181815H610.198V1.18182H611.198ZM632.377 1.18182L633.203 0.617784L632.905 0.181815H632.377V1.18182ZM672.448 59.8466L671.622 60.4106L671.92 60.8466H672.448V59.8466ZM673.293 59.8466V60.8466H674.293V59.8466H673.293ZM673.293 1.18182V0.181815H672.293V1.18182H673.293ZM697.853 1.18182H696.853V103H697.853H698.853V1.18182H697.853ZM697.853 103V102H676.972V103V104H697.853V103ZM676.972 103L677.796 102.432L637.277 43.6681L636.454 44.2358L635.631 44.8034L676.149 103.568L676.972 103ZM636.454 44.2358V43.2358H635.808V44.2358V45.2358H636.454V44.2358ZM635.808 44.2358H634.808V103H635.808H636.808V44.2358H635.808ZM635.808 103V102H611.198V103V104H635.808V103ZM611.198 103H612.198V1.18182H611.198H610.198V103H611.198ZM611.198 1.18182V2.18182H632.377V1.18182V0.181815H611.198V1.18182ZM632.377 1.18182L631.551 1.74585L671.622 60.4106L672.448 59.8466L673.274 59.2826L633.203 0.617784L632.377 1.18182ZM672.448 59.8466V60.8466H673.293V59.8466V58.8466H672.448V59.8466ZM673.293 59.8466H674.293V1.18182H673.293H672.293V59.8466H673.293ZM673.293 1.18182V2.18182H697.853V1.18182V0.181815H673.293V1.18182Z" fill="white" mask="url(#path-1-outside-1_114_3)"/>
</svg>
