<svg width="37" height="32" viewBox="0 0 37 32" fill="none" xmlns="http://www.w3.org/2000/svg">
<path d="M18.5144 24.8388H8.19001L6.08072 31.4643C6.02521 31.7181 5.80318 31.8872 5.5534 31.859H0.335697C0.0304054 31.859 -0.0528554 31.6899 0.0304058 31.3515L8.96711 5.21586C9.05037 4.93392 9.13363 4.62379 9.24465 4.28546C9.35566 3.69339 9.41117 3.07313 9.41117 2.45286C9.38342 2.31189 9.49443 2.17092 9.6332 2.14273H16.8214C17.0434 2.14273 17.1545 2.22731 17.1822 2.36828L27.3123 31.4079C27.3956 31.7181 27.3123 31.859 27.0348 31.859H21.2343C21.04 31.8872 20.8457 31.7463 20.7902 31.5489L18.5144 24.8388ZM9.79972 19.1154H16.8492C16.6827 18.5233 16.4606 17.8185 16.2108 17.0855C15.9611 16.3242 15.7113 15.5066 15.4615 14.6608C15.1839 13.7868 14.9342 12.941 14.6566 12.067C14.3791 11.193 14.1293 10.3753 13.9073 9.55771C13.6852 8.76828 13.491 8.03524 13.2967 7.35859H13.2412C12.9914 8.57093 12.6861 9.78326 12.2976 10.9956C11.8813 12.3489 11.4649 13.7586 11.0209 15.1683C10.6323 16.6062 10.216 17.9313 9.79972 19.1154ZM33.5014 7.07665C32.5855 7.10485 31.6974 6.73833 31.0313 6.08987C30.393 5.38502 30.06 4.45463 30.0877 3.49604C30.06 2.53745 30.4208 1.63524 31.0868 0.986784C31.7529 0.338326 32.6411 0 33.5569 0C34.6393 0 35.4719 0.338326 36.0825 0.986784C36.6931 1.66344 37.0261 2.56564 36.9984 3.49604C37.0261 4.45463 36.6931 5.38502 36.027 6.08987C35.3887 6.76652 34.445 7.13304 33.5014 7.07665ZM30.393 31.5489V9.83965C30.393 9.55771 30.504 9.44493 30.7538 9.44493H36.249C36.4988 9.44493 36.6098 9.5859 36.6098 9.83965V31.5489C36.6098 31.859 36.4988 32 36.249 32H30.8093C30.5318 32 30.393 31.8308 30.393 31.5489Z" fill="white"/>
</svg>
