<svg width="39" height="55" viewBox="0 0 39 55" fill="none" xmlns="http://www.w3.org/2000/svg">
<g clip-path="url(#clip0_25_8)">
<path d="M39 10.8088L35.447 50.5763L19.4761 55L3.54924 50.5825L0 10.8088H39Z" fill="#E0E1E0"/>
<path d="M32.4052 48.0439L35.4415 14.0608H19.5V51.6186L32.4052 48.0439Z" fill="white"/>
<path d="M8.13654 28.8123L8.57413 33.6903H19.5V28.8123H8.13654Z" fill="#121814"/>
<path d="M19.5 18.939H19.4831H7.25726L7.70109 23.8171H19.5V18.939Z" fill="#121814"/>
<path d="M19.4999 46.5566V41.4814L19.4785 41.4871L14.041 40.0201L13.6934 36.1296H11.0512H8.79224L9.47626 43.7889L19.4775 46.5629L19.4999 46.5566Z" fill="#121814"/>
<path d="M9.17834 0H15.0918V2.4707H11.6512V4.94141H15.0918V7.41211H9.17834V0Z" fill="white"/>
<path d="M16.2745 0H22.1879V2.14844H18.7474V2.57812H22.1879V7.51953H16.2745V5.26367H19.715V4.83398H16.2745V0Z" fill="white"/>
<path d="M23.3705 0H29.284V2.14844H25.8434V2.57812H29.284V7.51953H23.3705V5.26367H26.8111V4.83398H23.3705V0Z" fill="white"/>
<path d="M25.4952 33.6904L24.9285 40.0169L19.4831 41.4853V46.5604L29.4923 43.7888L29.5657 42.9646L30.713 30.1222L30.8321 28.8123L31.7136 18.939H19.4831V23.8171H26.3629L25.9186 28.8123H19.4831V33.6904H25.4952Z" fill="#1E2420"/>
</g>
<defs>
<clipPath id="clip0_25_8">
<rect width="39" height="55" fill="white"/>
</clipPath>
</defs>
</svg>
