<svg width="30" height="45" viewBox="0 0 30 45" fill="none" xmlns="http://www.w3.org/2000/svg">
<g clip-path="url(#clip0_26_66)">
<path d="M7.50149 45C11.6407 45 15 41.64 15 37.5V30H7.50149C3.36232 30 0.00299072 33.36 0.00299072 37.5C0.00299072 41.64 3.36232 45 7.50149 45Z" fill="white"/>
<path d="M0.00299072 22.5C0.00299072 18.36 3.36232 15 7.50149 15H15V30H7.50149C3.36232 30 0.00299072 26.64 0.00299072 22.5Z" fill="white"/>
<path d="M0.00299072 7.5C0.00299072 3.36 3.36232 0 7.50149 0H15V15H7.50149C3.36232 15 0.00299072 11.64 0.00299072 7.5Z" fill="white"/>
<path d="M15 0H22.4985C26.6377 0 29.997 3.36 29.997 7.5C29.997 11.64 26.6377 15 22.4985 15H15V0Z" fill="white"/>
<path d="M29.997 22.5C29.997 26.64 26.6377 30 22.4985 30C18.3593 30 15 26.64 15 22.5C15 18.36 18.3593 15 22.4985 15C26.6377 15 29.997 18.36 29.997 22.5Z" fill="white"/>
</g>
<defs>
<clipPath id="clip0_26_66">
<rect width="30" height="45" fill="white"/>
</clipPath>
</defs>
</svg>
