<svg width="60" height="60" viewBox="0 0 60 60" fill="none" xmlns="http://www.w3.org/2000/svg">
<path fill-rule="evenodd" clip-rule="evenodd" d="M30 3C14.53 3 2 15.6175 2 31.1956C2 43.6721 10.015 54.2102 21.145 57.9461C22.545 58.1928 23.07 57.347 23.07 56.6068C23.07 55.9372 23.035 53.7168 23.035 51.3554C16 52.6595 14.18 49.6284 13.62 48.0424C13.305 47.2318 11.94 44.7295 10.75 44.0598C9.77 43.5311 8.37 42.2271 10.715 42.1919C12.92 42.1566 14.495 44.236 15.02 45.0819C17.54 49.3465 21.565 48.1482 23.175 47.408C23.42 45.5753 24.155 44.3418 24.96 43.6369C18.73 42.932 12.22 40.5001 12.22 29.7153C12.22 26.649 13.305 24.1114 15.09 22.1377C14.81 21.4329 13.83 18.5428 15.37 14.6659C15.37 14.6659 17.715 13.9258 23.07 17.556C25.31 16.9216 27.69 16.6044 30.07 16.6044C32.45 16.6044 34.83 16.9216 37.07 17.556C42.425 13.8905 44.77 14.6659 44.77 14.6659C46.31 18.5428 45.33 21.4329 45.05 22.1377C46.835 24.1114 47.92 26.6138 47.92 29.7153C47.92 40.5354 41.375 42.932 35.145 43.6369C36.16 44.518 37.035 46.2097 37.035 48.8531C37.035 52.6242 37 55.6552 37 56.6068C37 57.347 37.525 58.2281 38.925 57.9461C49.985 54.2102 58 43.6369 58 31.1956C58 15.6175 45.47 3 30 3Z" fill="white"/>
</svg>
