<svg width="60" height="22" viewBox="0 0 60 22" fill="none" xmlns="http://www.w3.org/2000/svg">
<g clip-path="url(#clip0_26_60)">
<path d="M30.5469 6.34333C30.5435 6.44761 30.4996 6.54647 30.4245 6.619C30.3494 6.69153 30.249 6.73206 30.1445 6.732H25.9981C25.7264 6.732 25.4995 6.512 25.4995 6.24433C25.4995 5.03653 25.0808 4.4484 24.2245 4.4484C23.3683 4.4484 22.816 4.97347 22.7998 5.89087C22.7815 6.91387 23.3609 7.84373 25.0103 9.44093C27.1819 11.4752 28.0522 13.277 28.0103 15.6589C27.942 19.5103 25.3195 22 21.3289 22C19.2909 22 17.734 21.4559 16.6985 20.3823C15.6476 19.2918 15.1659 17.6917 15.2665 15.6266C15.2699 15.5222 15.3139 15.4232 15.3892 15.3507C15.4644 15.2781 15.565 15.2377 15.6696 15.2379H19.9585C20.0182 15.2389 20.077 15.2531 20.1306 15.2794C20.1842 15.3058 20.2312 15.3437 20.2684 15.3905C20.3008 15.4291 20.3245 15.4742 20.338 15.5228C20.3514 15.5714 20.3542 15.6223 20.3462 15.6721C20.2985 16.4171 20.4285 16.9737 20.7222 17.2817C20.9102 17.4812 21.1724 17.5824 21.4992 17.5824C22.2916 17.5824 22.7558 17.0236 22.7734 16.0497C22.7881 15.2079 22.5215 14.4701 21.0689 12.9778C19.1925 11.1474 17.51 9.25613 17.5622 6.28247C17.593 4.55767 18.2789 2.98027 19.4943 1.84067C20.7795 0.636533 22.5369 0 24.5771 0C26.6209 0.0146663 28.1697 0.596933 29.1809 1.73067C30.1386 2.805 30.5991 4.35673 30.5484 6.34333H30.5469Z" fill="white"/>
<path d="M43.3988 21.2755L43.426 0.791269C43.4268 0.739971 43.4173 0.689033 43.3981 0.641449C43.3789 0.593866 43.3503 0.550596 43.3141 0.514182C43.2779 0.477768 43.2348 0.448944 43.1873 0.429405C43.1398 0.409866 43.0889 0.400005 43.0375 0.400402H36.6204C36.4045 0.400402 36.3098 0.585936 36.2481 0.708402L26.9566 21.1501V21.1537L26.9529 21.1589C26.8501 21.4104 27.0454 21.6795 27.3179 21.6795H31.8035C32.0459 21.6795 32.2067 21.6062 32.2853 21.4537L33.1761 19.316C33.2855 19.0307 33.3061 19.0043 33.6175 19.0043H37.9034C38.2015 19.0043 38.2074 19.0102 38.203 19.3013L38.1068 21.2887C38.106 21.3399 38.1155 21.3908 38.1347 21.4383C38.1538 21.4859 38.1823 21.5291 38.2184 21.5655C38.2545 21.6019 38.2976 21.6307 38.345 21.6503C38.3924 21.6699 38.4432 21.6798 38.4946 21.6795H43.0265C43.0826 21.6802 43.1382 21.6686 43.1893 21.6456C43.2404 21.6225 43.2859 21.5886 43.3224 21.5461C43.354 21.5092 43.3772 21.4658 43.3904 21.4191C43.4035 21.3724 43.4064 21.3234 43.3988 21.2755ZM35.4601 14.4364C35.4262 14.4366 35.3924 14.4354 35.3587 14.4327C35.343 14.4314 35.3278 14.4267 35.3141 14.4189C35.3004 14.4111 35.2886 14.4004 35.2795 14.3875C35.2704 14.3746 35.2642 14.3599 35.2614 14.3444C35.2586 14.329 35.2592 14.313 35.2633 14.2978C35.2721 14.2685 35.2845 14.2281 35.3029 14.179L38.5166 6.23847C38.5455 6.16012 38.5788 6.08349 38.6165 6.00894C38.6686 5.90187 38.7318 5.89454 38.7516 5.97374C38.7685 6.03974 38.3829 14.1269 38.3829 14.1269C38.3528 14.4298 38.3389 14.4423 38.04 14.4672L35.463 14.4379H35.4571L35.4593 14.4364L35.4601 14.4364Z" fill="white"/>
<path d="M52.5404 0.400393H49.1336C48.9537 0.400393 48.7517 0.495727 48.7047 0.70986L43.9635 21.2652C43.9532 21.3115 43.9536 21.3596 43.9648 21.4058C43.976 21.452 43.9977 21.4949 44.0281 21.5314C44.0677 21.5779 44.1168 21.6152 44.1723 21.6407C44.2277 21.6663 44.288 21.6796 44.3491 21.6795H48.6071C48.8362 21.6795 48.9926 21.5673 49.0352 21.373L49.5522 19.0432C49.5889 18.8613 49.5258 18.7205 49.3627 18.6355C49.2862 18.5961 49.2099 18.5565 49.1336 18.5167L48.3955 18.1331L47.6612 17.7503L47.3769 17.6029C47.3538 17.5914 47.3344 17.5736 47.3211 17.5515C47.3077 17.5295 47.3008 17.5041 47.3013 17.4783C47.3023 17.4401 47.3182 17.4038 47.3456 17.3772C47.3731 17.3506 47.4099 17.3358 47.4482 17.336L49.7813 17.3463C50.479 17.3499 51.1774 17.3008 51.8641 17.1747C56.6964 16.2837 59.9056 12.419 59.9982 7.16026C60.0775 2.67226 57.5688 0.398193 52.5441 0.398193L52.5404 0.400393ZM51.3808 12.6324H51.2898C51.0849 12.6324 51.0489 12.6104 51.043 12.6031C51.0393 12.5979 52.3884 6.68286 52.3892 6.67479C52.4237 6.50393 52.4222 6.40566 52.3165 6.34773C52.1813 6.27293 50.2117 5.23599 50.2117 5.23599C50.1888 5.22397 50.1697 5.20578 50.1566 5.18349C50.1435 5.1612 50.1369 5.1357 50.1375 5.10986C50.1385 5.07218 50.1541 5.03637 50.1812 5.01007C50.2082 4.98376 50.2445 4.96905 50.2822 4.96906H53.3967C54.3661 4.99839 54.9066 5.86446 54.8809 7.34359C54.8361 9.90366 53.6171 12.5429 51.3808 12.6331V12.6324Z" fill="white"/>
<path d="M17.4861 10.3253V10.3348L16.6966 13.7565C16.654 13.9501 16.4601 14.0917 16.2369 14.0917H15.2829C15.2485 14.0918 15.2151 14.103 15.1876 14.1236C15.1601 14.1442 15.1399 14.1732 15.1302 14.2061C14.2504 17.1863 13.0592 19.2345 11.4861 20.4643C10.1481 21.5115 8.49862 21.9999 6.29471 21.9999C4.3148 21.9999 2.97968 21.3641 1.84725 20.1087C0.350561 18.4499 -0.267795 15.7336 0.106744 12.4615C0.782382 6.31834 3.97331 0.119471 10.1172 0.119471C11.9862 0.103337 13.4535 0.679004 14.4743 1.82814C15.5539 3.044 16.1018 4.8744 16.1047 7.27094C16.102 7.37599 16.0584 7.47585 15.9831 7.54927C15.9078 7.62268 15.8068 7.66385 15.7015 7.664H11.1997C11.1208 7.66159 11.0459 7.62907 10.9903 7.57314C10.9347 7.51721 10.9026 7.44212 10.9008 7.36334C10.8641 5.706 10.372 4.89934 9.39384 4.89934C7.66802 4.89934 6.65016 7.23867 6.11038 8.5352C5.35616 10.3465 4.97208 12.3141 5.04772 14.2735C5.0837 15.1858 5.23058 16.4684 6.0979 17.0001C6.8668 17.4709 7.96398 17.1585 8.6286 16.6371C9.29249 16.1149 9.82713 15.2122 10.0519 14.3887C10.0834 14.2743 10.0856 14.1855 10.0555 14.1459C10.0239 14.1049 9.93655 14.0953 9.86972 14.0953H8.71379C8.65261 14.0955 8.59212 14.0824 8.53656 14.0568C8.481 14.0312 8.43171 13.9938 8.39213 13.9472C8.36176 13.9108 8.3402 13.868 8.32912 13.8219C8.31804 13.7759 8.31773 13.7279 8.32824 13.6817L9.11844 10.2541C9.15736 10.0789 9.31673 9.94614 9.51281 9.92267V9.91387H17.0991C17.1167 9.91387 17.135 9.91387 17.1519 9.91754C17.3487 9.9432 17.4875 10.1258 17.4839 10.3253H17.4861Z" fill="white"/>
</g>
<defs>
<clipPath id="clip0_26_60">
<rect width="60" height="22" fill="white"/>
</clipPath>
</defs>
</svg>
