<svg width="55" height="55" viewBox="0 0 55 55" fill="none" xmlns="http://www.w3.org/2000/svg">
<path d="M11.6445 0H14.1152V2.44922H16.3926V0H18.8633V7.41211H16.3926V4.94141H14.1367V7.41211H11.6445M22.1289 2.4707H19.9482V0H26.791V2.4707H24.5996V7.41211H22.1289M27.876 0H30.4648L32.0547 2.61035L33.6445 0H36.2334V7.41211H33.7627V3.73828L32.0332 6.40234L30.3037 3.73828V7.41211H27.876M37.458 0H39.9287V4.96289H43.4307V7.41211H37.458" fill="white"/>
<path d="M11.5586 50.5957L8.01367 10.8066H46.9863L43.4414 50.5742L27.4678 55" fill="#E0E1E0"/>
<path d="M27.5 51.6162V14.0723H43.4307L40.3906 48.0176" fill="white"/>
<path d="M15.2539 18.9385H27.5V23.8154H20.6035L21.0547 28.8105H27.5V33.6768H16.5859M16.8008 36.126H21.6992L22.043 40.0254L27.5 41.4863V46.5781L17.4883 43.7852" fill="#121814"/>
<path d="M39.7031 18.9385H27.4785V23.8154H39.252M38.8115 28.8105H27.4785V33.6875H33.4941L32.9248 40.0254L27.4785 41.4863V46.5566L37.4687 43.7852" fill="#1E2420"/>
</svg>
