<svg width="65" height="65" viewBox="0 0 65 65" fill="none" xmlns="http://www.w3.org/2000/svg">
<path d="M43.5023 50.594C44.8067 52.7239 46.5038 54.2895 49.5054 54.2895C52.0269 54.2895 53.6377 53.0292 53.6377 51.2879C53.6377 49.2012 51.9827 48.4621 49.2073 47.2481L47.686 46.5954C43.2946 44.7245 40.3773 42.3808 40.3773 37.4262C40.3773 32.8621 43.8548 29.3877 49.2895 29.3877C53.1587 29.3877 55.9403 30.7343 57.9448 34.2601L53.206 37.3028C52.1626 35.432 51.037 34.6949 49.2895 34.6949C47.5071 34.6949 46.3774 35.8257 46.3774 37.3028C46.3774 39.1284 47.5081 39.8675 50.1191 40.9982L51.6404 41.6499C56.8109 43.8672 59.7303 46.1276 59.7303 51.2098C59.7303 56.6887 55.4263 59.6902 49.6462 59.6902C43.9946 59.6902 40.3434 56.997 38.5569 53.4671L43.5023 50.594ZM22.005 51.1214C22.961 52.8175 23.8306 54.2514 25.9215 54.2514C27.9208 54.2514 29.1821 53.4692 29.1821 50.4275V29.7351H35.2675V50.5097C35.2675 56.811 31.5731 59.6789 26.1805 59.6789C21.3081 59.6789 18.4864 57.1574 17.0514 54.1204L22.005 51.1214Z" fill="white"/>
</svg>
