<svg width="60" height="23" viewBox="0 0 60 23" fill="none" xmlns="http://www.w3.org/2000/svg">
<g clip-path="url(#clip0_17_4)">
<path d="M22.655 0L10.8 22.9796H0L9.2575 5.037C10.6925 2.254 14.2725 0 17.255 0H22.655ZM49.14 5.74489C49.14 2.57089 51.5575 0 54.54 0C57.5225 0 59.94 2.57089 59.94 5.74489C59.94 8.91889 57.5225 11.4898 54.54 11.4898C51.5575 11.4898 49.14 8.91889 49.14 5.74489ZM24.68 0H35.48L23.625 22.9796H12.825L24.68 0ZM37.435 0H48.235L38.98 17.9426C37.545 20.7256 33.9625 22.9796 30.98 22.9796H25.58L37.435 0Z" fill="white"/>
</g>
<defs>
<clipPath id="clip0_17_4">
<rect width="60" height="23" fill="white"/>
</clipPath>
</defs>
</svg>
