<svg width="43" height="32" viewBox="0 0 43 32" fill="none" xmlns="http://www.w3.org/2000/svg">
<path d="M0 30.9927V0.503705C0 0.296297 0.0881355 0.177778 0.293785 0.177778C0.79322 0.177778 1.26328 0.177778 1.93898 0.148148C2.64407 0.118519 3.37853 0.118519 4.17175 0.0888889C4.96497 0.0592592 5.81695 0.0592589 6.72768 0.0296292C7.63841 -4.52555e-07 8.51977 0 9.40112 0C11.8102 0 13.8079 0.296297 15.4531 0.91852C16.922 1.42223 18.2734 2.25186 19.3898 3.34816C20.3299 4.29631 21.0644 5.45186 21.5345 6.72594C21.9751 7.97039 22.2102 9.24446 22.2102 10.5778C22.2102 13.126 21.6226 15.2297 20.4474 16.8889C19.2723 18.5482 17.6271 19.7926 15.7175 20.5037C13.7198 21.2445 11.5164 21.5112 9.10734 21.5112C8.40225 21.5112 7.9322 21.5112 7.63841 21.4815C7.34463 21.4519 6.93333 21.4519 6.37514 21.4519V30.963C6.40451 31.1704 6.25762 31.3482 6.05197 31.3778C6.02259 31.3778 5.99322 31.3778 5.93446 31.3778H0.352542C0.117514 31.3778 0 31.2593 0 30.9927ZM6.40452 5.89631V15.8519C6.81582 15.8815 7.19773 15.9111 7.55028 15.9111H9.10734C10.2531 15.9111 11.3989 15.7334 12.4859 15.3778C13.426 15.1111 14.2486 14.5482 14.8949 13.8074C15.5119 13.0667 15.8056 12.0593 15.8056 10.7556C15.835 9.83706 15.6 8.91854 15.1299 8.11854C14.6305 7.34817 13.9254 6.75557 13.0734 6.42964C11.9864 5.9852 10.8113 5.80742 9.60677 5.83705C8.84293 5.83705 8.16723 5.83705 7.60904 5.86668C7.02146 5.83705 6.61017 5.86668 6.40452 5.89631Z" fill="white"/>
<path d="M40.5423 14.0445C39.661 13.5704 38.7209 13.2445 37.722 13.037C36.635 12.8 35.548 12.6519 34.4316 12.6519C33.844 12.6222 33.2271 12.7111 32.6689 12.8593C32.287 12.9482 31.9638 13.1556 31.7582 13.4519C31.6113 13.6889 31.5231 13.9852 31.5231 14.2519C31.5231 14.5185 31.6407 14.7852 31.8169 15.0222C32.0813 15.3482 32.4339 15.6148 32.8158 15.8222C33.4915 16.1778 34.1966 16.5037 34.9017 16.8C36.4881 17.3334 38.0158 18.0741 39.426 18.963C40.3955 19.5852 41.1887 20.4148 41.7469 21.4223C42.2169 22.3704 42.452 23.4074 42.4226 24.4741C42.452 25.8667 42.0407 27.2593 41.2768 28.4149C40.4542 29.6 39.3085 30.5186 37.9864 31.0519C36.5469 31.6741 34.7842 32.0001 32.6689 32.0001C31.3175 32.0001 29.9955 31.8815 28.6734 31.6149C27.6452 31.4371 26.6169 31.1112 25.6768 30.6667C25.4712 30.5482 25.3243 30.3408 25.3537 30.1038V24.9482C25.3537 24.8593 25.383 24.7408 25.4712 24.6815C25.5593 24.6223 25.6474 24.6519 25.7356 24.7111C26.8813 25.3926 28.0859 25.8667 29.3785 26.163C30.4949 26.4593 31.67 26.6074 32.8452 26.6074C33.9616 26.6074 34.7548 26.4593 35.2836 26.1926C35.7537 25.9852 36.0768 25.4815 36.0768 24.9482C36.0768 24.5334 35.8418 24.1482 35.3717 23.763C34.9017 23.3778 33.9322 22.9334 32.4926 22.3704C30.9943 21.8371 29.6135 21.126 28.3209 20.2371C27.4102 19.5852 26.6463 18.7259 26.0881 17.7185C25.6181 16.7704 25.383 15.7333 25.4124 14.6963C25.4124 13.4222 25.765 12.2074 26.4113 11.1111C27.1457 9.92593 28.2327 8.97778 29.496 8.38518C30.8768 7.67407 32.6102 7.34814 34.696 7.34814C35.9005 7.34814 37.1344 7.43703 38.339 7.61481C39.2203 7.73333 40.0723 7.97037 40.8655 8.29629C40.983 8.32592 41.1005 8.44444 41.1593 8.56296C41.1887 8.68148 41.2181 8.8 41.2181 8.91852V13.7482C41.2181 13.8667 41.1593 13.9852 41.0712 14.0445C40.8068 14.1037 40.6599 14.1037 40.5423 14.0445Z" fill="white"/>
</svg>
