<svg width="62" height="55" viewBox="0 0 62 55" fill="none" xmlns="http://www.w3.org/2000/svg">
<g clip-path="url(#clip0_26_48)">
<path d="M31 33.0099C34.052 33.0099 36.5261 30.543 36.5261 27.5C36.5261 24.4571 34.052 21.9902 31 21.9902C27.9481 21.9902 25.4739 24.4571 25.4739 27.5C25.4739 30.543 27.9481 33.0099 31 33.0099Z" fill="white"/>
<path fill-rule="evenodd" clip-rule="evenodd" d="M4.58119 24.1035C3.24733 25.3041 2.69565 26.4541 2.69565 27.4999C2.69565 28.5458 3.24733 29.6958 4.58119 30.8964C5.9149 32.0968 7.9205 33.2394 10.5135 34.2266C15.6903 36.1974 22.933 37.4445 31 37.4445C39.067 37.4445 46.3097 36.1974 51.4865 34.2266C54.0795 33.2394 56.0851 32.0968 57.4188 30.8964C58.7527 29.6958 59.3043 28.5458 59.3043 27.4999C59.3043 26.4541 58.7527 25.3041 57.4188 24.1035C56.0851 22.9031 54.0795 21.7604 51.4865 20.7733C46.3097 18.8025 39.067 17.5554 31 17.5554C22.933 17.5554 15.6903 18.8025 10.5135 20.7733C7.9205 21.7604 5.9149 22.9031 4.58119 24.1035ZM9.55198 18.2624C15.1072 16.1475 22.6906 14.8677 31 14.8677C39.3094 14.8677 46.8928 16.1475 52.448 18.2624C55.221 19.318 57.5579 20.6078 59.2251 22.1084C60.8922 23.6089 62 25.4286 62 27.4999C62 29.5713 60.8922 31.3909 59.2251 32.8914C57.5579 34.3921 55.221 35.6818 52.448 36.7375C46.8928 38.8523 39.3094 40.1322 31 40.1322C22.6906 40.1322 15.1072 38.8523 9.55198 36.7375C6.77901 35.6818 4.44214 34.3921 2.77489 32.8914C1.10778 31.3909 0 29.5713 0 27.4999C0 25.4286 1.10778 23.6089 2.77489 22.1084C4.44214 20.6078 6.77901 19.318 9.55198 18.2624Z" fill="white"/>
<path fill-rule="evenodd" clip-rule="evenodd" d="M20.7407 2.98968C19.031 2.4382 17.7563 2.53684 16.8478 3.05977C15.9394 3.58271 15.2164 4.63408 14.8405 6.3861C14.4647 8.13794 14.475 10.4411 14.9141 13.1736C15.7907 18.629 18.3288 25.5065 22.3623 32.4722C26.3959 39.4378 31.1004 45.0681 35.4006 48.5528C37.5545 50.2982 39.5498 51.4587 41.2593 52.0101C42.969 52.5616 44.2438 52.4629 45.1522 51.94C46.0606 51.4171 46.7836 50.3657 47.1595 48.6137C47.5353 46.8618 47.525 44.5587 47.0859 41.8261C46.2093 36.3707 43.6712 29.4933 39.6377 22.5276C35.6042 15.5619 30.8996 9.93162 26.5994 6.44699C24.4455 4.70155 22.4502 3.54109 20.7407 2.98968ZM28.2996 4.36126C32.9141 8.10062 37.8175 14.0088 41.9722 21.1838C46.1269 28.3587 48.8069 35.5468 49.7476 41.4009C50.2172 44.3232 50.2653 46.9859 49.7955 49.1758C49.3258 51.3656 48.2991 53.232 46.5 54.2676C44.7009 55.3033 42.5665 55.2566 40.4296 54.5673C38.2926 53.878 36.0038 52.5051 33.7004 50.6385C29.0859 46.8991 24.1826 40.991 20.0278 33.816C15.8731 26.641 13.1931 19.453 12.2524 13.5988C11.7828 10.6766 11.7347 8.01389 12.2045 5.82394C12.6742 3.63418 13.7009 1.76781 15.5 0.732145C17.2991 -0.303523 19.4335 -0.256805 21.5704 0.432452C23.7074 1.12177 25.9962 2.4947 28.2996 4.36126Z" fill="white"/>
<path fill-rule="evenodd" clip-rule="evenodd" d="M47.1595 6.38617C46.7836 4.63414 46.0606 3.58277 45.1522 3.05984C44.2438 2.53691 42.969 2.43827 41.2593 2.98974C39.5498 3.54116 37.5545 4.70161 35.4006 6.44705C31.1004 9.93169 26.3959 15.562 22.3623 22.5277C18.3288 29.4933 15.7907 36.3708 14.9141 41.8262C14.475 44.5588 14.4647 46.8619 14.8405 48.6137C15.2164 50.3658 15.9394 51.4171 16.8478 51.9401C17.7563 52.463 19.031 52.5616 20.7407 52.0102C22.4502 51.4587 24.4455 50.2983 26.5994 48.5528C30.8996 45.0682 35.6042 39.4379 39.6377 32.4722C43.6712 25.5065 46.2093 18.6291 47.0859 13.1737C47.525 10.4411 47.5353 8.13801 47.1595 6.38617ZM49.7476 13.5989C48.8069 19.4531 46.1269 26.6411 41.9722 33.8161C37.8175 40.9911 32.9141 46.8992 28.2996 50.6386C25.9962 52.5051 23.7074 53.8781 21.5704 54.5674C19.4335 55.2566 17.2991 55.3034 15.5 54.2677C13.7009 53.232 12.6742 51.3656 12.2045 49.1759C11.7347 46.9859 11.7828 44.3232 12.2524 41.401C13.1931 35.5468 15.8731 28.3588 20.0278 21.1838C24.1826 14.0088 29.0859 8.10069 33.7004 4.36133C36.0038 2.49476 38.2926 1.12183 40.4296 0.432517C42.5665 -0.25674 44.7009 -0.303459 46.5 0.73221C48.2991 1.76788 49.3258 3.63425 49.7955 5.824C50.2653 8.01395 50.2172 10.6767 49.7476 13.5989Z" fill="white"/>
</g>
<defs>
<clipPath id="clip0_26_48">
<rect width="62" height="55" fill="white"/>
</clipPath>
</defs>
</svg>
