<svg width="58" height="55" viewBox="0 0 58 55" fill="none" xmlns="http://www.w3.org/2000/svg">
<path d="M40.1438 38.4117C42.2819 38.1905 43.9039 36.3473 43.8302 34.1355C43.7564 31.9237 41.9133 30.1543 39.7015 30.1543H39.554C37.2685 30.228 35.4991 32.1449 35.5728 34.4304C35.6465 35.5363 36.0889 36.4948 36.7524 37.1583C34.2457 42.098 30.4119 45.7106 24.6612 48.7334C20.7537 50.7977 16.6988 51.535 12.6438 51.0189C9.32613 50.5766 6.7457 49.102 5.12372 46.669C2.76447 43.0564 2.54329 39.1489 4.5339 35.2414C5.93471 32.4398 8.14651 30.3755 9.54731 29.3433C9.2524 28.3849 8.81004 26.7629 8.58886 25.5833C-2.10148 33.3245 -0.995586 43.7937 2.24838 48.7334C4.68136 52.4197 9.62104 54.7052 15.0768 54.7052C16.5513 54.7052 18.0259 54.5578 19.5004 54.1892C28.9374 52.346 36.0889 46.7428 40.1438 38.4117Z" fill="white"/>
<path d="M53.1197 29.2694C47.5165 22.7077 39.2591 19.0951 29.8221 19.0951H28.6425C27.979 17.768 26.5782 16.8833 25.0299 16.8833H24.8824C22.5969 16.957 20.8275 18.8739 20.9012 21.1594C20.9749 23.3712 22.8181 25.1407 25.0299 25.1407H25.1773C26.7993 25.0669 28.2001 24.0348 28.7899 22.634H30.117C35.7202 22.634 41.0286 24.256 45.8208 27.4262C49.5071 29.8592 52.1613 33.0294 53.6358 36.8632C54.8891 39.9597 54.8154 42.9825 53.4883 45.5629C51.424 49.4704 47.9588 51.6085 43.3878 51.6085C40.4387 51.6085 37.6371 50.7238 36.1626 50.0602C35.3516 50.7975 33.8771 51.9771 32.8449 52.7144C36.0152 54.1889 39.2591 54.9999 42.3556 54.9999C49.4334 54.9999 54.668 51.0924 56.6586 47.1849C58.7966 42.9088 58.6492 35.5361 53.1197 29.2694Z" fill="white"/>
<path d="M15.6666 39.6649C15.7403 41.8767 17.5835 43.6461 19.7953 43.6461H19.9428C22.2283 43.5724 23.9977 41.6555 23.924 39.37C23.8503 37.1582 22.0071 35.3887 19.7953 35.3887H19.6479C19.5004 35.3887 19.2792 35.3887 19.1318 35.4625C16.109 30.4491 14.8556 24.9933 15.298 19.0952C15.5929 14.6716 17.0674 10.8378 19.6479 7.66756C21.7859 4.93968 25.9146 3.6126 28.7162 3.53887C36.5312 3.39142 39.8489 13.1233 40.0701 17.0308C41.0286 17.252 42.6505 17.7681 43.7564 18.1367C42.8717 6.19303 35.4991 0 28.4213 0C21.7859 0 15.6666 4.79222 13.2336 11.87C9.84222 21.307 12.054 30.3753 16.1827 37.5268C15.8141 38.0429 15.5929 38.8539 15.6666 39.6649Z" fill="white"/>
</svg>
