<svg width="60" height="45" viewBox="0 0 60 45" fill="none" xmlns="http://www.w3.org/2000/svg">
<g clip-path="url(#clip0_25_28)">
<path d="M51.6349 25.8675C49.5429 25.8784 47.7247 26.3826 46.2022 27.1278C45.6436 26.0209 45.085 25.0346 44.9864 24.3112C44.8769 23.4673 44.7455 22.9522 44.8769 21.944C45.0084 20.9357 45.5998 19.5 45.5889 19.3904C45.5779 19.2808 45.4574 18.7657 44.2526 18.7547C43.0478 18.7438 42.0073 18.9849 41.8868 19.3027C41.7663 19.6205 41.5363 20.3439 41.3829 21.0891C41.1748 22.1851 38.9733 26.0976 37.7137 28.1471C37.3085 27.347 36.958 26.6456 36.8813 26.0867C36.7718 25.2428 36.6403 24.7277 36.7718 23.7194C36.9032 22.7111 37.4947 21.2754 37.4837 21.1658C37.4728 21.0562 37.3523 20.5411 36.1474 20.5302C34.9426 20.5192 33.9021 20.7603 33.7816 21.0781C33.6611 21.396 33.5297 22.1412 33.2778 22.8646C33.0259 23.5879 30.1014 30.1198 29.3347 31.8076C28.9404 32.6734 28.6009 33.3638 28.3599 33.8351C28.3599 33.8351 28.349 33.868 28.3161 33.9228C28.108 34.3283 27.9875 34.5475 27.9875 34.5475C27.9875 34.5475 27.9875 34.5475 27.9875 34.5584C27.8232 34.8543 27.648 35.1283 27.5604 35.1283C27.4947 35.1283 27.3742 34.3392 27.5823 33.2652C28.0204 30.9966 29.0609 27.4676 29.05 27.347C29.05 27.2813 29.2471 26.6675 28.3709 26.3497C27.5166 26.0319 27.2099 26.5579 27.1332 26.5579C27.0565 26.5579 27.0018 26.7442 27.0018 26.7442C27.0018 26.7442 27.9547 22.7769 25.1836 22.7769C23.453 22.7769 21.0653 24.6729 19.8824 26.3826C19.1376 26.7881 17.5494 27.6539 15.8517 28.5855C15.2055 28.9471 14.5374 29.3088 13.9131 29.6485C13.8692 29.6047 13.8254 29.5499 13.7816 29.5061C10.43 25.9223 4.23069 23.3906 4.49356 18.5794C4.59214 16.8258 5.19455 12.2228 16.3994 6.63343C25.6217 2.08521 32.9602 3.34556 34.2307 6.14025C36.0489 10.1295 30.2986 17.5382 20.7696 18.6122C17.1332 19.0177 15.2274 17.6149 14.7455 17.0889C14.2416 16.5409 14.165 16.508 13.9788 16.6176C13.6721 16.782 13.8692 17.2752 13.9788 17.5601C14.2636 18.3054 15.4355 19.6205 17.418 20.2671C19.1705 20.837 23.4311 21.1549 28.5899 19.1602C34.3621 16.9245 38.8747 10.7104 37.5494 5.5046C36.2241 0.222082 27.4618 -1.52049 19.1705 1.42763C14.2416 3.18117 8.89663 5.94298 5.05216 9.53772C0.484799 13.812 -0.238092 17.5272 0.0576363 19.0835C1.12007 24.6071 8.73234 28.2019 11.7772 30.865C11.6239 30.9527 11.4815 31.0294 11.361 31.0952C9.83858 31.8514 4.03354 34.8872 2.58776 38.0984C0.944822 41.7369 2.85063 44.3453 4.11021 44.696C8.0204 45.781 12.0401 43.8302 14.1978 40.6081C16.3556 37.386 16.0927 33.1994 15.096 31.2815C15.085 31.2596 15.0741 31.2377 15.0522 31.2157C15.4465 30.9856 15.8517 30.7445 16.246 30.5143C17.0237 30.054 17.7904 29.6266 18.4476 29.2759C18.0752 30.2951 17.8013 31.5117 17.6699 33.2652C17.5056 35.3256 18.349 37.9997 19.4552 39.0518C19.9481 39.5121 20.5286 39.5231 20.901 39.5231C22.1935 39.5231 22.774 38.4491 23.4202 37.1778C24.2088 35.6215 24.9207 33.8132 24.9207 33.8132C24.9207 33.8132 24.0335 38.7011 26.4432 38.7011C27.3194 38.7011 28.2066 37.5613 28.6009 36.9805C28.6009 36.9914 28.6009 36.9914 28.6009 36.9914C28.6009 36.9914 28.6228 36.9586 28.6666 36.8818C28.7542 36.7394 28.809 36.6517 28.809 36.6517C28.809 36.6517 28.809 36.6407 28.809 36.6298C29.1595 36.016 29.9481 34.6242 31.1201 32.3117C32.6316 29.3307 34.0883 25.6045 34.0883 25.6045C34.0883 25.6045 34.2197 26.5141 34.6688 28.0265C34.9317 28.9142 35.4793 29.8896 35.9174 30.8322C35.5669 31.3253 35.3479 31.5993 35.3479 31.5993C35.3479 31.5993 35.3479 31.5993 35.3588 31.6103C35.0741 31.9829 34.7674 32.3884 34.4278 32.783C33.234 34.2077 31.8101 35.8407 31.6129 36.312C31.3829 36.8709 31.4377 37.2764 31.8758 37.6052C32.1935 37.8463 32.763 37.8792 33.3435 37.8463C34.4169 37.7696 35.1726 37.5065 35.545 37.3422C36.1255 37.1339 36.8046 36.8161 37.4399 36.3448C38.6119 35.479 39.3238 34.2406 39.2581 32.6076C39.2252 31.7089 38.9295 30.8102 38.568 29.9664C38.6776 29.8129 38.7761 29.6595 38.8857 29.5061C40.7367 26.799 42.1715 23.829 42.1715 23.829C42.1715 23.829 42.303 24.7386 42.752 26.2511C42.9711 27.0182 43.4202 27.8512 43.8145 28.6622C42.073 30.076 40.9996 31.7199 40.6162 32.7939C39.9262 34.7886 40.4629 35.6873 41.4815 35.8955C41.9415 35.9941 42.5987 35.7749 43.0806 35.5667C43.694 35.3694 44.4169 35.0297 45.1069 34.5255C46.2789 33.6597 47.407 32.4542 47.3413 30.8212C47.3085 30.076 47.1113 29.3417 46.8375 28.6293C48.3161 28.0156 50.2219 27.6758 52.6535 27.9608C57.8671 28.5745 58.8966 31.8295 58.6995 33.1994C58.5023 34.5694 57.407 35.3146 57.0456 35.5448C56.6841 35.7749 56.5637 35.8517 56.5965 36.016C56.6403 36.2572 56.8156 36.2462 57.1223 36.2024C57.5494 36.1256 59.8605 35.0954 59.9591 32.5747C60.1234 29.3526 57.0565 25.8346 51.6349 25.8675ZM11.4158 39.4354C9.68524 41.3205 7.2756 42.0328 6.23507 41.4301C5.11788 40.7835 5.55599 37.9997 7.68086 36.0051C8.9733 34.7886 10.6381 33.6597 11.7444 32.9693C11.9963 32.8158 12.3687 32.5967 12.8178 32.3227C12.8944 32.2788 12.9382 32.2569 12.9382 32.2569C13.0259 32.2021 13.1135 32.1473 13.2011 32.0925C13.9788 34.942 13.234 37.4517 11.4158 39.4354ZM24.0116 30.865C23.4092 32.3336 22.1496 36.0928 21.3829 35.8845C20.7258 35.7092 20.3205 32.8597 21.2515 30.0431C21.7225 28.6293 22.7192 26.9415 23.2997 26.2839C24.2416 25.2318 25.2822 24.8811 25.5341 25.3085C25.8517 25.8675 24.384 29.9444 24.0116 30.865ZM34.4059 35.8407C34.154 35.9722 33.9131 36.0599 33.8035 35.9941C33.7269 35.9503 33.9131 35.7749 33.9131 35.7749C33.9131 35.7749 35.2165 34.3721 35.7312 33.7365C36.027 33.3638 36.3775 32.9254 36.7499 32.4323C36.7499 32.4761 36.7499 32.5309 36.7499 32.5747C36.7499 34.2516 35.1288 35.3804 34.4059 35.8407ZM42.4235 34.0104C42.2373 33.8789 42.2701 33.4405 42.8944 32.0706C43.1354 31.5336 43.705 30.6349 44.6798 29.7691C44.7893 30.1198 44.866 30.4595 44.855 30.7774C44.8441 32.8926 43.3326 33.6817 42.4235 34.0104Z" fill="white"/>
</g>
<defs>
<clipPath id="clip0_25_28">
<rect width="60" height="45" fill="white"/>
</clipPath>
</defs>
</svg>
