<svg width="68" height="68" viewBox="0 0 68 68" fill="none" xmlns="http://www.w3.org/2000/svg">
<g clip-path="url(#clip0_26_58)">
<path d="M45.9397 19.1589L45.7272 20.2668C45.3985 22.3663 45.5175 22.9669 46.4185 23.7461L47.2883 24.4658L46.3873 28.4834C45.849 30.8804 45.1888 32.8893 44.7695 33.5494C44.4097 34.1189 43.9903 34.9576 43.8997 35.4081C43.7495 35.9464 43.2395 36.4876 42.4603 36.9664C41.7718 37.3574 40.4203 38.4058 39.4627 39.2473C38.6977 39.9358 38.1707 40.3579 37.8845 40.5393L36.9495 41.2788C36.6492 41.7604 36.4792 42.1486 36.414 42.4433C36.3488 42.7464 36.3857 42.9476 36.482 43.0949C36.5755 43.2366 36.737 43.3358 36.958 43.3981C37.2196 43.4594 37.4889 43.4814 37.757 43.4633C38.3635 43.4218 38.9638 43.3154 39.5477 43.1459C39.746 43.0921 39.9018 43.0411 40.0378 42.9958C40.2475 42.7379 40.732 42.2506 41.5905 41.4034C43.8685 39.1566 44.7383 37.9269 43.8402 38.2584C43.5087 38.3774 43.6588 38.0771 44.2283 37.4764C45.4297 36.3063 46.1182 34.5383 47.5575 28.9934C48.6965 24.6159 48.6965 24.5536 49.5352 24.5536C49.929 24.5536 51.0425 24.6216 51.0425 24.6216V19.1589H48.4868H45.9397ZM56.8168 28.1264C56.6355 28.1264 56.3352 28.3984 56.1567 28.6988C55.828 29.2371 56.2162 29.5658 61.1632 32.6541C64.1013 34.5156 66.47 36.1023 66.4105 36.2241C66.351 36.3119 63.9512 37.8731 61.0753 39.6723C55.8563 42.9079 55.828 42.9391 56.3068 43.5993C56.9075 44.3784 56.3068 44.6476 63.0813 40.4203L68 37.2724V34.9038L62.5118 31.5151C59.5453 29.6564 56.967 28.1576 56.8168 28.1264ZM11.2427 28.4579C11.0925 28.4579 8.51417 29.9879 5.54767 31.8154L0 35.2041V37.5728L5.5165 41.0209C8.5765 42.9079 11.1548 44.4691 11.2738 44.4691C11.3928 44.4691 11.6337 44.1971 11.8745 43.8684C12.2343 43.2989 11.9312 43.0581 6.86517 39.8508C2.04 36.8219 1.53 36.4026 2.01167 36.0739C2.312 35.8643 4.59 34.4533 7.04933 32.9261C12.6565 29.4779 12.3562 29.7159 11.9057 28.9963C11.7272 28.6988 11.424 28.4296 11.2455 28.4579H11.2427ZM35.8473 28.5231C35.02 28.5174 33.2407 29.7783 27.914 34.1274C27.6845 34.6743 27.6647 35.0511 27.7695 35.2948C27.8375 35.4619 27.9622 35.5781 28.135 35.6631C28.305 35.7481 28.526 35.7991 28.7697 35.8189C29.2542 35.8614 29.8265 35.7849 30.2883 35.6943L30.6 35.6234C30.7067 35.4804 30.8468 35.3656 31.008 35.2891C31.3367 35.1078 32.7165 33.8498 34.0963 32.5011C36.5245 30.0418 37.094 28.9311 36.1052 28.5713C36.024 28.539 35.9346 28.5226 35.8473 28.5231ZM42.0693 30.2316C41.3412 30.2514 40.0293 31.0958 37.7825 32.8893C36.6548 33.8044 35.9408 34.2974 35.5583 34.3994L34.0737 35.5724C33.5155 36.5924 33.4333 37.2243 33.5807 37.5728C33.6175 37.6587 33.6711 37.7365 33.7382 37.8017C33.8053 37.8669 33.8847 37.9181 33.9717 37.9524C34.1881 38.0379 34.4189 38.0812 34.6517 38.0799C35.2078 38.074 35.7606 37.993 36.295 37.8391C36.5735 37.7644 36.8486 37.6774 37.1195 37.5784L37.2017 37.5444L37.3518 37.4651C37.6352 37.0996 38.2868 36.4111 39.1028 35.6178C41.6812 33.1301 42.9987 31.3621 42.7295 30.7019C42.6077 30.3818 42.398 30.2203 42.0693 30.2316ZM35.2013 33.2916C34.9917 33.3143 34.5213 33.6769 33.6742 34.4193C32.4502 35.5016 31.1157 36.1249 30.6538 35.8473C30.5465 35.8715 30.4388 35.8942 30.3308 35.9153C29.8605 36.0088 29.274 36.0853 28.7498 36.0428C28.5029 36.0278 28.2608 35.9673 28.0358 35.8643C27.8236 35.7673 27.6543 35.5959 27.5598 35.3826C27.455 35.1276 27.455 34.8103 27.574 34.4051L25.7323 35.9181L21.5645 39.3663V44.9564L35.2212 34.1983C35.2185 34.0805 35.2338 33.963 35.2665 33.8498C35.3713 33.4701 35.3657 33.2774 35.2013 33.2944V33.2916ZM41.0777 35.1021C40.8708 35.1021 40.5252 35.3939 39.9727 35.9804C39.2218 36.7823 38.0403 37.5586 37.4142 37.7173L37.3178 37.7683C37.215 37.8107 37.1111 37.8504 37.0062 37.8873C36.8362 37.9439 36.6152 38.0119 36.3602 38.0799C35.8502 38.2188 35.2155 38.3463 34.6488 38.3321C34.3817 38.3318 34.1171 38.2798 33.8697 38.1791C33.6364 38.083 33.4496 37.9002 33.3483 37.6691C33.184 37.2753 33.2492 36.7228 33.609 35.9379L21.5617 45.4268V48.8409H26.8543L38.08 40.0236C38.3718 39.7006 38.811 39.2586 39.4032 38.7061C40.9898 37.2356 41.3497 36.7284 41.3497 35.9776C41.3497 35.3939 41.2845 35.0993 41.0777 35.0993V35.1021ZM43.7495 40.6271L42.789 41.5848C42.2507 42.0948 41.2902 42.7238 40.6328 42.9929L40.5025 43.0496L40.494 43.0638L40.4657 43.0921C40.4402 43.1119 40.4288 43.1148 40.409 43.1233C40.1466 43.2226 39.88 43.3105 39.61 43.3868C39.0097 43.5615 38.3922 43.6708 37.7683 43.7126C37.4734 43.7315 37.1772 43.7057 36.89 43.6361C36.6407 43.5812 36.4206 43.4359 36.2723 43.2281C36.1363 43.0184 36.0967 42.7379 36.1732 42.3923C36.234 42.1462 36.3244 41.9083 36.4423 41.6839L27.3842 48.8409H39.4315L40.8708 47.1919C42.8485 44.8856 43.7495 43.2366 43.7495 41.8256V40.6271Z" fill="white"/>
</g>
<defs>
<clipPath id="clip0_26_58">
<rect width="68" height="68" fill="white"/>
</clipPath>
</defs>
</svg>
