<svg width="64" height="40" viewBox="0 0 64 40" fill="none" xmlns="http://www.w3.org/2000/svg">
<path fill-rule="evenodd" clip-rule="evenodd" d="M31.9992 0.952393C23.6322 0.952393 18.4036 5.18554 16.3118 13.6503C19.4502 9.41868 23.1097 7.82935 27.2932 8.88839C29.6801 9.49335 31.3863 11.2442 33.2733 13.184C36.3499 16.3429 39.91 20 47.6851 20C56.0522 20 61.2808 15.7669 63.3725 7.30211C60.2357 11.5337 56.5747 13.1215 52.3927 12.064C50.0058 11.4591 48.2996 9.7082 46.4111 7.76687C43.3345 4.60954 39.7744 0.952393 31.9992 0.952393ZM16.3148 20C7.94632 20 2.7192 24.2301 0.627441 32.6964C3.76432 28.4633 7.42527 26.8754 11.6088 27.9345C13.9942 28.5379 15.7004 30.2903 17.5889 32.2286C20.6655 35.3905 24.2256 39.0476 32.0007 39.0476C40.3678 39.0476 45.5964 34.816 47.6881 26.3497C44.5498 30.5829 40.8903 32.1707 36.7068 31.1116C34.3199 30.5082 32.6152 28.7558 30.7267 26.816C27.6501 23.6572 24.09 20 16.3148 20Z" fill="white"/>
</svg>
