<svg width="65" height="65" viewBox="0 0 65 65" fill="none" xmlns="http://www.w3.org/2000/svg">
<path fill-rule="evenodd" clip-rule="evenodd" d="M39.8996 51.4737V57.6621C40.9263 58.1779 42.1405 58.5645 43.5424 58.8224C44.9442 59.0803 46.4216 59.2092 47.9749 59.2092C49.4886 59.2092 50.9265 59.0674 52.2889 58.7837C53.6512 58.5001 54.8458 58.0327 55.8725 57.3816C56.8991 56.7307 57.7119 55.8797 58.3108 54.8289C58.9097 53.7782 59.2092 52.4793 59.2092 50.9322C59.2092 49.8105 59.0381 48.8275 58.6958 47.9831C58.3536 47.1386 57.8601 46.3877 57.215 45.7301C56.5701 45.0726 55.7968 44.4827 54.8951 43.9605C53.9935 43.4384 52.9767 42.9453 51.8447 42.4812C51.0155 42.1459 50.2718 41.8205 49.6136 41.5046C48.9555 41.1886 48.3961 40.8664 47.9354 40.5377C47.4747 40.2088 47.1193 39.8607 46.8692 39.4933C46.6192 39.1258 46.494 38.7101 46.494 38.2459C46.494 37.8205 46.6059 37.437 46.8297 37.0953C47.0535 36.7536 47.3694 36.4604 47.7774 36.2154C48.1855 35.9705 48.6856 35.7802 49.2779 35.6449C49.8704 35.5095 50.5284 35.4419 51.2524 35.4419C51.7788 35.4419 52.3349 35.4806 52.9207 35.5578C53.5064 35.6352 54.0954 35.7545 54.6879 35.9156C55.2802 36.0768 55.8559 36.2799 56.4154 36.5248C56.9748 36.7698 57.4914 37.0534 57.9653 37.3758V31.5934C57.0045 31.2324 55.9547 30.9649 54.8162 30.7909C53.6776 30.6168 52.3711 30.5298 50.897 30.5298C49.3964 30.5298 47.9749 30.6878 46.6323 31.0036C45.2898 31.3195 44.1084 31.8126 43.0882 32.483C42.0681 33.1535 41.262 34.0075 40.6697 35.0454C40.0774 36.0832 39.7812 37.3241 39.7812 38.7681C39.7812 40.6117 40.3241 42.1846 41.4101 43.4868C42.4959 44.7889 44.1445 45.8912 46.3559 46.7937C47.2246 47.1419 48.0342 47.4834 48.7844 47.8187C49.5347 48.1539 50.183 48.502 50.7291 48.863C51.2754 49.224 51.7064 49.6172 52.0224 50.0427C52.3383 50.468 52.4963 50.9515 52.4963 51.4931C52.4963 51.8927 52.3975 52.2634 52.2001 52.605C52.0026 52.9467 51.7031 53.2432 51.3017 53.4946C50.9003 53.746 50.4001 53.9426 49.8012 54.0844C49.2022 54.2263 48.5014 54.2971 47.6985 54.2971C46.3295 54.2971 44.9739 54.0619 43.6312 53.5913C42.2886 53.1208 41.0447 52.4149 39.8996 51.4737ZM29.2825 36.2264H37.3842V31.1479H14.8023V36.2264H22.8644V58.8384H29.2825V36.2264Z" fill="white"/>
</svg>
