<svg width="80" height="80" viewBox="0 0 80 80" fill="none" xmlns="http://www.w3.org/2000/svg">
<rect width="80" height="80" fill="#232629"/>
<path fill-rule="evenodd" clip-rule="evenodd" d="M47.8996 59.4737V65.6621C48.9263 66.1779 50.1405 66.5645 51.5424 66.8224C52.9442 67.0803 54.4216 67.2092 55.9749 67.2092C57.4886 67.2092 58.9265 67.0674 60.2889 66.7837C61.6512 66.5001 62.8458 66.0327 63.8725 65.3816C64.8991 64.7307 65.7119 63.8797 66.3108 62.8289C66.9097 61.7782 67.2092 60.4793 67.2092 58.9322C67.2092 57.8105 67.0381 56.8275 66.6958 55.9831C66.3536 55.1386 65.8601 54.3877 65.215 53.7301C64.5701 53.0726 63.7968 52.4827 62.8951 51.9605C61.9935 51.4384 60.9767 50.9453 59.8447 50.4812C59.0155 50.1459 58.2718 49.8205 57.6136 49.5046C56.9555 49.1886 56.3961 48.8664 55.9354 48.5377C55.4747 48.2088 55.1193 47.8607 54.8692 47.4933C54.6192 47.1258 54.494 46.7101 54.494 46.2459C54.494 45.8205 54.6059 45.437 54.8297 45.0953C55.0535 44.7536 55.3694 44.4604 55.7774 44.2154C56.1855 43.9705 56.6856 43.7802 57.2779 43.6449C57.8704 43.5095 58.5284 43.4419 59.2524 43.4419C59.7788 43.4419 60.3349 43.4806 60.9207 43.5578C61.5064 43.6352 62.0954 43.7545 62.6879 43.9156C63.2802 44.0768 63.8559 44.2799 64.4154 44.5248C64.9748 44.7698 65.4914 45.0534 65.9653 45.3758V39.5934C65.0045 39.2324 63.9547 38.9649 62.8162 38.7909C61.6776 38.6168 60.3711 38.5298 58.897 38.5298C57.3964 38.5298 55.9749 38.6878 54.6323 39.0036C53.2898 39.3195 52.1084 39.8126 51.0882 40.483C50.0681 41.1535 49.262 42.0075 48.6697 43.0454C48.0774 44.0832 47.7812 45.3241 47.7812 46.7681C47.7812 48.6117 48.3241 50.1846 49.4101 51.4868C50.4959 52.7889 52.1445 53.8912 54.3559 54.7937C55.2246 55.1419 56.0342 55.4834 56.7844 55.8187C57.5347 56.1539 58.183 56.502 58.7291 56.863C59.2754 57.224 59.7064 57.6172 60.0224 58.0427C60.3383 58.468 60.4963 58.9515 60.4963 59.4931C60.4963 59.8927 60.3975 60.2634 60.2001 60.605C60.0026 60.9467 59.7031 61.2432 59.3017 61.4946C58.9003 61.746 58.4001 61.9426 57.8012 62.0844C57.2022 62.2263 56.5014 62.2971 55.6985 62.2971C54.3295 62.2971 52.9739 62.0619 51.6312 61.5913C50.2886 61.1208 49.0447 60.4149 47.8996 59.4737ZM37.2825 44.2264H45.3842V39.1479H22.8023V44.2264H30.8644V66.8384H37.2825V44.2264Z" fill="white"/>
</svg>
